<?xml version="1.0" standalone="no"?>
<!DOCTYPE svg PUBLIC "-//W3C//DTD SVG 1.1//EN" "http://www.w3.org/Graphics/SVG/1.1/DTD/svg11.dtd" >
<svg xmlns="http://www.w3.org/2000/svg" xmlns:xlink="http://www.w3.org/1999/xlink" version="1.1">
<metadata></metadata>
<defs>
<font id="arvobold_italic" horiz-adv-x="1182" >
<font-face units-per-em="2048" ascent="1638" descent="-410" />
<missing-glyph horiz-adv-x="492" />
<glyph unicode="&#xd;" horiz-adv-x="0" />
<glyph unicode=" "  horiz-adv-x="492" />
<glyph unicode="&#x09;" horiz-adv-x="492" />
<glyph unicode="&#xa0;" horiz-adv-x="492" />
<glyph unicode="!" horiz-adv-x="866" d="M533 1577h375l-286 -1061h-293zM246 145q0 37 14 69.5t38 56.5t56.5 38t70.5 14q36 0 68 -14t56 -38t38 -56.5t14 -69.5t-14 -69.5t-38 -56.5t-56 -38t-68 -14q-38 0 -70.5 14t-56.5 38t-38 56.5t-14 69.5z" />
<glyph unicode="&#x22;" horiz-adv-x="913" d="M465 1059h-219l71 518l289 16zM895 1059h-219l72 518l288 16z" />
<glyph unicode="#" horiz-adv-x="1835" d="M539 1198h199l128 299h326l-127 -299h320l128 299h326l-128 -299h206l-123 -274h-199l-155 -363h205l-123 -274h-198l-122 -287h-328l122 287h-318l-121 -287h-332l123 287h-205l123 274h199l156 363h-205zM795 561h318l155 363h-319z" />
<glyph unicode="$" horiz-adv-x="1292" d="M344 -229l53 229q-113 32 -182.5 103.5t-81.5 172.5h-113l60 256h364l-18 -76q-14 -89 37 -142.5t170 -53.5q56 0 100.5 15t76 41.5t48 63t16.5 79.5q0 33 -14 57t-37.5 41.5t-54.5 30.5t-66 24l-172 60q-60 20 -109.5 55.5t-85 83.5t-55.5 108.5t-20 129.5 q0 108 35.5 192t100 145t155.5 97.5t201 50.5l53 229h332l-58 -249q109 -33 174 -96.5t76 -141.5h115l-60 -256h-362l11 49q10 46 0 82.5t-36 61.5t-65 38t-86 13q-49 0 -93 -9.5t-77 -30t-52.5 -52.5t-19.5 -76q0 -39 16.5 -63.5t42.5 -40.5t57.5 -26.5t61.5 -21.5l207 -76 q128 -46 187 -139t59 -227q0 -108 -37 -196.5t-104.5 -154.5t-161 -108t-207.5 -58l-49 -214h-332z" />
<glyph unicode="%" horiz-adv-x="1927" d="M168 1108q0 92 37.5 174.5t103 144.5t153 98t187.5 36q76 0 139 -27.5t108 -74t70 -107t25 -127.5q0 -89 -36.5 -170.5t-101 -143.5t-152.5 -99.5t-191 -37.5q-77 0 -140 28t-108 74.5t-69.5 106.5t-24.5 125zM606 1284q-29 0 -55.5 -10t-46.5 -28.5t-31.5 -44 t-11.5 -56.5q0 -40 23.5 -68t68.5 -28q28 0 55.5 11t49 30.5t34.5 45.5t13 56q0 43 -26 67.5t-73 24.5zM1565 1540h383l-1401 -1556h-383zM1104 283q0 60 17 117.5t48.5 108t75.5 93t97.5 73t115.5 47.5t129 17q76 0 138.5 -27.5t107.5 -74t69.5 -108t24.5 -128.5 q0 -90 -36 -171t-100 -142.5t-152.5 -98t-192.5 -36.5q-76 0 -139 27t-108 72.5t-70 105.5t-25 125zM1542 463q-29 0 -55.5 -10.5t-46.5 -29t-31.5 -45t-11.5 -59.5q0 -37 24.5 -64.5t69.5 -27.5q28 0 55 11t48 30.5t33.5 46t12.5 56.5q0 43 -26.5 67.5t-71.5 24.5z" />
<glyph unicode="&#x26;" horiz-adv-x="1300" d="M1016 -59l-123 166q-89 -62 -196.5 -97t-237.5 -35q-91 0 -167.5 33.5t-132 89.5t-87 130.5t-31.5 156.5q0 77 21.5 136.5t62.5 110t100 95t97.5 68t42.5 25.5q-52 71 -70.5 133.5t-18.5 131.5q0 102 35 186.5t98 145t151.5 94t195.5 33.5q84 0 155 -30t122 -79 t79.5 -111.5t28.5 -127.5q0 -71 -19.5 -127t-55 -102t-85 -85.5t-109.5 -76.5q-19 -12 -37.5 -23t-38.5 -22l133 -169q23 45 39 88t27 85h291q-23 -109 -63.5 -215.5t-102.5 -201.5l166 -210zM358 408q0 -27 9.5 -52t27.5 -44t44.5 -30.5t60.5 -11.5q60 0 115 19.5t104 52.5 l-199 269q-38 -21 -68 -42t-51 -45t-32 -52t-11 -64zM758 1022q48 31 69 65t21 82q0 45 -28.5 77t-76.5 32q-35 0 -66 -12.5t-54.5 -35t-37.5 -53t-14 -67.5q0 -28 10 -58.5t59 -92.5q34 17 64 32.5t54 30.5z" />
<glyph unicode="'" horiz-adv-x="483" d="M465 1059h-219l71 518l289 16z" />
<glyph unicode="(" horiz-adv-x="874" d="M354 -467q-47 81 -82.5 176.5t-59.5 198.5t-36 210t-12 210q0 196 47.5 386t138.5 370.5t222.5 352t299.5 332.5l207 -172q-130 -131 -237 -275t-184 -299.5t-119.5 -320t-42.5 -335.5q0 -86 9.5 -177t27.5 -179.5t44.5 -169.5t61.5 -148z" />
<glyph unicode=")" horiz-adv-x="874" d="M623 1769q47 -81 82.5 -176.5t59.5 -198.5t36 -209.5t12 -209.5q0 -197 -47.5 -386.5t-138.5 -370.5t-223 -353t-300 -332l-206 172q130 130 237 274.5t184 300t119.5 320.5t42.5 336q0 86 -9.5 177t-27.5 179t-45 169.5t-61 148.5z" />
<glyph unicode="*" horiz-adv-x="983" d="M708 1368l253 76l22 -256l-248 -74l94 -192l-237 -148l-92 191l-185 -195l-186 170l181 192l-208 72l134 242l208 -74l56 244h264z" />
<glyph unicode="+" horiz-adv-x="1237" d="M166 723h366l86 373h297l-86 -373h367l-63 -274h-368l-87 -377h-297l87 377h-366z" />
<glyph unicode="," horiz-adv-x="532" d="M205 283l305 -107l-285 -541l-205 78z" />
<glyph unicode="-" horiz-adv-x="831" d="M143 449l64 274h627l-64 -274h-627z" />
<glyph unicode="." horiz-adv-x="539" d="M102 145q0 37 14 69.5t38 56.5t56.5 38t70.5 14q36 0 68 -14t56 -38t38 -56.5t14 -69.5t-14 -69.5t-38 -56.5t-56 -38t-68 -14q-38 0 -70.5 14t-56.5 38t-38 56.5t-14 69.5z" />
<glyph unicode="/" horiz-adv-x="983" d="M860 1556h277l-824 -1556h-282z" />
<glyph unicode="0" horiz-adv-x="1360" d="M551 -14q-121 0 -206 40t-139 110.5t-79 167t-25 208.5q0 110 23 229t69 232.5t114 215.5t158 178.5t201 121.5t244 45q122 0 207.5 -41t139 -112.5t78 -168t24.5 -206.5q0 -119 -24 -241t-70.5 -235t-115.5 -212.5t-159 -173t-200.5 -116t-239.5 -42.5zM623 293 q59 0 113 32t99.5 85.5t82.5 123.5t63.5 146t40.5 152.5t14 144.5q0 54 -9.5 100t-32 80.5t-60 54t-92.5 19.5q-59 0 -113 -32.5t-100.5 -86.5t-84 -124t-63.5 -146t-40.5 -152.5t-14.5 -142.5q0 -55 9.5 -101.5t32.5 -80.5t61 -53t94 -19z" />
<glyph unicode="1" horiz-adv-x="813" d="M84 274h174l182 792l-266 -140l82 348l473 246l145 -2l-286 -1244h172l-64 -274h-676z" />
<glyph unicode="2" horiz-adv-x="1137" d="M18 260l654 557q54 44 93.5 81t64.5 71.5t37 68.5t12 72q0 25 -9 49t-27 42t-44.5 29t-61.5 11q-49 0 -84.5 -15.5t-61 -42.5t-42 -63t-27.5 -76h-329q27 118 80 210.5t128.5 156t171.5 96.5t207 33q98 0 179 -33t138.5 -89.5t89.5 -131.5t32 -160q0 -51 -8.5 -98.5 t-29.5 -94t-56 -91.5t-87 -90l-515 -445h497l-72 -307h-989z" />
<glyph unicode="3" horiz-adv-x="1204" d="M907 1108q0 27 -10 52.5t-30 46t-49.5 32.5t-67.5 12q-37 0 -69 -12.5t-56.5 -33.5t-41.5 -48.5t-24 -58.5q-3 -11 -4.5 -17.5t-3.5 -17.5l-358 2q21 105 74.5 194t134.5 153.5t186.5 101t230.5 36.5q97 0 179 -30t141.5 -81.5t93 -120t33.5 -144.5q0 -69 -16 -127.5 t-46 -105.5t-72 -83.5t-94 -62.5q24 -17 43.5 -42.5t33.5 -57.5t22 -70t8 -78q0 -118 -52.5 -221t-144 -179.5t-216.5 -120.5t-269 -44q-105 0 -188 34.5t-138.5 93.5t-79.5 138t-10 168q2 14 2 31t6 40h342q-9 -52 -2.5 -90.5t25 -63.5t48.5 -37.5t69 -12.5q48 0 93 17 t79.5 47t55.5 70t21 85q0 72 -44 110.5t-128 38.5h-139l64 273h141q52 0 94 15t71.5 40.5t45.5 58.5t16 70z" />
<glyph unicode="4" horiz-adv-x="1251" d="M76 670l737 846h363l-727 -848h298l68 293l315 4l-69 -297h211l-58 -254h-211l-33 -140h187l-63 -274h-676l63 274h175l33 140h-669z" />
<glyph unicode="5" horiz-adv-x="1163" d="M502 937q44 14 94 23t113 9q87 0 163 -25t133 -73.5t90 -119.5t33 -163q0 -139 -52.5 -253t-143.5 -195.5t-212.5 -126t-260.5 -44.5q-92 0 -173 28t-141 80.5t-93.5 128.5t-28.5 171l329 84q-5 -47 6.5 -84t35.5 -63t58.5 -40t77.5 -14q58 0 107.5 22.5t85.5 60t56 86.5 t20 101q0 35 -13 67t-37 56.5t-58.5 39t-78.5 14.5q-32 0 -59.5 -3t-53.5 -9t-51 -15t-53 -21l-258 50l187 807h962l-72 -306h-649z" />
<glyph unicode="6" horiz-adv-x="1133" d="M1142 1516l-444 -541h13q93 0 166.5 -37t125.5 -98t79.5 -138t27.5 -157q0 -114 -47.5 -215t-127 -176.5t-183.5 -119.5t-218 -44q-92 0 -163.5 20.5t-124 55t-88 79.5t-57 95t-31 101.5t-9.5 97.5q0 60 14 116.5t37.5 107.5t53 97t61.5 86l528 670h387zM596 719 q-113 0 -192 -106q-21 -32 -36.5 -71t-15.5 -89q0 -36 11 -69.5t33.5 -59.5t57 -41.5t81.5 -15.5q51 0 97.5 21t82 57t57 85.5t21.5 106.5q0 83 -49 132.5t-148 49.5z" />
<glyph unicode="7" horiz-adv-x="1243" d="M143 274h150q79 118 161.5 240t163.5 241t159 232.5t148 216.5h-391l-40 -172h-328l113 484h1148l-53 -226q-172 -242 -354.5 -499.5t-357.5 -516.5h157l-63 -274h-676z" />
<glyph unicode="8" horiz-adv-x="1196" d="M860 1544q91 0 168 -27t132.5 -77.5t86.5 -124t31 -166.5q0 -57 -18 -109.5t-50.5 -100t-77 -88t-98.5 -72.5q60 -56 94.5 -128t34.5 -151q0 -105 -49.5 -200t-136.5 -168t-205 -116t-256 -43q-104 0 -188.5 35.5t-143.5 94t-91 134t-32 156.5q0 66 21 126t58.5 112.5 t89.5 97t114 78.5q-46 50 -71 110.5t-25 124.5q0 104 48 195.5t131 159.5t194.5 107.5t238.5 39.5zM371 432q0 -35 14 -65.5t39.5 -54t61 -37t79.5 -13.5q55 0 106 19.5t91 52t64 75t24 87.5q0 34 -14 64.5t-39.5 53t-61 35.5t-78.5 13q-56 0 -107.5 -18.5t-91.5 -50 t-63.5 -73.5t-23.5 -88zM551 1055q0 -29 11.5 -55t33 -45.5t52 -30.5t67.5 -11q46 0 90 16t78 43t54.5 62.5t20.5 73.5q0 30 -12 56.5t-33.5 47t-51.5 32t-66 11.5q-48 0 -92 -17t-77.5 -45t-54 -64t-20.5 -74z" />
<glyph unicode="9" horiz-adv-x="1118" d="M92 0l448 549h-14q-93 0 -166.5 37t-125.5 98t-79.5 138t-27.5 157q0 76 21.5 147t60 132.5t92.5 112.5t118 87t136 56t148 20q93 0 164 -20.5t123.5 -55t88 -79.5t57 -95t31 -101.5t9.5 -97.5q0 -60 -14 -116t-37.5 -107t-53.5 -97.5t-61 -86.5l-531 -678h-387zM641 805 q113 0 192 106q21 31 36.5 70t15.5 90q0 36 -11 69.5t-33.5 59.5t-57 41.5t-81.5 15.5q-51 0 -97.5 -21t-82 -57t-57 -85.5t-21.5 -106.5q0 -83 49 -132.5t148 -49.5z" />
<glyph unicode=":" horiz-adv-x="600" d="M259 976.5q14 32.5 38 56.5t56.5 38t70.5 14q36 0 68 -14t56 -38t38 -56.5t14 -69.5t-14 -69.5t-38 -56.5t-56 -38t-68 -14q-38 0 -70.5 14t-56.5 38t-38 56.5t-14 69.5t14 69.5zM96 214.5q14 32.5 38 56.5t56.5 38t70.5 14q36 0 68 -14t56 -38t38 -56.5t14 -69.5 t-14 -69.5t-38 -56.5t-56 -38t-68 -14q-38 0 -70.5 14t-56.5 38t-38 56.5t-14 69.5t14 69.5z" />
<glyph unicode=";" horiz-adv-x="610" d="M270 976.5q14 32.5 38 56.5t56.5 38t70.5 14q36 0 68 -14t56 -38t38 -56.5t14 -69.5t-14 -69.5t-38 -56.5t-56 -38t-68 -14q-38 0 -70.5 14t-56.5 38t-38 56.5t-14 69.5t14 69.5zM143 283l305 -107l-284 -541l-205 78z" />
<glyph unicode="&#x3c;" horiz-adv-x="971" d="M158 705l813 270l-68 -287l-450 -124l393 -130l-58 -254l-686 285z" />
<glyph unicode="=" horiz-adv-x="1176" d="M166 526h872l-63 -274h-873zM281 1024h872l-63 -274h-873z" />
<glyph unicode="&#x3e;" horiz-adv-x="971" d="M854 451l-813 -271l68 287l449 123l-392 131l57 254l686 -285z" />
<glyph unicode="?" horiz-adv-x="1085" d="M305 471q12 63 28 111t37 85.5t47 67t58.5 56t71.5 52.5t86 56q50 33 81 63.5t48 59.5t23 58t6 59q0 24 -8 44.5t-22 35t-32 22.5t-39 8t-44.5 -7t-44.5 -25t-38.5 -50t-27.5 -82l-330 33q23 108 69 189t113 135.5t153 82t189 27.5q88 0 164 -28t132.5 -77.5t89 -118.5 t32.5 -150q0 -60 -9.5 -115t-35 -106.5t-71.5 -100t-118 -94.5q-38 -25 -71 -44.5t-62 -38.5t-53 -38.5t-43.5 -44t-34 -55t-24.5 -70.5h-320zM418 323q36 0 68 -14t56 -38t38 -56.5t14 -69.5t-14 -69.5t-38 -56.5t-56 -38t-68 -14q-38 0 -70.5 14t-56.5 38t-38 56.5 t-14 69.5t14 69.5t38 56.5t56.5 38t70.5 14z" />
<glyph unicode="@" horiz-adv-x="2140" d="M1677 956l-149 -647q-6 -21 -6 -39t6 -31t17 -20.5t28 -7.5q49 0 87 26.5t66 68t47.5 92t31.5 99t17 89t5 61.5q0 110 -40 207.5t-113.5 171t-177 116t-230.5 42.5q-117 0 -227 -28.5t-206.5 -80.5t-176 -125t-137 -163.5t-89 -195.5t-31.5 -220q0 -129 39.5 -234 t111.5 -180t173 -115.5t225 -40.5q99 0 204.5 31.5t211.5 87.5l84 -227q-140 -75 -273.5 -115.5t-267.5 -40.5q-114 0 -216 28.5t-189 80.5t-157 125t-119.5 163t-76 194t-26.5 218q0 156 41 298t115.5 264.5t180 222t234 170t277 109t309.5 38.5q122 0 230.5 -28.5 t199.5 -79.5t163 -121.5t122.5 -156t77 -182.5t26.5 -200q0 -94 -19 -182t-54.5 -165.5t-87.5 -142t-117.5 -111t-144 -72t-167.5 -25.5q-81 0 -139.5 28.5t-91.5 81.5q-64 -53 -140.5 -80.5t-156.5 -27.5q-95 0 -171 33t-129.5 89t-82.5 130t-29 157q0 93 25 171.5 t68 142.5t100 113t122 82t134 50t135 17q74 0 127.5 -18t98.5 -47l12 52h286zM1100.5 284q29.5 8 57.5 23t53.5 37t47.5 50l38 162q-7 29 -22 53t-36 41t-47.5 26.5t-56.5 9.5q-48 0 -94 -20.5t-82 -55t-58 -80t-22 -96.5q0 -36 12 -65t33.5 -50t51.5 -32t66 -11 q29 0 58.5 8z" />
<glyph unicode="A" horiz-adv-x="1479" d="M907 274h84l-16 209h-418l-111 -209h127l-63 -274h-612l63 274h128l689 1242h436l114 -1242h192l-64 -274h-612zM711 772h243l-30 402z" />
<glyph unicode="B" horiz-adv-x="1516" d="M125 274h153l224 967h-172l63 275h766q96 0 170 -29t124.5 -80.5t76.5 -121.5t26 -152q0 -85 -28 -164.5t-93 -142.5q-48 -45 -118 -79q8 -6 14 -12q51 -47 77 -108t26 -131q0 -124 -40.5 -217t-115.5 -155t-181 -93t-237 -31h-799zM710 627l-82 -353h249q52 0 92.5 15.5 t68 44t42 68t14.5 87.5q0 29 -9 54.5t-26 44t-43 29t-60 10.5h-246zM853 1241l-79 -340h232q45 0 84 13.5t67.5 39t45 61t16.5 79.5q0 30 -9.5 56.5t-27.5 47t-45.5 32t-63.5 11.5h-220z" />
<glyph unicode="C" horiz-adv-x="1493" d="M1133.5 1165.5q-65.5 42.5 -162.5 42.5q-68 0 -132 -21.5t-120.5 -60t-103 -91.5t-80 -116t-52 -133.5t-18.5 -144.5q0 -75 21 -136.5t60.5 -106t95 -69t124.5 -24.5q55 0 103 15t89.5 41.5t75.5 62t62 76.5l317 -158q-114 -180 -286.5 -276.5t-399.5 -96.5 q-136 0 -250.5 46.5t-198 130.5t-130 201.5t-46.5 260.5q0 142 36 266.5t99.5 228.5t150 186t188 138.5t213 86.5t225.5 30q91 0 168 -19t141 -54t102.5 -73.5t61.5 -68.5h190l-63 -274h-389q-26 68 -91.5 110.5z" />
<glyph unicode="D" horiz-adv-x="1585" d="M412 1516h608q137 0 252 -42t198.5 -121.5t130 -195.5t46.5 -264q0 -125 -29 -239.5t-85 -213.5t-138 -180t-188 -139t-235.5 -89.5t-279.5 -31.5h-631l64 274h155l224 967h-156zM855 1241l-225 -967h107q73 0 141.5 21.5t129 60t111 92.5t87 119.5t56.5 140.5t20 156 q0 105 -26.5 177t-71 116.5t-102.5 64t-121 19.5h-106z" />
<glyph unicode="E" horiz-adv-x="1505" d="M393 1516h1297l-119 -517h-350l55 242h-421l-76 -326h337l-67 -290h-337l-82 -351h396l61 269h351l-125 -543h-1252l64 274h155l224 967h-174z" />
<glyph unicode="F" horiz-adv-x="1450" d="M348 1516h1305l-119 -517h-348l55 242h-390l-81 -348h363l-68 -291h-363l-76 -328h175l-64 -274h-676l64 274h151l224 967h-215z" />
<glyph unicode="G" horiz-adv-x="1610" d="M1133 0l53 228q-40 -64 -103.5 -124.5t-156 -97.5t-189.5 -37q-131 0 -243 46.5t-194.5 130.5t-129.5 201.5t-47 260.5q0 142 36 266.5t99.5 228.5t150 186t187.5 138.5t212.5 86.5t225.5 30q78 0 152 -16.5t138.5 -46t115 -69t84.5 -83.5h178l-64 -274h-389 q-13 31 -36.5 60t-56.5 51t-74.5 35t-90.5 13q-102 0 -194 -48t-161 -128t-110 -183t-41 -214q0 -75 20.5 -138t59 -109.5t94 -72.5t125.5 -26q65 0 127.5 19.5t115 54t89 78t55.5 88.5h-319l63 274h705l-188 -809h-299z" />
<glyph unicode="H" horiz-adv-x="1946" d="M1413 1516h676l-64 -275h-155l-224 -967h175l-64 -274h-676l64 274h151l90 388h-666l-90 -388h171l-64 -274h-676l64 274h155l224 967h-172l63 275h676l-63 -275h-153l-72 -309h665l72 309h-170z" />
<glyph unicode="I" horiz-adv-x="926" d="M393 1516h676l-63 -275h-151l-225 -967h171l-64 -274h-676l64 274h155l224 967h-174z" />
<glyph unicode="J" horiz-adv-x="782" d="M352 1516h676l-63 -275h-149l-247 -1069q-42 -81 -75 -124.5t-121 -128.5q-77 -79 -174 -165l-281 23q84 90 132 144.5t97.5 123.5t81.5 160l239 1036h-179z" />
<glyph unicode="K" horiz-adv-x="1745" d="M1370 1243l64 273h618l-63 -275h-134l-642 -477l350 -490h147l-61 -274h-564l64 274l-377 519zM393 1516h676l-63 -275h-151l-225 -967h171l-64 -274h-676l64 274h155l224 967h-174z" />
<glyph unicode="L" horiz-adv-x="1317" d="M393 1516h676l-63 -275h-153l-225 -967h287q36 0 61.5 23.5t35.5 58.5l49 201h338l-127 -557h-1211l64 274h153l224 967h-172z" />
<glyph unicode="M" horiz-adv-x="2406" d="M115 274h136l224 967h-174l64 275h688l181 -1016l619 1016h707l-63 -275h-154l-225 -967h149l-63 -274h-613l64 274h115l189 814l-677 -1070h-301l-199 1082l-199 -826h144l-63 -274h-613z" />
<glyph unicode="N" horiz-adv-x="1786" d="M1358 1516h612l-63 -275h-130l-286 -1241h-344l-386 935l-153 -661h129l-63 -274h-613l64 274h135l223 967h-164l64 275h516l374 -936l154 661h-133z" />
<glyph unicode="O" horiz-adv-x="1597" d="M748 -31q-136 0 -250.5 46.5t-198 130.5t-130 201.5t-46.5 260.5q0 142 36 266.5t99.5 228.5t150 186t187.5 138.5t212.5 86.5t225.5 30q142 0 257.5 -47t197 -131.5t126 -202.5t44.5 -260q0 -139 -33.5 -262t-94.5 -227t-145 -186.5t-185.5 -140t-216 -88t-236.5 -30.5z M786 305q67 0 131 21.5t120 59.5t103 91t80.5 116t52.5 134t19 145q0 75 -20.5 136.5t-59.5 106t-95 69t-126 24.5q-102 0 -194 -47t-161 -126t-110 -181t-41 -213q0 -75 21 -136.5t60.5 -106t95 -69t124.5 -24.5z" />
<glyph unicode="P" horiz-adv-x="1354" d="M393 1516h705q104 0 186 -31.5t138.5 -86.5t86 -129.5t29.5 -160.5q0 -110 -35.5 -209t-114 -173.5t-204.5 -118.5t-307 -44h-180l-67 -289h171l-64 -274h-676l64 274h155l224 967h-174zM855 1241l-95 -407h106q68 0 123.5 14.5t95 44.5t61 75t21.5 107q0 76 -51.5 121 t-154.5 45h-106z" />
<glyph unicode="Q" horiz-adv-x="1556" d="M619 -23q-75 11 -143 38q-114 47 -197.5 131t-130 201.5t-46.5 260.5q0 142 36 266.5t99.5 228.5t150 186t188 138.5t213 86.5t225.5 30q142 0 257.5 -47t197 -131.5t125.5 -202.5t44 -260q0 -139 -33.5 -262t-94.5 -227t-145 -186.5t-185.5 -140t-216.5 -87.5 q-41 -11 -82 -18l69 -27q100 -60 162 -61q58 0 103 19t69 52t39 72l199 -111q-26 -73 -72.5 -132t-107.5 -101t-131.5 -65t-143.5 -23q-38 0 -73 10.5t-69 26.5t-67 34.5t-67 34.5t-70 26.5t-74 10.5q-25 0 -43 -2t-43 -10zM766 305q67 0 130.5 21.5t120 59.5t103 91 t80.5 116t53 134t19 145q0 75 -21 136.5t-60 106t-94.5 69t-125.5 24.5q-68 0 -132 -21.5t-120.5 -60t-103 -91.5t-80 -116t-52 -133.5t-18.5 -144.5q0 -75 21 -136.5t60.5 -106t95 -69t124.5 -24.5z" />
<glyph unicode="R" horiz-adv-x="1483" d="M373 1516h807q100 0 173 -34t120 -88.5t69.5 -124t22.5 -141.5q0 -98 -28 -175t-87 -137t-116 -88t-81 -39q10 -9 27 -29.5t31 -64t16 -103.5l6 -218h144l-64 -274h-450l24 360q4 64 -4.5 110.5t-33 76t-65.5 43.5t-102 14h-96l-77 -330h128l-63 -274h-613l64 274h134 l225 967h-175zM834 1241l-86 -367h190q62 0 112.5 12.5t86.5 38.5t55.5 66t19.5 94q0 71 -41.5 113.5t-138.5 42.5h-198z" />
<glyph unicode="S" horiz-adv-x="1268" d="M80 532h364q-27 -101 -19 -143t33.5 -70t69 -43.5t105.5 -15.5q56 0 100.5 15t76 41.5t48 63t16.5 79.5q0 33 -14 57t-37.5 41.5t-54.5 30.5t-66 24l-172 60q-60 20 -109.5 55.5t-85 83.5t-55.5 108.5t-20 129.5q0 123 46 215.5t128.5 154t197 92.5t251.5 31 q99 0 180 -23t139.5 -61.5t89 -86t37.5 -95.5h115l-60 -256h-362q21 93 12 129t-35 62t-65.5 39.5t-87.5 13.5q-49 0 -93 -9.5t-77 -30t-52.5 -52.5t-19.5 -76q0 -39 16.5 -63.5t53 -43t108.5 -45.5l207 -76q128 -46 187 -139t59 -227q0 -124 -48.5 -221.5t-134.5 -165.5 t-205.5 -104t-260.5 -36q-105 0 -191.5 26t-146.5 73.5t-85 101.5t-31 100h-112z" />
<glyph unicode="T" horiz-adv-x="1368" d="M342 274h157l225 967h-194l-43 -186h-344l107 461h1425l-106 -461h-344l43 186h-194l-225 -967h169l-64 -274h-675z" />
<glyph unicode="U" horiz-adv-x="1534" d="M281 1516h612l-64 -275h-116l-146 -629q-21 -100 -12 -155.5t39 -95.5t74 -58t104 -18q58 0 104.5 16.5t83.5 55t65.5 101t49.5 154.5l145 629h-137l64 275h612l-63 -275h-130l-155 -674q-36 -158 -97 -271.5t-147 -186t-197.5 -106.5t-248.5 -34q-113 0 -207.5 33.5 t-163 94t-104 146t-41 181.5t19.5 209l142 608h-150z" />
<glyph unicode="V" horiz-adv-x="1399" d="M1114 1516h612l-63 -275h-120l-709 -1241h-408l-107 1241h-155l63 275h613l-64 -275h-113l62 -784l443 784h-117z" />
<glyph unicode="W" horiz-adv-x="2200" d="M1915 1516h612l-63 -275h-119l-649 -1241h-410l-8 975l-477 -975h-410l-69 1241h-164l63 275h613l-64 -275h-125l39 -829l530 1104h361l16 -1100l417 825h-157z" />
<glyph unicode="X" horiz-adv-x="1618" d="M1208 1516h676l-63 -275h-125l-558 -491l312 -476h170l-64 -274h-675l63 274h118l-170 260l-295 -260h101l-63 -274h-676l64 274h121l584 512l-297 455h-173l64 275h675l-63 -275h-117l156 -239l272 239h-100z" />
<glyph unicode="Y" horiz-adv-x="1393" d="M248 1516h612l-63 -275h-105l133 -328l25 26l262 302h-88l63 275h613l-64 -275h-101l-594 -626l-79 -341h170l-63 -274h-676l63 274h160l82 361l-280 606h-134z" />
<glyph unicode="Z" horiz-adv-x="1320" d="M1455 1202l-974 -928h430l59 258h348l-123 -532h-1175l71 313l956 928h-405l-59 -262h-344l125 537h1163z" />
<glyph unicode="[" horiz-adv-x="772" d="M451 1835h567l-57 -246h-224l-377 -1630h224l-58 -248h-567z" />
<glyph unicode="\" horiz-adv-x="829" d="M164 1589h235l185 -1677h-242z" />
<glyph unicode="]" horiz-adv-x="711" d="M412 1589h-224l58 246h567l-491 -2124h-568l58 248h223z" />
<glyph unicode="^" horiz-adv-x="1073" d="M932 1516l219 -791h-248l-138 524l-394 -524h-269l600 791h230z" />
<glyph unicode="_" horiz-adv-x="1083" d="M-23 -90h1024l-59 -256h-1024z" />
<glyph unicode="`" horiz-adv-x="774" d="M461 1178l-293 286v25h326l196 -311h-229z" />
<glyph unicode="a" horiz-adv-x="1391" d="M786 79q-37 -39 -98 -66q-65 -29 -153 -29q-81 0 -159 29t-138.5 86.5t-98 142.5t-37.5 196q0 96 25 179.5t69 153t104.5 123.5t132 91t151 56.5t161.5 19.5q46 0 78.5 -6t74.5 -18t98 -52l12 51h340l-177 -762h191l-64 -274h-530zM823 372l44 55l50 216q-12 23 -31 44.5 t-47.5 37.5t-62 24.5t-67.5 8.5q-54 0 -103 -21.5t-85.5 -58t-58.5 -86.5t-22 -107q0 -48 15 -84t41 -60t60 -36t73 -12q33 0 67.5 8.5t66.5 26t60 44.5z" />
<glyph unicode="b" horiz-adv-x="1327" d="M264 1556h537l-136 -589q37 38 97 65q65 29 153 29q85 0 163 -29.5t138 -87t96 -142.5t36 -196q0 -137 -50.5 -251.5t-137.5 -197t-204.5 -128t-250.5 -45.5q-37 0 -74 6t-71 16.5t-62 24.5q-25 12 -43 26l-13 -57h-340l296 1282h-197zM627 672q-24 -23 -43 -53l-50 -219 q11 -23 27 -41q22 -23 50.5 -39t61.5 -24.5t68 -8.5q54 0 103 21.5t85.5 58t58.5 86t22 106.5q0 48 -15 84t-41 60t-60 36.5t-73 12.5q-33 0 -67.5 -8.5t-66.5 -26.5t-60 -45z" />
<glyph unicode="c" horiz-adv-x="1171" d="M852 668q-16 42 -59 68t-93 26q-56 0 -105.5 -22.5t-86.5 -62t-58.5 -92t-21.5 -112.5q0 -45 14.5 -80.5t38.5 -61t56 -39t67 -13.5q83 0 138.5 38.5t91.5 100.5l272 -148q-32 -62 -84 -116t-121 -94t-152.5 -62.5t-177.5 -22.5q-101 0 -186.5 36.5t-148.5 99 t-98.5 146.5t-35.5 179q0 143 51.5 259.5t138.5 199t201.5 127.5t241.5 45q80 0 148 -23t123 -63q25 -18 47 -39h192l-63 -274h-330v0z" />
<glyph unicode="d" horiz-adv-x="1405" d="M920 1556h546l-295 -1282h191l-64 -274h-530l18 78q-16 -18 -38 -34q-25 -18 -58 -32t-72 -22t-83 -8q-102 0 -182.5 37t-136 99.5t-85 145t-29.5 174.5q0 96 25 179.5t69 153t104.5 123.5t132 91t151 56.5t161.5 19.5q35 0 72 -5.5t71.5 -15.5t63.5 -24q26 -12 43 -27 l68 293h-207zM765 343q61 33 102 89l52 226q-9 18 -23 34q-22 24 -51 40t-62.5 24t-67.5 8q-54 0 -101.5 -20.5t-83.5 -56.5t-56.5 -85t-20.5 -106q0 -43 13.5 -78t36.5 -59.5t55 -38t69 -13.5q72 0 138 36z" />
<glyph unicode="e" horiz-adv-x="1178" d="M428 440q2 -24 8 -46q10 -38 33.5 -66.5t61.5 -45t92 -16.5q40 0 73.5 8t63.5 22.5t57.5 34.5t54.5 44l220 -193q-101 -108 -233 -158.5t-284 -50.5q-98 0 -184 32t-150 91.5t-101.5 144.5t-37.5 191q0 143 51.5 260t138.5 200.5t201.5 129t241.5 45.5q101 0 186 -35.5 t146.5 -95t96 -137.5t34.5 -162q0 -20 -2 -45t-6 -51.5t-10 -52.5t-13 -48h-739zM471 680q-4 -7 -7 -14h433q-2 27 -17.5 52.5t-41 45.5t-60 32.5t-76.5 12.5q-50 0 -95.5 -15t-80 -43.5t-55.5 -70.5z" />
<glyph unicode="f" horiz-adv-x="801" d="M182 1036h202l40 170q22 97 67 167.5t106.5 116.5t137.5 67.5t160 21.5q58 0 105 -9.5t81.5 -23.5t57 -30.5t30.5 -30.5l-184 -232q-17 17 -37.5 26t-58.5 9q-45 0 -84 -30t-53 -89l-31 -133h221l-68 -293h-222l-283 -1214h-338l284 1214h-200z" />
<glyph unicode="g" horiz-adv-x="1303" d="M777 79q-37 -32 -101 -55q-67 -24 -150 -24q-79 0 -156.5 28t-138.5 83t-99 137t-38 190q0 134 49.5 248t136 197.5t204 130.5t253.5 47q39 0 77.5 -6.5t72.5 -17t100 -48.5l17 72h339l-235 -1018q-35 -153 -97.5 -252.5t-147 -157.5t-189.5 -81t-225 -23 q-159 0 -275.5 36.5t-193.5 96.5l176 264q60 -43 138 -71.5t169 -28.5q51 0 99 9t89 34t72 68.5t47 111.5zM817 378q22 21 40 49l54 232q-35 54 -68 71.5t-66 25.5t-70 8q-54 0 -103 -21.5t-85.5 -58t-58.5 -86t-22 -106.5q0 -48 15 -84t41 -60t60 -36.5t73 -12.5 q33 0 66.5 8.5t65 26t58.5 44.5z" />
<glyph unicode="h" horiz-adv-x="1370" d="M893 557q8 38 4.5 69.5t-16 54t-34 34.5t-48.5 12q-51 0 -126 -39q-40 -21 -83 -53l-146 -635h-350l296 1282h-187l63 274h537l-140 -604l1 1q45 35 93 60.5t99 39.5t105 14q87 0 152.5 -29.5t104 -85t48.5 -134.5t-13 -179l-84 -365h191l-64 -274h-532z" />
<glyph unicode="i" horiz-adv-x="778" d="M207 1036h532l-176 -762h191l-64 -274h-532l176 762h-191zM434 1370q0 37 13.5 69.5t37.5 56.5t56.5 38t70.5 14q36 0 68 -14t56 -38t38 -56.5t14 -69.5t-14 -69.5t-38 -56.5t-56 -38t-68 -14q-38 0 -70.5 14t-56.5 38t-37.5 56.5t-13.5 69.5z" />
<glyph unicode="j" horiz-adv-x="707" d="M176 1036h569l-239 -1038q-29 -126 -80 -214.5t-123.5 -145t-166.5 -82t-208 -25.5l39 264q33 0 64 11t57 33t45.5 54t28.5 74l184 795h-233zM414 1370q0 37 13.5 69.5t37.5 56.5t56.5 38t70.5 14q36 0 68 -14t56 -38t38 -56.5t14 -69.5t-14 -69.5t-38 -56.5t-56 -38 t-68 -14q-38 0 -70.5 14t-56.5 38t-37.5 56.5t-13.5 69.5z" />
<glyph unicode="k" horiz-adv-x="1311" d="M262 1556h539l-202 -874h114l159 169l43 185h457l-63 -274h-140l-235 -223l135 -265h156l-64 -274h-301l-196 406h-129l-93 -406h-340l296 1282h-199z" />
<glyph unicode="l" horiz-adv-x="729" d="M262 1556h539l-296 -1282h189l-63 -274h-529l296 1282h-199z" />
<glyph unicode="m" horiz-adv-x="2083" d="M207 1036h518l-19 -93q56 43 104 67t99 37.5t105 13.5q132 0 213 -66q53 -43 77 -108q78 76 167 123q96 51 204 51q87 0 152.5 -29t104.5 -83t49 -132.5t-13 -177.5l-84 -365h189l-64 -274h-530l129 557q8 38 4.5 69.5t-16 54t-34 34.5t-49.5 12q-51 0 -126 -39 q-38 -20 -81 -52l-147 -636h-350l129 557q9 38 5.5 69.5t-16 54t-34 34.5t-49.5 12q-51 0 -126 -39q-39 -20 -82 -52l-147 -636h-350l176 762h-172z" />
<glyph unicode="n" horiz-adv-x="1421" d="M207 1036h526l-15 -74l-1 -10q45 34 93 58t99 37.5t105 13.5q87 0 152 -29t104 -83t49.5 -132.5t-12.5 -177.5l-85 -365h189l-63 -274h-531l129 557q9 38 5.5 69.5t-16 54t-34 34.5t-49.5 12q-51 0 -126 -39q-39 -20 -81 -52l-147 -636h-351l176 762h-180z" />
<glyph unicode="o" d="M102 436q0 143 51.5 259.5t138.5 199t201.5 127.5t241.5 45q98 0 183.5 -36t148.5 -98.5t99 -147t36 -181.5q0 -137 -48.5 -252t-133 -199t-200 -131t-249.5 -47q-101 0 -186.5 36.5t-148.5 99t-98.5 146.5t-35.5 179zM428 473q0 -44 13 -80.5t36.5 -63t56 -41 t70.5 -14.5q52 0 101 22.5t87.5 62t61.5 93t23 115.5q0 51 -14.5 88.5t-38.5 62.5t-56 37.5t-68 12.5q-57 0 -106.5 -23.5t-86 -63.5t-58 -93.5t-21.5 -114.5z" />
<glyph unicode="p" horiz-adv-x="1366" d="M203 1036h520l-11 -73q37 40 99 68q66 30 154 30q84 0 162 -29.5t138 -87t96 -142.5t36 -196q0 -96 -25 -179.5t-69 -152.5t-104.5 -123t-132 -91t-151 -56.5t-161.5 -19.5q-37 0 -74 6t-71 16.5t-62 24.5q-26 12 -44 26l-59 -254h201l-63 -274h-541l286 1233h-188z M676 672q-23 -22 -42 -51l-51 -220q10 -23 26 -41q22 -24 51 -40t63 -24.5t68 -8.5q54 0 102.5 21.5t85 58t58.5 86t22 106.5q0 48 -15 84t-41 60t-60 36.5t-73 12.5q-33 0 -67.5 -8.5t-66.5 -26.5t-60 -45z" />
<glyph unicode="q" horiz-adv-x="1317" d="M793 80q-36 -40 -99 -67q-65 -29 -153 -29q-81 0 -158.5 29t-138 86.5t-98 142.5t-37.5 196q0 96 24.5 179.5t68.5 153t104.5 123.5t132 91t151 56.5t162.5 19.5q34 0 71 -6t71 -16.5t63 -24.5q27 -13 46 -29l15 51h336l-285 -1233h182l-63 -274h-522zM829 372 q24 23 43 53l51 218q-12 23 -29 42q-21 24 -49.5 40t-62 24.5t-67.5 8.5q-54 0 -103 -21.5t-85.5 -58t-58.5 -86.5t-22 -107q0 -48 15 -84t41 -60t60 -36t73 -12q33 0 67.5 8.5t66.5 26t60 44.5z" />
<glyph unicode="r" horiz-adv-x="1145" d="M1153 633h-326l25 104q-34 0 -62.5 -7t-55 -21t-51.5 -35q-17 -14 -34 -31l-86 -369h217l-63 -274h-559l176 762h-191l64 274h530l-20 -90q41 37 98 62q63 28 148 28h284z" />
<glyph unicode="s" horiz-adv-x="1018" d="M722 792q-41 21 -106 21q-27 0 -51.5 -4.5t-42.5 -14t-28.5 -24t-10.5 -33.5q0 -15 12.5 -31t47.5 -24l164 -35q77 -17 131 -48t88 -71t49.5 -85.5t15.5 -90.5q0 -103 -42 -175.5t-110.5 -118.5t-154.5 -67.5t-174 -21.5q-147 0 -234 40q-48 23 -80 57h-165l63 274h299 q-7 -43 -1.5 -62.5t22.5 -35t43 -23.5t59 -8q69 0 109.5 25t40.5 67q0 25 -18 43t-66 31l-131 33q-71 18 -124.5 50.5t-89.5 74.5t-54.5 91.5t-18.5 100.5q0 84 37.5 148t101.5 106.5t147 64t175 21.5q66 0 121.5 -11.5t98.5 -31.5q25 -11 45 -23h210l-64 -274h-270 q-5 46 -44 65z" />
<glyph unicode="t" horiz-adv-x="890" d="M145 1036h193l59 248l383 164l-98 -412h190l-63 -274h-192l-87 -371q-15 -56 -13 -89t21.5 -47.5t45.5 -14.5q21 0 45.5 4t52.5 12l4 -229q-32 -12 -63 -22t-65.5 -16.5t-73 -10t-83.5 -3.5q-72 0 -126.5 16.5t-86 55.5t-38 104.5t17.5 163.5l105 447h-191z" />
<glyph unicode="u" horiz-adv-x="1356" d="M846 1036h477l-177 -762h191l-63 -274h-500l19 81q-31 -25 -65 -44q-43 -24 -94 -36.5t-112 -12.5q-102 0 -183.5 39t-114.5 101.5t-40.5 135.5t17.5 162l77 336h-167l63 274h488l-136 -585q-10 -43 -4 -77.5t25 -59t49.5 -37.5t69.5 -13q32 0 64 11t60.5 30.5t55.5 49.5 l94 407h-158z" />
<glyph unicode="v" horiz-adv-x="1133" d="M104 1036h512l-63 -274h-81l69 -421l258 421h-88l63 274h512l-63 -274h-96l-492 -762h-338l-141 762h-115z" />
<glyph unicode="w" horiz-adv-x="1780" d="M94 1036h512l-63 -274h-67l24 -316l340 590h334l61 -630l205 356h-92l63 274h512l-63 -274h-96l-459 -762h-336l-66 614h-4l-360 -614h-324l-82 762h-102z" />
<glyph unicode="x" horiz-adv-x="1237" d="M678 274h73l-97 118l-157 -118h74l-63 -274h-498l64 274h75l328 264l-175 224h-122l64 274h512l-64 -274h-80l89 -104l136 104h-63l64 274h512l-64 -274h-101l-305 -246l189 -242h107l-64 -274h-498z" />
<glyph unicode="y" horiz-adv-x="1126" d="M106 1036h512l-63 -274h-77l66 -393l246 393h-85l63 274h512l-63 -274h-81l-634 -959h125l-74 -274h-573l73 274h136l126 200l-167 759h-105z" />
<glyph unicode="z" horiz-adv-x="1150" d="M62 164l574 606h-206l-36 -156h-260l96 422h907l-41 -180l-578 -588h222l43 183h260l-103 -451h-915z" />
<glyph unicode="{" horiz-adv-x="817" d="M1117 1784l-75 -328q-23 -1 -42 -3t-35 -6q-23 -6 -39.5 -16t-28.5 -28t-20.5 -45t-17.5 -66l-86 -370q-9 -41 -22 -73t-43.5 -67t-90.5 -60q26 -16 48 -44t23 -77t-12 -99l-87 -379q-10 -45 -11.5 -74t10 -46t38.5 -24.5t74 -9.5l-72 -307q-103 -8 -197 -8 q-25 0 -47.5 2t-52.5 8t-59.5 22.5t-48 43.5t-26.5 65.5t-6 70.5t6.5 60.5t7.5 44t7 31.5l74 322q20 86 26 139.5t1 85.5t-21 46t-41 19t-133 15l45 190q100 9 146 22.5t70.5 37.5t41.5 64.5t32 104.5l91 396q8 32 16 61.5t26 74.5t52 89t77 71.5t95.5 39.5t114.5 12 q94 0 143 -4z" />
<glyph unicode="|" horiz-adv-x="631" d="M522 1729h273l-461 -1999h-273z" />
<glyph unicode="}" horiz-adv-x="938" d="M-27 -10q23 1 42 3t38.5 7t36 15t28.5 28t20.5 45t17.5 66l86 370q28 90 72.5 137.5t83.5 62.5q-65 55 -69.5 105.5t3.5 84.5t94 409q10 45 11.5 74t-10 46t-38.5 24.5t-74 9.5l72 307l51.5 4t145.5 4q70 -4 100 -10t59.5 -22.5t48 -43.5t26.5 -65.5t4.5 -84.5 t-19.5 -122l-74 -322q-20 -86 -26 -139.5t-1 -85.5t21 -46t41 -19t133 -15l-45 -190q-100 -9 -150.5 -23t-70.5 -37.5t-37 -64t-32 -104.5l-90 -418q-7 -30 -32 -100t-59 -111t-77.5 -67t-97 -37t-116.5 -11q-94 0 -192 8z" />
<glyph unicode="~" horiz-adv-x="905" d="M-8 512q0 30 5 66t16.5 72.5t31.5 70.5t50 60.5t72 42.5t97 16q24 0 55.5 -11t66.5 -27t72 -35t71.5 -35t64 -26t51.5 -10q47 0 69.5 27.5t30.5 87.5l185 -41q0 -45 -12.5 -100.5t-45.5 -104.5t-90 -84t-147 -35q-55 0 -108 23.5t-101.5 50t-90.5 48.5t-75 22 q-19 0 -36 -5.5t-30 -19t-21 -35.5t-9 -55z" />
<glyph unicode="&#xa1;" horiz-adv-x="948" d="M559 -543h-375l287 1061h293zM846 889q0 -37 -14 -69.5t-38 -56.5t-56.5 -38t-70.5 -14q-36 0 -68 14t-56 38t-38 56.5t-14 69.5t14 69.5t38 56.5t56 38t68 14q38 0 70.5 -14t56.5 -38t38 -56.5t14 -69.5v0z" />
<glyph unicode="&#xa2;" horiz-adv-x="1171" d="M295 -242l61 266q-58 28 -105 71t-80 96t-51 115t-18 130q0 122 38 225t104 182.5t155.5 132.5t192.5 76l65 277h332l-70 -299q75 -33 134 -88h192l-63 -274h-330q-16 42 -59 68t-93 26q-56 0 -105.5 -22.5t-86.5 -62t-58.5 -92t-21.5 -112.5q0 -45 14.5 -80.5t38.5 -61 t56 -39t67 -13.5q83 0 138.5 38.5t91.5 100.5l272 -148q-27 -53 -69 -100.5t-97 -85t-120.5 -63.5t-140.5 -37l-52 -226h-332z" />
<glyph unicode="&#xa3;" horiz-adv-x="1180" d="M209 829h99l-1 45q0 145 43 254.5t115.5 183t167 110t198.5 36.5q107 0 188.5 -27.5t134 -82.5t74 -137.5t7.5 -192.5l-326 -12q8 40 3.5 69.5t-17.5 49.5t-33.5 30t-44.5 10q-29 0 -56.5 -11t-48.5 -35t-33.5 -63t-12.5 -95q3 -95 7 -132h267l-57 -245h-171 q-1 -76 -29 -158t-79 -152h420l-63 -274h-900l64 274h161q26 54 43 118t14.5 99.5t-8.5 92.5h-183z" />
<glyph unicode="&#xa4;" horiz-adv-x="1497" d="M270 662q0 101 34 192t94 167l-142 208l303 229l149 -217q52 19 106.5 29t111.5 10t108.5 -13.5t97.5 -37.5l254 223l213 -248l-253 -221q14 -38 22 -79t8 -83q0 -102 -35 -193.5t-96 -168.5l133 -191l-303 -227l-140 199q-52 -18 -106 -27.5t-110 -9.5q-58 0 -111 13.5 t-100 39.5l-234 -203l-213 246l236 206q-14 37 -20.5 76t-6.5 81zM563 694q0 -43 14.5 -80t40.5 -64t63.5 -42.5t82.5 -15.5q60 0 117 24t101.5 65t71.5 95t27 115q0 43 -14.5 80.5t-41 65t-63.5 43t-81 15.5q-61 0 -118 -24.5t-101.5 -65.5t-71.5 -95.5t-27 -115.5z" />
<glyph unicode="&#xa5;" horiz-adv-x="1511" d="M264 1516h613l-64 -275h-113l139 -317l282 317h-81l64 275h612l-63 -275h-111l-323 -317h145l-57 -248h-348l-16 -72h347l-57 -248h-347l-19 -82h182l-64 -274h-676l64 274h155l19 82h-363l58 248h362l15 72h-361l57 248h173l-161 317h-126z" />
<glyph unicode="&#xa6;" horiz-adv-x="647" d="M423 1729h273l-175 -750h-272zM135 481h272l-172 -749h-272z" />
<glyph unicode="&#xa7;" horiz-adv-x="1223" d="M2 72h369l-18 -77v0l-3 -19t3.5 -49t26 -51t53 -32.5t81.5 -11.5q44 0 78 11.5t57.5 31t36 46t12.5 56.5q0 25 -11.5 41.5t-30 28.5t-41 20.5t-44.5 16.5l-196 68q-51 18 -92.5 50.5t-70.5 78t-44.5 103.5t-15.5 126q0 123 51.5 210.5t139.5 143.5q-30 45 -47 102.5 t-17 129.5q0 110 44.5 194.5t121.5 141.5t181.5 86.5t223.5 29.5q97 0 174.5 -22t132.5 -57.5t86.5 -81t37.5 -91.5h108l-64 -274h-371l18 78q4 37 -4.5 67t-28.5 51t-50 32.5t-68 11.5q-35 0 -67.5 -7.5t-57 -23.5t-39 -41t-14.5 -60q0 -30 14.5 -48.5t37 -30t50.5 -19.5 t54 -18l143 -52q67 -25 116 -51t80.5 -63.5t46.5 -91t15 -133.5q0 -53 -13 -103.5t-37 -97t-58.5 -87.5t-77.5 -76q29 -42 45 -99.5t16 -124.5q0 -111 -45 -203.5t-124.5 -159.5t-188.5 -104t-236 -37q-83 0 -156.5 18t-130.5 52.5t-94.5 83.5t-49.5 112h-111zM518 547 q0 -24 9.5 -40.5t24.5 -27.5t34.5 -19t40.5 -15l71 -26q30 6 53.5 19.5t39 32.5t24 41.5t8.5 48.5q0 28 -14 46.5t-44 34.5l-92 36q-29 -1 -57 -8.5t-50 -22.5t-35 -39.5t-13 -60.5z" />
<glyph unicode="&#xa8;" horiz-adv-x="940" d="M47 1343q0 37 13.5 69.5t37.5 57t56.5 38.5t70.5 14q36 0 68 -14t56 -38.5t38 -57t14 -69.5t-14 -69.5t-38 -56.5t-56 -38t-68 -14q-38 0 -70.5 14t-56.5 38t-37.5 56.5t-13.5 69.5zM526 1343q0 37 14 69.5t38 57t56.5 38.5t70.5 14q36 0 68 -14t56 -38.5t38 -57 t14 -69.5t-14 -69.5t-38 -56.5t-56 -38t-68 -14q-38 0 -70.5 14t-56.5 38t-38 56.5t-14 69.5z" />
<glyph unicode="&#xa9;" horiz-adv-x="1919" d="M102 831q0 118 30.5 227.5t86 204.5t133.5 173t173 133.5t204.5 86t228.5 30.5q118 0 228 -30.5t205.5 -86t174 -133.5t134.5 -173t86.5 -204.5t30.5 -227.5q0 -119 -30.5 -228.5t-86.5 -204.5t-134.5 -173t-174 -133.5t-205.5 -86t-228 -30.5q-119 0 -228.5 30.5 t-204.5 86t-173 133.5t-133.5 173t-86 204.5t-30.5 228.5zM330 831q0 -88 22 -169t62.5 -151t97.5 -127.5t127 -98t150.5 -62.5t168.5 -22t169 22t150.5 62.5t126.5 98t97.5 127.5t62.5 151t22 169t-22 169t-62.5 150.5t-97.5 127t-126.5 98t-150.5 62.5t-169 22 q-87 0 -168 -22t-151 -62.5t-127 -98t-97.5 -127t-62.5 -150.5t-22 -169zM1148 973q-32 42 -78.5 64.5t-100.5 22.5q-49 0 -90 -17.5t-71.5 -49t-48.5 -73.5t-18 -89t18 -89t48.5 -73t71.5 -48.5t90 -17.5q53 0 99 20.5t81 62.5l190 -191q-70 -74 -164.5 -117.5 t-205.5 -43.5q-103 0 -193.5 39t-158 106.5t-106.5 157.5t-39 194t39 194.5t106.5 157.5t158 106t193.5 39q112 0 207.5 -43t164.5 -117z" />
<glyph unicode="&#xaa;" horiz-adv-x="1032" d="M644 891q-40 -29 -88.5 -47.5t-111.5 -18.5q-57 0 -101 18t-75 47.5t-47 68t-16 79.5q0 57 25.5 102.5t71.5 77.5t109.5 49t139.5 17q51 0 95.5 -4.5t81.5 -11.5q0 1 0.5 2t0.5 2q10 49 -27 74.5t-106 25.5q-63 0 -117.5 -11.5t-111.5 -37.5l-39 137q86 53 173.5 80 t180.5 27q49 0 94.5 -8.5t82.5 -26.5t64 -46.5t40 -67.5q5 -16 7.5 -33t2.5 -37q0 -28 -4.5 -62t-12.5 -72.5t-18 -79t-21 -81.5h95l-47 -211h-332zM679 1042l17 80h-142q-24 0 -46.5 -2.5t-39 -9t-26.5 -19.5t-10 -34q0 -20 19 -39t65 -19q47 0 88 10.5t75 32.5z" />
<glyph unicode="&#xab;" horiz-adv-x="1069" d="M796 545l167 -389h-224l-176 379l19 73l329 361h240zM356 545l166 -389h-223l-176 379l18 73l330 361h240z" />
<glyph unicode="&#xac;" horiz-adv-x="1821" d="M1780 1036l-183 -788h-286l119 514h-1188l63 274h1475z" />
<glyph unicode="&#xad;" horiz-adv-x="0" />
<glyph unicode="&#xae;" horiz-adv-x="2048" d="M528 585h95v497h-91v211h532q79 0 138 -25t98.5 -64.5t59.5 -87.5t20 -93q0 -52 -17.5 -96t-55.5 -79t-86 -54q35 -14 56 -41t33 -88l15 -80h78v-212h-328l-15 194q-5 63 -14.5 85t-29.5 34t-69 12h-66v-113h79v-212h-432v212zM881 1082v-182h66q69 0 109 19.5t40 69.5 q0 44 -38 68.5t-102 24.5h-75zM102 831q0 118 30.5 227.5t86 204.5t133.5 173t173 133.5t204.5 86t228.5 30.5q118 0 228 -30.5t205.5 -86t174 -133.5t134.5 -173t86.5 -204.5t30.5 -227.5q0 -119 -30.5 -228.5t-86.5 -204.5t-134.5 -173t-174 -133.5t-205.5 -86t-228 -30.5 q-119 0 -228.5 30.5t-204.5 86t-173 133.5t-133.5 173t-86 204.5t-30.5 228.5zM317 831q0 -90 22.5 -172.5t64 -154t99.5 -130t129.5 -100t153.5 -64t172 -22.5t172.5 22.5t153.5 64t129 100t99.5 130t64 154t22.5 172.5t-22.5 172.5t-64 153.5t-99.5 129.5t-129 100 t-153.5 64t-172.5 22.5q-89 0 -171.5 -22.5t-154 -64t-129.5 -100t-99.5 -129.5t-64 -153.5t-22.5 -172.5z" />
<glyph unicode="&#xaf;" horiz-adv-x="831" d="M750 1176h-688l43 215h688z" />
<glyph unicode="&#xb0;" horiz-adv-x="815" d="M410 1706q64 0 120 -23.5t97 -65t64.5 -98.5t23.5 -124q0 -65 -23.5 -121.5t-64.5 -99t-97 -67t-120 -24.5q-65 0 -121.5 24.5t-98 67t-65 100t-23.5 122.5q0 64 24 120t66 98t98 66.5t120 24.5zM258 1389q0 -29 12 -56t32 -47.5t46 -32.5t55 -12q34 0 62.5 11t48.5 31 t31.5 48t11.5 62t-11 63t-31 49t-47.5 31.5t-59.5 11.5t-59 -12t-47.5 -33.5t-32 -50.5t-11.5 -63z" />
<glyph unicode="&#xb1;" horiz-adv-x="1298" d="M219 957h363l63 296h297l-63 -296h364l-67 -297h-365l-71 -291h-297l71 291h-362zM64 274h1024l-63 -274h-1024z" />
<glyph unicode="&#xb2;" horiz-adv-x="860" d="M250 1034l315 201q25 16 41 31t24.5 27.5t11.5 22.5t3 17q0 14 -10.5 23.5t-32.5 9.5q-20 0 -33 -7.5t-21 -18t-12 -21t-6 -16.5h-225q15 71 49.5 123t82.5 86t106.5 50.5t122.5 16.5q43 0 85.5 -11.5t75.5 -35t53.5 -59.5t20.5 -84q0 -39 -9.5 -68.5t-26.5 -53.5 t-42.5 -44.5t-56.5 -42.5l-190 -133h249l-47 -205h-573z" />
<glyph unicode="&#xb3;" horiz-adv-x="797" d="M580 1343q0 16 -9 27.5t-30 11.5q-29 0 -52 -15.5t-32 -55.5h-219q10 57 38.5 106.5t73 86t104 57t132.5 20.5q49 0 91.5 -15.5t73.5 -42.5t48.5 -64t17.5 -79q0 -29 -7.5 -53t-19.5 -44t-26 -35.5t-27 -26.5q15 -16 24 -46t9 -61q0 -53 -29 -103.5t-78.5 -89.5 t-114.5 -63t-136 -24q-74 0 -125.5 20.5t-81.5 56.5t-38 85t5 106h219q-3 -15 -1.5 -29.5t8.5 -26t19.5 -19t31.5 -7.5t35 7.5t28 19t18.5 24.5t6.5 25q0 15 -12 28t-46 13h-102l31 133h112q18 0 29.5 8.5t18 20t9.5 24t3 20.5z" />
<glyph unicode="&#xb4;" horiz-adv-x="680" d="M256 1489h326v-25l-306 -286h-235z" />
<glyph unicode="&#xb5;" horiz-adv-x="1348" d="M0 -471l348 1507h320l-140 -601q-6 -40 1.5 -71.5t26.5 -53.5t48.5 -34t67.5 -12q24 0 48.5 6.5t47.5 18.5t44.5 28.5t39.5 37.5l158 681h319l-176 -762h162l-64 -274h-471l19 81q-27 -22 -56.5 -39.5t-63 -29.5t-71 -18t-80.5 -6q-26 0 -51.5 3t-49.5 8l-108 -470h-319z " />
<glyph unicode="&#xb6;" horiz-adv-x="1446" d="M483 533q-60 19 -110.5 52.5t-88 81t-58.5 109.5t-21 137q0 82 25 159t71 144t111 122t145 95t173 61.5t196 21.5h684l-64 -275h-141l-371 -1603h-293l371 1603h-172l-371 -1603h-293z" />
<glyph unicode="&#xb7;" horiz-adv-x="539" d="M322 831q36 0 68 -14t56 -38t38 -56.5t14 -69.5t-14 -69.5t-38 -56.5t-56 -38t-68 -14q-38 0 -70.5 14t-56.5 38t-38 56.5t-14 69.5t14 69.5t38 56.5t56.5 38t70.5 14z" />
<glyph unicode="&#xb8;" horiz-adv-x="705" d="M102 -289q52 12 90.5 32.5t66.5 50t47 69t32 90.5l264 -92q-29 -69 -72 -123.5t-98.5 -93.5t-121 -63.5t-138.5 -33.5z" />
<glyph unicode="&#xb9;" horiz-adv-x="715" d="M229 1034h131l57 250l-157 -67l53 233l269 127h112l-125 -543h121l-45 -194h-461z" />
<glyph unicode="&#xba;" horiz-adv-x="823" d="M651 1577q73 0 134.5 -27t106.5 -72t70 -103t25 -120q0 -84 -33.5 -159.5t-93 -131.5t-141 -89t-178.5 -33q-74 0 -135.5 25.5t-106 69.5t-69.5 103t-25 127q0 87 33.5 162t93.5 130t141.5 86.5t177.5 31.5zM569 1069q37 0 69 14t56 37t37.5 53t13.5 62q0 24 -8.5 45 t-24 36t-38 23.5t-49.5 8.5q-37 0 -70 -13t-57.5 -35t-39 -51.5t-14.5 -62.5q0 -25 8.5 -46.5t24 -37t39 -24.5t53.5 -9z" />
<glyph unicode="&#xbb;" horiz-adv-x="1069" d="M386 579l-157 390h224l176 -379l-19 -74l-329 -360h-240zM826 579l-156 390h223l176 -379l-18 -74l-330 -360h-240z" />
<glyph unicode="&#xbc;" horiz-adv-x="2025" d="M286 1034h131l57 250l-157 -67l53 233l269 127h112l-125 -543h121l-45 -194h-461zM1626 1577h301l-1624 -1638h-307zM1137 348l377 416h215l-381 -422h168l39 166h202l-39 -166h107l-37 -160h-106l-41 -182h-203l41 182h-377z" />
<glyph unicode="&#xbd;" horiz-adv-x="1964" d="M286 1034h131l57 250l-157 -67l53 233l269 127h112l-125 -543h121l-45 -194h-461zM1626 1577h301l-1624 -1638h-307zM1151 193l322 221q51 35 64 60.5t13 31.5q0 16 -10 23.5t-31 7.5q-34 0 -51.5 -20.5t-23.5 -43.5h-226q17 72 50.5 124t82 86t106.5 50.5t122 16.5 q45 0 87 -10.5t74.5 -34t53 -59.5t20.5 -87q0 -41 -11 -69.5t-24.5 -47t-26.5 -29t-18 -14.5l-243 -174h250l-52 -225h-573z" />
<glyph unicode="&#xbe;" horiz-adv-x="2025" d="M1667 1577h301l-1624 -1638h-307zM1178 348l377 416h215l-381 -422h168l39 166h202l-39 -166h107l-37 -160h-106l-41 -182h-203l41 182h-377zM584 1299q0 16 -9 27.5t-30 11.5q-29 0 -52 -15.5t-32 -55.5h-219q10 57 38.5 106.5t73 86t104 57t132.5 20.5q49 0 91.5 -15.5 t73.5 -42.5t48.5 -64t17.5 -79q0 -29 -7.5 -53t-19.5 -44t-26 -35.5t-27 -26.5q15 -16 24 -46t9 -61q0 -53 -29 -103.5t-78.5 -89.5t-114.5 -63t-136 -24q-74 0 -125.5 20.5t-81.5 56.5t-38 85t5 106h219q-3 -15 -1.5 -29.5t8.5 -26t19.5 -19t31.5 -7.5t35 7.5t28 19 t18.5 24.5t6.5 25q0 15 -12 28t-46 13h-102l31 133h112q18 0 29.5 8.5t18 20t9.5 24t3 20.5z" />
<glyph unicode="&#xbf;" horiz-adv-x="1044" d="M883 563q-12 -63 -28.5 -111t-37 -85.5t-47 -67t-59 -56t-71.5 -52.5t-85 -56q-50 -33 -81 -63.5t-48 -59.5t-23 -57.5t-6 -58.5q0 -25 8 -45.5t21.5 -35t32 -22.5t39.5 -8t44.5 7t44.5 25t38.5 50t27.5 82l330 -33q-23 -108 -69 -189t-113 -135.5t-153 -82t-189 -27.5 q-88 0 -164 28t-132.5 78t-89 119t-32.5 150q0 60 9.5 115t35 106.5t71 99.5t117.5 94q38 25 71.5 45t62.5 38.5t53 38t43.5 44t34 55t24.5 70.5h320zM945 889q0 -37 -14 -69.5t-38 -56.5t-56.5 -38t-70.5 -14q-36 0 -68 14t-56 38t-38 56.5t-14 69.5t14 69.5t38 56.5t56 38 t68 14q38 0 70.5 -14t56.5 -38t38 -56.5t14 -69.5v0z" />
<glyph unicode="&#xc0;" horiz-adv-x="1479" d="M907 274h84l-16 209h-418l-111 -209h127l-63 -274h-612l63 274h128l689 1242h436l114 -1242h192l-64 -274h-612zM711 772h243l-30 402zM934 1658l-293 286v25h326l196 -311h-229z" />
<glyph unicode="&#xc1;" horiz-adv-x="1479" d="M907 274h84l-16 209h-418l-111 -209h127l-63 -274h-612l63 274h128l689 1242h436l114 -1242h192l-64 -274h-612zM711 772h243l-30 402zM1034 1969h326v-25l-306 -286h-235z" />
<glyph unicode="&#xc2;" horiz-adv-x="1479" d="M907 274h84l-16 209h-418l-111 -209h127l-63 -274h-612l63 274h128l689 1242h436l114 -1242h192l-64 -274h-612zM711 772h243l-30 402zM579 1658l357 325h239l197 -325h-248l-96 157l-172 -157h-277z" />
<glyph unicode="&#xc3;" horiz-adv-x="1479" d="M907 274h84l-16 209h-418l-111 -209h127l-63 -274h-612l63 274h128l689 1242h436l114 -1242h192l-64 -274h-612zM711 772h243l-30 402zM825 1959q42 0 81 -14.5t76.5 -32t73 -32t70.5 -14.5q42 0 74.5 15t58.5 53l158 -70q-15 -45 -42.5 -84t-63.5 -68.5t-79 -46 t-90 -16.5q-52 0 -94 13.5t-79.5 30t-73.5 30.5t-76 14q-45 0 -76 -18.5t-51 -44.5l-152 70q14 54 47.5 94t74.5 67t84.5 40.5t78.5 13.5z" />
<glyph unicode="&#xc4;" horiz-adv-x="1479" d="M907 274h84l-16 209h-418l-111 -209h127l-63 -274h-612l63 274h128l689 1242h436l114 -1242h192l-64 -274h-612zM711 772h243l-30 402zM622 1821q0 37 13.5 69.5t37.5 57t56.5 38.5t70.5 14q36 0 68 -14t56 -38.5t38 -57t14 -69.5t-14 -69.5t-38 -56.5t-56 -38t-68 -14 q-38 0 -70.5 14t-56.5 38t-37.5 56.5t-13.5 69.5zM1101 1821q0 37 14 69.5t38 57t56.5 38.5t70.5 14q36 0 68 -14t56 -38.5t38 -57t14 -69.5t-14 -69.5t-38 -56.5t-56 -38t-68 -14q-38 0 -70.5 14t-56.5 38t-38 56.5t-14 69.5z" />
<glyph unicode="&#xc5;" horiz-adv-x="1479" d="M907 274h84l-16 209h-418l-111 -209h127l-63 -274h-612l63 274h128l627 1130q-34 36 -52.5 80.5t-18.5 94.5q0 59 26.5 111t72.5 91t107 61.5t130 22.5t130.5 -22.5t107.5 -61.5t73 -91t27 -111q0 -57 -24.5 -107.5t-68.5 -89.5l102 -1108h192l-64 -274h-612zM711 772 h243l-30 402zM854 1579q0 -24 10 -44.5t27 -35.5t40.5 -24t49.5 -9q27 0 50 9t40 24t26.5 35.5t9.5 44.5q0 23 -9.5 43.5t-26.5 35.5t-40 23.5t-50 8.5q-26 0 -49.5 -8.5t-40.5 -23.5t-27 -35.5t-10 -43.5z" />
<glyph unicode="&#xc6;" horiz-adv-x="2191" d="M-80 274h137l967 1242h1352l-119 -517h-350l55 242h-421l-76 -326h337l-67 -290h-337l-82 -351h396l62 269h350l-125 -543h-1096l28 121v0l84 362h-402l-163 -209h146l-64 -274h-675zM1082 772l104 448l-349 -448h245z" />
<glyph unicode="&#xc7;" horiz-adv-x="1493" d="M1133.5 1165.5q-65.5 42.5 -162.5 42.5q-68 0 -132 -21.5t-120.5 -60t-103 -91.5t-80 -116t-52 -133.5t-18.5 -144.5q0 -75 21 -136.5t60.5 -106t95 -69t124.5 -24.5q55 0 103 15t89.5 41.5t75.5 62t62 76.5l317 -158q-114 -180 -286.5 -276.5t-399.5 -96.5 q-136 0 -250.5 46.5t-198 130.5t-130 201.5t-46.5 260.5q0 142 36 266.5t99.5 228.5t150 186t188 138.5t213 86.5t225.5 30q91 0 168 -19t141 -54t102.5 -73.5t61.5 -68.5h190l-63 -274h-389q-26 68 -91.5 110.5zM340 -289q52 12 90.5 32.5t66.5 50t47 69t32 90.5l264 -92 q-29 -69 -72 -123.5t-98.5 -93.5t-121 -63.5t-138.5 -33.5z" />
<glyph unicode="&#xc8;" horiz-adv-x="1505" d="M393 1516h1297l-119 -517h-350l55 242h-421l-76 -326h337l-67 -290h-337l-82 -351h396l61 269h351l-125 -543h-1252l64 274h155l224 967h-174zM1040 1658l-293 286v25h326l196 -311h-229z" />
<glyph unicode="&#xc9;" horiz-adv-x="1505" d="M393 1516h1297l-119 -517h-350l55 242h-421l-76 -326h337l-67 -290h-337l-82 -351h396l61 269h351l-125 -543h-1252l64 274h155l224 967h-174zM1140 1969h326v-25l-306 -286h-235z" />
<glyph unicode="&#xca;" horiz-adv-x="1505" d="M393 1516h1297l-119 -517h-350l55 242h-421l-76 -326h337l-67 -290h-337l-82 -351h396l61 269h351l-125 -543h-1252l64 274h155l224 967h-174zM685 1658l357 325h239l197 -325h-248l-96 157l-172 -157h-277z" />
<glyph unicode="&#xcb;" horiz-adv-x="1505" d="M393 1516h1297l-119 -517h-350l55 242h-421l-76 -326h337l-67 -290h-337l-82 -351h396l61 269h351l-125 -543h-1252l64 274h155l224 967h-174zM618 1821q0 37 13.5 69.5t37.5 57t56.5 38.5t70.5 14q36 0 68 -14t56 -38.5t38 -57t14 -69.5t-14 -69.5t-38 -56.5t-56 -38 t-68 -14q-38 0 -70.5 14t-56.5 38t-37.5 56.5t-13.5 69.5zM1097 1821q0 37 14 69.5t38 57t56.5 38.5t70.5 14q36 0 68 -14t56 -38.5t38 -57t14 -69.5t-14 -69.5t-38 -56.5t-56 -38t-68 -14q-38 0 -70.5 14t-56.5 38t-38 56.5t-14 69.5z" />
<glyph unicode="&#xcc;" horiz-adv-x="926" d="M393 1516h676l-63 -275h-151l-225 -967h171l-64 -274h-676l64 274h155l224 967h-174zM676 1658l-293 286v25h326l196 -311h-229z" />
<glyph unicode="&#xcd;" horiz-adv-x="926" d="M393 1516h676l-63 -275h-151l-225 -967h171l-64 -274h-676l64 274h155l224 967h-174zM776 1969h326v-25l-306 -286h-235z" />
<glyph unicode="&#xce;" horiz-adv-x="926" d="M393 1516h676l-63 -275h-151l-225 -967h171l-64 -274h-676l64 274h155l224 967h-174zM355 1658l357 325h239l197 -325h-248l-96 157l-172 -157h-277z" />
<glyph unicode="&#xcf;" horiz-adv-x="926" d="M393 1516h676l-63 -275h-151l-225 -967h171l-64 -274h-676l64 274h155l224 967h-174zM424 1821q0 66 46 113t114 47q33 0 61.5 -12t50 -33.5t34 -51.5t12.5 -63q0 -32 -12.5 -62t-34 -51.5t-50 -33.5t-61.5 -12q-68 0 -114 47t-46 112v0zM801 1821q0 66 46 113t114 47 q32 0 61 -12t50.5 -33.5t33.5 -51.5t12 -63q0 -32 -12 -62t-33.5 -51.5t-50.5 -33.5t-61 -12q-68 0 -114 47t-46 112v0z" />
<glyph unicode="&#xd0;" horiz-adv-x="1585" d="M88 640l64 274h195l76 327h-156l64 275h608q137 0 252 -42t198.5 -121.5t130 -195.5t46.5 -264q0 -125 -29 -239.5t-85 -213.5t-138 -180t-188 -139t-235.5 -89.5t-279.5 -31.5h-631l64 274h155l85 366h-196zM774 1241l-76 -327h252l-64 -274h-252l-85 -366h107 q73 0 141.5 21.5t129 60t111 92.5t87 119.5t56.5 140.5t20 156q0 105 -26.5 177t-71 116.5t-102.5 64t-121 19.5h-106z" />
<glyph unicode="&#xd1;" horiz-adv-x="1786" d="M1358 1516h612l-63 -275h-130l-286 -1241h-344l-386 935l-153 -661h129l-63 -274h-613l64 274h135l223 967h-164l64 275h516l374 -936l154 661h-133zM971 1959q42 0 81 -14.5t76.5 -32t73 -32t70.5 -14.5q42 0 74.5 15t58.5 53l158 -70q-15 -45 -42.5 -84t-63.5 -68.5 t-79 -46t-90 -16.5q-52 0 -94 13.5t-79.5 30t-73.5 30.5t-76 14q-45 0 -76 -18.5t-51 -44.5l-152 70q14 54 47.5 94t74.5 67t84.5 40.5t78.5 13.5z" />
<glyph unicode="&#xd2;" horiz-adv-x="1597" d="M748 -31q-136 0 -250.5 46.5t-198 130.5t-130 201.5t-46.5 260.5q0 142 36 266.5t99.5 228.5t150 186t187.5 138.5t212.5 86.5t225.5 30q142 0 257.5 -47t197 -131.5t126 -202.5t44.5 -260q0 -139 -33.5 -262t-94.5 -227t-145 -186.5t-185.5 -140t-216 -88t-236.5 -30.5z M786 305q67 0 131 21.5t120 59.5t103 91t80.5 116t52.5 134t19 145q0 75 -20.5 136.5t-59.5 106t-95 69t-126 24.5q-102 0 -194 -47t-161 -126t-110 -181t-41 -213q0 -75 21 -136.5t60.5 -106t95 -69t124.5 -24.5zM891 1698l-293 286v25h326l196 -311h-229z" />
<glyph unicode="&#xd3;" horiz-adv-x="1597" d="M748 -31q-136 0 -250.5 46.5t-198 130.5t-130 201.5t-46.5 260.5q0 142 36 266.5t99.5 228.5t150 186t187.5 138.5t212.5 86.5t225.5 30q142 0 257.5 -47t197 -131.5t126 -202.5t44.5 -260q0 -139 -33.5 -262t-94.5 -227t-145 -186.5t-185.5 -140t-216 -88t-236.5 -30.5z M786 305q67 0 131 21.5t120 59.5t103 91t80.5 116t52.5 134t19 145q0 75 -20.5 136.5t-59.5 106t-95 69t-126 24.5q-102 0 -194 -47t-161 -126t-110 -181t-41 -213q0 -75 21 -136.5t60.5 -106t95 -69t124.5 -24.5zM1192 2009h326v-25l-306 -286h-235z" />
<glyph unicode="&#xd4;" horiz-adv-x="1597" d="M748 -31q-136 0 -250.5 46.5t-198 130.5t-130 201.5t-46.5 260.5q0 142 36 266.5t99.5 228.5t150 186t187.5 138.5t212.5 86.5t225.5 30q142 0 257.5 -47t197 -131.5t126 -202.5t44.5 -260q0 -139 -33.5 -262t-94.5 -227t-145 -186.5t-185.5 -140t-216 -88t-236.5 -30.5z M786 305q67 0 131 21.5t120 59.5t103 91t80.5 116t52.5 134t19 145q0 75 -20.5 136.5t-59.5 106t-95 69t-126 24.5q-102 0 -194 -47t-161 -126t-110 -181t-41 -213q0 -75 21 -136.5t60.5 -106t95 -69t124.5 -24.5zM737 1698l357 325h239l197 -325h-248l-96 157l-172 -157 h-277z" />
<glyph unicode="&#xd5;" horiz-adv-x="1597" d="M748 -31q-136 0 -250.5 46.5t-198 130.5t-130 201.5t-46.5 260.5q0 142 36 266.5t99.5 228.5t150 186t187.5 138.5t212.5 86.5t225.5 30q142 0 257.5 -47t197 -131.5t126 -202.5t44.5 -260q0 -139 -33.5 -262t-94.5 -227t-145 -186.5t-185.5 -140t-216 -88t-236.5 -30.5z M786 305q67 0 131 21.5t120 59.5t103 91t80.5 116t52.5 134t19 145q0 75 -20.5 136.5t-59.5 106t-95 69t-126 24.5q-102 0 -194 -47t-161 -126t-110 -181t-41 -213q0 -75 21 -136.5t60.5 -106t95 -69t124.5 -24.5zM889 1999q42 0 81 -14.5t76.5 -32t73 -32t70.5 -14.5 q42 0 74.5 15t58.5 53l158 -70q-15 -45 -42.5 -84t-63.5 -68.5t-79 -46t-90 -16.5q-52 0 -94 13.5t-79.5 30t-73.5 30.5t-76 14q-45 0 -76 -18.5t-51 -44.5l-152 70q14 54 47.5 94t74.5 67t84.5 40.5t78.5 13.5z" />
<glyph unicode="&#xd6;" horiz-adv-x="1597" d="M748 -31q-136 0 -250.5 46.5t-198 130.5t-130 201.5t-46.5 260.5q0 142 36 266.5t99.5 228.5t150 186t187.5 138.5t212.5 86.5t225.5 30q142 0 257.5 -47t197 -131.5t126 -202.5t44.5 -260q0 -139 -33.5 -262t-94.5 -227t-145 -186.5t-185.5 -140t-216 -88t-236.5 -30.5z M786 305q67 0 131 21.5t120 59.5t103 91t80.5 116t52.5 134t19 145q0 75 -20.5 136.5t-59.5 106t-95 69t-126 24.5q-102 0 -194 -47t-161 -126t-110 -181t-41 -213q0 -75 21 -136.5t60.5 -106t95 -69t124.5 -24.5zM670 1861q0 37 13.5 69.5t37.5 57t56.5 38.5t70.5 14 q36 0 68 -14t56 -38.5t38 -57t14 -69.5t-14 -69.5t-38 -56.5t-56 -38t-68 -14q-38 0 -70.5 14t-56.5 38t-37.5 56.5t-13.5 69.5zM1149 1861q0 37 14 69.5t38 57t56.5 38.5t70.5 14q36 0 68 -14t56 -38.5t38 -57t14 -69.5t-14 -69.5t-38 -56.5t-56 -38t-68 -14 q-38 0 -70.5 14t-56.5 38t-38 56.5t-14 69.5z" />
<glyph unicode="&#xd7;" horiz-adv-x="1262" d="M466 680l-259 377l254 192l247 -359l427 372l188 -215l-453 -393l252 -365l-254 -191l-239 346l-410 -356l-188 213z" />
<glyph unicode="&#xd8;" horiz-adv-x="1597" d="M219 247q-47 75 -71.5 165.5t-24.5 195.5q0 142 36 266.5t99.5 228.5t150 186t187.5 138.5t213 86.5t225 30q109 0 202 -28t168 -79l139 140h301l-291 -293q51 -78 78.5 -174t27.5 -207q0 -139 -33.5 -262t-94.5 -227t-145 -186.5t-185.5 -140t-216 -88t-236.5 -30.5 q-111 0 -207 30.5t-174 87.5l-147 -148h-307zM917 326.5q64 21.5 120 59.5t103 91t80.5 116t52.5 134t19 145q0 35 -5 67.5t-14 61.5l-647 -653q33 -21 73 -32t87 -11q67 0 131 21.5zM488.5 582q3.5 -28 10.5 -54l641 644q-32 17 -69 26.5t-80 9.5q-102 0 -194 -47 t-161 -126t-110 -181t-41 -213q0 -31 3.5 -59z" />
<glyph unicode="&#xd9;" horiz-adv-x="1534" d="M281 1516h612l-64 -275h-116l-146 -629q-21 -100 -12 -155.5t39 -95.5t74 -58t104 -18q58 0 104.5 16.5t83.5 55t65.5 101t49.5 154.5l145 629h-137l64 275h612l-63 -275h-130l-155 -674q-36 -158 -97 -271.5t-147 -186t-197.5 -106.5t-248.5 -34q-113 0 -207.5 33.5 t-163 94t-104 146t-41 181.5t19.5 209l142 608h-150zM979 1658l-293 286v25h326l196 -311h-229z" />
<glyph unicode="&#xda;" horiz-adv-x="1534" d="M281 1516h612l-64 -275h-116l-146 -629q-21 -100 -12 -155.5t39 -95.5t74 -58t104 -18q58 0 104.5 16.5t83.5 55t65.5 101t49.5 154.5l145 629h-137l64 275h612l-63 -275h-130l-155 -674q-36 -158 -97 -271.5t-147 -186t-197.5 -106.5t-248.5 -34q-113 0 -207.5 33.5 t-163 94t-104 146t-41 181.5t19.5 209l142 608h-150zM1079 1969h326v-25l-306 -286h-235z" />
<glyph unicode="&#xdb;" horiz-adv-x="1534" d="M281 1516h612l-64 -275h-116l-146 -629q-21 -100 -12 -155.5t39 -95.5t74 -58t104 -18q58 0 104.5 16.5t83.5 55t65.5 101t49.5 154.5l145 629h-137l64 275h612l-63 -275h-130l-155 -674q-36 -158 -97 -271.5t-147 -186t-197.5 -106.5t-248.5 -34q-113 0 -207.5 33.5 t-163 94t-104 146t-41 181.5t19.5 209l142 608h-150zM624 1658l357 325h239l197 -325h-248l-96 157l-172 -157h-277z" />
<glyph unicode="&#xdc;" horiz-adv-x="1534" d="M281 1516h612l-64 -275h-116l-146 -629q-21 -100 -12 -155.5t39 -95.5t74 -58t104 -18q58 0 104.5 16.5t83.5 55t65.5 101t49.5 154.5l145 629h-137l64 275h612l-63 -275h-130l-155 -674q-36 -158 -97 -271.5t-147 -186t-197.5 -106.5t-248.5 -34q-113 0 -207.5 33.5 t-163 94t-104 146t-41 181.5t19.5 209l142 608h-150zM557 1821q0 37 13.5 69.5t37.5 57t56.5 38.5t70.5 14q36 0 68 -14t56 -38.5t38 -57t14 -69.5t-14 -69.5t-38 -56.5t-56 -38t-68 -14q-38 0 -70.5 14t-56.5 38t-37.5 56.5t-13.5 69.5zM1036 1821q0 37 14 69.5t38 57 t56.5 38.5t70.5 14q36 0 68 -14t56 -38.5t38 -57t14 -69.5t-14 -69.5t-38 -56.5t-56 -38t-68 -14q-38 0 -70.5 14t-56.5 38t-38 56.5t-14 69.5z" />
<glyph unicode="&#xdd;" horiz-adv-x="1393" d="M248 1516h612l-63 -275h-105l133 -328l25 26l262 302h-88l63 275h613l-64 -275h-101l-594 -626l-79 -341h170l-63 -274h-676l63 274h160l82 361l-280 606h-134zM1032 1969h326v-25l-306 -286h-235z" />
<glyph unicode="&#xde;" horiz-adv-x="1370" d="M393 1516h525l-37 -158v0l-36 -158h185q104 0 186 -29.5t139 -82t87.5 -124t30.5 -155.5q0 -86 -32.5 -164t-97 -141t-160.5 -106t-223 -58q-32 -4 -65.5 -6t-59.5 -2h-191l-77 -332h-506l64 274h155l223 967h-173zM781 926l-75 -324h128q22 0 42 1.5t39 3.5 q46 6 81.5 20.5t60 37.5t37 54t12.5 72q0 62 -48.5 98.5t-154.5 36.5h-122z" />
<glyph unicode="&#xdf;" horiz-adv-x="1479" d="M84 274h188l209 906q20 86 70.5 158.5t124.5 125.5t167 83t199 30q94 0 170.5 -29.5t131 -79.5t84.5 -116t30 -138q0 -66 -17 -118t-44 -92.5t-62 -69.5t-71 -49q72 -54 113.5 -138t41.5 -184q0 -141 -50 -248.5t-137 -180t-204 -109.5t-250 -37q-20 0 -48.5 1.5 t-47.5 4.5l68 289q14 -3 32 -5t33 -2q50 0 97 19t84 52.5t59 78.5t22 96q0 34 -11.5 65t-33.5 53.5t-52.5 36t-68.5 13.5h-67l65 289h74q35 0 65.5 14.5t53 39t35 57t12.5 67.5q0 60 -35.5 100.5t-103.5 40.5q-36 0 -68 -12.5t-58 -35t-45 -55t-28 -71.5l-260 -1124h-531z " />
<glyph unicode="&#xe0;" horiz-adv-x="1391" d="M786 79q-37 -39 -98 -66q-65 -29 -153 -29q-81 0 -159 29t-138.5 86.5t-98 142.5t-37.5 196q0 96 25 179.5t69 153t104.5 123.5t132 91t151 56.5t161.5 19.5q46 0 78.5 -6t74.5 -18t98 -52l12 51h340l-177 -762h191l-64 -274h-530zM823 372l44 55l50 216q-12 23 -31 44.5 t-47.5 37.5t-62 24.5t-67.5 8.5q-54 0 -103 -21.5t-85.5 -58t-58.5 -86.5t-22 -107q0 -48 15 -84t41 -60t60 -36t73 -12q33 0 67.5 8.5t66.5 26t60 44.5zM713 1178l-293 286v25h326l196 -311h-229z" />
<glyph unicode="&#xe1;" horiz-adv-x="1391" d="M786 79q-37 -39 -98 -66q-65 -29 -153 -29q-81 0 -159 29t-138.5 86.5t-98 142.5t-37.5 196q0 96 25 179.5t69 153t104.5 123.5t132 91t151 56.5t161.5 19.5q46 0 78.5 -6t74.5 -18t98 -52l12 51h340l-177 -762h191l-64 -274h-530zM823 372l44 55l50 216q-12 23 -31 44.5 t-47.5 37.5t-62 24.5t-67.5 8.5q-54 0 -103 -21.5t-85.5 -58t-58.5 -86.5t-22 -107q0 -48 15 -84t41 -60t60 -36t73 -12q33 0 67.5 8.5t66.5 26t60 44.5zM813 1489h326v-25l-306 -286h-235z" />
<glyph unicode="&#xe2;" horiz-adv-x="1391" d="M786 79q-37 -39 -98 -66q-65 -29 -153 -29q-81 0 -159 29t-138.5 86.5t-98 142.5t-37.5 196q0 96 25 179.5t69 153t104.5 123.5t132 91t151 56.5t161.5 19.5q46 0 78.5 -6t74.5 -18t98 -52l12 51h340l-177 -762h191l-64 -274h-530zM823 372l44 55l50 216q-12 23 -31 44.5 t-47.5 37.5t-62 24.5t-67.5 8.5q-54 0 -103 -21.5t-85.5 -58t-58.5 -86.5t-22 -107q0 -48 15 -84t41 -60t60 -36t73 -12q33 0 67.5 8.5t66.5 26t60 44.5zM390 1178l357 325h239l197 -325h-248l-96 157l-172 -157h-277z" />
<glyph unicode="&#xe3;" horiz-adv-x="1391" d="M786 79q-37 -39 -98 -66q-65 -29 -153 -29q-81 0 -159 29t-138.5 86.5t-98 142.5t-37.5 196q0 96 25 179.5t69 153t104.5 123.5t132 91t151 56.5t161.5 19.5q46 0 78.5 -6t74.5 -18t98 -52l12 51h340l-177 -762h191l-64 -274h-530zM823 372l44 55l50 216q-12 23 -31 44.5 t-47.5 37.5t-62 24.5t-67.5 8.5q-54 0 -103 -21.5t-85.5 -58t-58.5 -86.5t-22 -107q0 -48 15 -84t41 -60t60 -36t73 -12q33 0 67.5 8.5t66.5 26t60 44.5zM635 1479q42 0 81 -14.5t76.5 -32t73 -32t70.5 -14.5q42 0 74.5 15t58.5 53l158 -70q-15 -45 -42.5 -84t-63.5 -68.5 t-79 -46t-90 -16.5q-52 0 -94 13.5t-79.5 30t-73.5 30.5t-76 14q-45 0 -76 -18.5t-51 -44.5l-152 70q14 54 47.5 94t74.5 67t84.5 40.5t78.5 13.5z" />
<glyph unicode="&#xe4;" horiz-adv-x="1391" d="M786 79q-37 -39 -98 -66q-65 -29 -153 -29q-81 0 -159 29t-138.5 86.5t-98 142.5t-37.5 196q0 96 25 179.5t69 153t104.5 123.5t132 91t151 56.5t161.5 19.5q46 0 78.5 -6t74.5 -18t98 -52l12 51h340l-177 -762h191l-64 -274h-530zM823 372l44 55l50 216q-12 23 -31 44.5 t-47.5 37.5t-62 24.5t-67.5 8.5q-54 0 -103 -21.5t-85.5 -58t-58.5 -86.5t-22 -107q0 -48 15 -84t41 -60t60 -36t73 -12q33 0 67.5 8.5t66.5 26t60 44.5zM327 1343q0 37 13.5 69.5t37.5 57t56.5 38.5t70.5 14q36 0 68 -14t56 -38.5t38 -57t14 -69.5t-14 -69.5t-38 -56.5 t-56 -38t-68 -14q-38 0 -70.5 14t-56.5 38t-37.5 56.5t-13.5 69.5zM806 1343q0 37 14 69.5t38 57t56.5 38.5t70.5 14q36 0 68 -14t56 -38.5t38 -57t14 -69.5t-14 -69.5t-38 -56.5t-56 -38t-68 -14q-38 0 -70.5 14t-56.5 38t-38 56.5t-14 69.5z" />
<glyph unicode="&#xe5;" horiz-adv-x="1391" d="M786 79q-37 -39 -98 -66q-65 -29 -153 -29q-81 0 -159 29t-138.5 86.5t-98 142.5t-37.5 196q0 96 25 179.5t69 153t104.5 123.5t132 91t151 56.5t161.5 19.5q46 0 78.5 -6t74.5 -18t98 -52l12 51h340l-177 -762h191l-64 -274h-530zM823 372l44 55l50 216q-12 23 -31 44.5 t-47.5 37.5t-62 24.5t-67.5 8.5q-54 0 -103 -21.5t-85.5 -58t-58.5 -86.5t-22 -107q0 -48 15 -84t41 -60t60 -36t73 -12q33 0 67.5 8.5t66.5 26t60 44.5zM856 1726q65 0 123 -25t101.5 -68t68.5 -101t25 -123t-25 -123t-68.5 -101.5t-101.5 -68.5t-123 -25t-123 25 t-101 68.5t-68 101.5t-25 123t25 123t68 101t101 68t123 25zM731 1409q0 -26 10 -49t27 -40t39.5 -26.5t48.5 -9.5t48.5 9.5t39 26.5t26 40t9.5 49t-9.5 48.5t-26 39t-39 26t-48.5 9.5t-48.5 -9.5t-39.5 -26t-27 -39t-10 -48.5z" />
<glyph unicode="&#xe6;" horiz-adv-x="1849" d="M530 637q69 0 123.5 -6.5t101.5 -17.5l7 30q9 39 1.5 67.5t-29 47t-56.5 27t-80 8.5q-47 0 -88.5 -4.5t-80.5 -13.5t-76 -22.5t-74 -31.5l-52 194q54 34 109.5 61t112.5 45.5t115.5 28t119.5 9.5q100 0 181 -25.5t134 -79.5q79 54 172 83.5t195 29.5q100 0 185 -35.5 t147 -95t96.5 -137.5t34.5 -162q0 -20 -2 -45t-6 -51.5t-10 -52.5t-13 -48h-739q2 -25 7.5 -47t16.5 -42t27 -35.5t37 -26.5t47.5 -17t58.5 -6q40 0 74 8t64 22.5t57.5 34.5t54.5 44l219 -193q-50 -54 -108.5 -93t-124 -65t-137 -38.5t-146.5 -12.5q-60 0 -115.5 12t-105 35 t-91.5 56.5t-74 76.5q-39 -40 -83 -72.5t-95.5 -56t-113 -36.5t-135.5 -13q-88 0 -154 24t-110 64.5t-66 93.5t-22 111q0 55 15.5 103.5t45 89.5t72 73.5t97 55.5t119.5 35t140 12v0zM442 211q91 0 165.5 29.5t137.5 77.5q-4 17 -6 34l-4 34q-2 19 -2 36h-203 q-36 0 -71.5 -4t-64 -17t-46.5 -37.5t-18 -64.5q0 -38 27 -63t85 -25v0zM1333 809q-40 0 -77 -9.5t-68.5 -28t-55.5 -45t-38 -60.5h434q-2 27 -17.5 52.5t-41 45.5t-60 32.5t-76.5 12.5z" />
<glyph unicode="&#xe7;" horiz-adv-x="1171" d="M852 668q-16 42 -59 68t-93 26q-56 0 -105.5 -22.5t-86.5 -62t-58.5 -92t-21.5 -112.5q0 -45 14.5 -80.5t38.5 -61t56 -39t67 -13.5q83 0 138.5 38.5t91.5 100.5l272 -148q-32 -62 -84 -116t-121 -94t-152.5 -62.5t-177.5 -22.5q-101 0 -186.5 36.5t-148.5 99 t-98.5 146.5t-35.5 179q0 143 51.5 259.5t138.5 199t201.5 127.5t241.5 45q80 0 148 -23t123 -63q25 -18 47 -39h192l-63 -274h-330v0zM208 -289q52 12 90.5 32.5t66.5 50t47 69t32 90.5l264 -92q-29 -69 -72 -123.5t-98.5 -93.5t-121 -63.5t-138.5 -33.5z" />
<glyph unicode="&#xe8;" horiz-adv-x="1178" d="M428 440q2 -24 8 -46q10 -38 33.5 -66.5t61.5 -45t92 -16.5q40 0 73.5 8t63.5 22.5t57.5 34.5t54.5 44l220 -193q-101 -108 -233 -158.5t-284 -50.5q-98 0 -184 32t-150 91.5t-101.5 144.5t-37.5 191q0 143 51.5 260t138.5 200.5t201.5 129t241.5 45.5q101 0 186 -35.5 t146.5 -95t96 -137.5t34.5 -162q0 -20 -2 -45t-6 -51.5t-10 -52.5t-13 -48h-739zM471 680q-4 -7 -7 -14h433q-2 27 -17.5 52.5t-41 45.5t-60 32.5t-76.5 12.5q-50 0 -95.5 -15t-80 -43.5t-55.5 -70.5zM701 1178l-293 286v25h326l196 -311h-229z" />
<glyph unicode="&#xe9;" horiz-adv-x="1178" d="M428 440q2 -24 8 -46q10 -38 33.5 -66.5t61.5 -45t92 -16.5q40 0 73.5 8t63.5 22.5t57.5 34.5t54.5 44l220 -193q-101 -108 -233 -158.5t-284 -50.5q-98 0 -184 32t-150 91.5t-101.5 144.5t-37.5 191q0 143 51.5 260t138.5 200.5t201.5 129t241.5 45.5q101 0 186 -35.5 t146.5 -95t96 -137.5t34.5 -162q0 -20 -2 -45t-6 -51.5t-10 -52.5t-13 -48h-739zM471 680q-4 -7 -7 -14h433q-2 27 -17.5 52.5t-41 45.5t-60 32.5t-76.5 12.5q-50 0 -95.5 -15t-80 -43.5t-55.5 -70.5zM801 1489h326v-25l-306 -286h-235z" />
<glyph unicode="&#xea;" horiz-adv-x="1178" d="M428 440q2 -24 8 -46q10 -38 33.5 -66.5t61.5 -45t92 -16.5q40 0 73.5 8t63.5 22.5t57.5 34.5t54.5 44l220 -193q-101 -108 -233 -158.5t-284 -50.5q-98 0 -184 32t-150 91.5t-101.5 144.5t-37.5 191q0 143 51.5 260t138.5 200.5t201.5 129t241.5 45.5q101 0 186 -35.5 t146.5 -95t96 -137.5t34.5 -162q0 -20 -2 -45t-6 -51.5t-10 -52.5t-13 -48h-739zM471 680q-4 -7 -7 -14h433q-2 27 -17.5 52.5t-41 45.5t-60 32.5t-76.5 12.5q-50 0 -95.5 -15t-80 -43.5t-55.5 -70.5zM346 1178l357 325h239l197 -325h-248l-96 157l-172 -157h-277z" />
<glyph unicode="&#xeb;" horiz-adv-x="1178" d="M428 440q2 -24 8 -46q10 -38 33.5 -66.5t61.5 -45t92 -16.5q40 0 73.5 8t63.5 22.5t57.5 34.5t54.5 44l220 -193q-101 -108 -233 -158.5t-284 -50.5q-98 0 -184 32t-150 91.5t-101.5 144.5t-37.5 191q0 143 51.5 260t138.5 200.5t201.5 129t241.5 45.5q101 0 186 -35.5 t146.5 -95t96 -137.5t34.5 -162q0 -20 -2 -45t-6 -51.5t-10 -52.5t-13 -48h-739zM471 680q-4 -7 -7 -14h433q-2 27 -17.5 52.5t-41 45.5t-60 32.5t-76.5 12.5q-50 0 -95.5 -15t-80 -43.5t-55.5 -70.5zM327 1343q0 37 13.5 69.5t37.5 57t56.5 38.5t70.5 14q36 0 68 -14 t56 -38.5t38 -57t14 -69.5t-14 -69.5t-38 -56.5t-56 -38t-68 -14q-38 0 -70.5 14t-56.5 38t-37.5 56.5t-13.5 69.5zM806 1343q0 37 14 69.5t38 57t56.5 38.5t70.5 14q36 0 68 -14t56 -38.5t38 -57t14 -69.5t-14 -69.5t-38 -56.5t-56 -38t-68 -14q-38 0 -70.5 14t-56.5 38 t-38 56.5t-14 69.5z" />
<glyph unicode="&#xec;" horiz-adv-x="860" d="M141 1036h564l-177 -762h240l-63 -274h-582l176 762h-221zM436 1178l-293 286v25h326l196 -311h-229z" />
<glyph unicode="&#xed;" horiz-adv-x="860" d="M141 1036h564l-177 -762h240l-63 -274h-582l176 762h-221zM585 1489h326v-25l-306 -286h-235z" />
<glyph unicode="&#xee;" horiz-adv-x="860" d="M141 1036h564l-177 -762h240l-63 -274h-582l176 762h-221zM100 1178l323 325h246l164 -325h-248l-66 157l-142 -157h-277z" />
<glyph unicode="&#xef;" horiz-adv-x="860" d="M141 1036h564l-177 -762h240l-63 -274h-582l176 762h-221zM233 1342q0 66 46 113t114 47q33 0 61.5 -12t50 -33.5t34 -51.5t12.5 -63q0 -32 -12.5 -62t-34 -51.5t-50 -33.5t-61.5 -12q-68 0 -114 47t-46 112v0zM610 1342q0 66 46 113t114 47q32 0 61 -12t50.5 -33.5 t33.5 -51.5t12 -63q0 -32 -12 -62t-33.5 -51.5t-50.5 -33.5t-61 -12q-68 0 -114 47t-46 112v0z" />
<glyph unicode="&#xf0;" d="M453 1360l66 21q-47 46 -97 89t-104 86h405q27 -18 52.5 -36t48.5 -38l189 63l85 -261l-71 -24q45 -69 78 -144.5t54.5 -157.5t32 -171t10.5 -183q0 -58 -13.5 -127t-44 -139t-79 -135.5t-119 -116t-163.5 -81t-212 -30.5q-101 0 -186.5 36.5t-148.5 99t-98.5 146.5 t-35.5 179t23.5 178t63.5 151.5t94 122t116 90.5t128 56t131 19q35 0 63.5 0.5t51.5 -1.5q-15 27 -31 52.5t-33 51.5l-170 -56zM876.5 586q-0.5 10 -0.5 20t-0.5 20t-18 48.5t-63.5 66t-94 27.5q-38 0 -72.5 -10t-65 -29t-55 -45.5t-42.5 -59t-27.5 -71t-9.5 -80.5 q0 -35 8.5 -70.5t29 -64t54 -46.5t84.5 -18q48 0 97 22.5t88 62t63.5 93t24.5 115.5q0 9 -0.5 19z" />
<glyph unicode="&#xf1;" horiz-adv-x="1421" d="M207 1036h526l-15 -74l-1 -10q45 34 93 58t99 37.5t105 13.5q87 0 152 -29t104 -83t49.5 -132.5t-12.5 -177.5l-85 -365h189l-63 -274h-531l129 557q9 38 5.5 69.5t-16 54t-34 34.5t-49.5 12q-51 0 -126 -39q-39 -20 -81 -52l-147 -636h-351l176 762h-180zM715 1479 q42 0 81 -14.5t76.5 -32t73 -32t70.5 -14.5q42 0 74.5 15t58.5 53l158 -70q-15 -45 -42.5 -84t-63.5 -68.5t-79 -46t-90 -16.5q-52 0 -94 13.5t-79.5 30t-73.5 30.5t-76 14q-45 0 -76 -18.5t-51 -44.5l-152 70q14 54 47.5 94t74.5 67t84.5 40.5t78.5 13.5z" />
<glyph unicode="&#xf2;" d="M102 436q0 143 51.5 259.5t138.5 199t201.5 127.5t241.5 45q98 0 183.5 -36t148.5 -98.5t99 -147t36 -181.5q0 -137 -48.5 -252t-133 -199t-200 -131t-249.5 -47q-101 0 -186.5 36.5t-148.5 99t-98.5 146.5t-35.5 179zM428 473q0 -44 13 -80.5t36.5 -63t56 -41 t70.5 -14.5q52 0 101 22.5t87.5 62t61.5 93t23 115.5q0 51 -14.5 88.5t-38.5 62.5t-56 37.5t-68 12.5q-57 0 -106.5 -23.5t-86 -63.5t-58 -93.5t-21.5 -114.5zM641 1178l-293 286v25h326l196 -311h-229z" />
<glyph unicode="&#xf3;" d="M102 436q0 143 51.5 259.5t138.5 199t201.5 127.5t241.5 45q98 0 183.5 -36t148.5 -98.5t99 -147t36 -181.5q0 -137 -48.5 -252t-133 -199t-200 -131t-249.5 -47q-101 0 -186.5 36.5t-148.5 99t-98.5 146.5t-35.5 179zM428 473q0 -44 13 -80.5t36.5 -63t56 -41 t70.5 -14.5q52 0 101 22.5t87.5 62t61.5 93t23 115.5q0 51 -14.5 88.5t-38.5 62.5t-56 37.5t-68 12.5q-57 0 -106.5 -23.5t-86 -63.5t-58 -93.5t-21.5 -114.5zM801 1489h326v-25l-306 -286h-235z" />
<glyph unicode="&#xf4;" d="M102 436q0 143 51.5 259.5t138.5 199t201.5 127.5t241.5 45q98 0 183.5 -36t148.5 -98.5t99 -147t36 -181.5q0 -137 -48.5 -252t-133 -199t-200 -131t-249.5 -47q-101 0 -186.5 36.5t-148.5 99t-98.5 146.5t-35.5 179zM428 473q0 -44 13 -80.5t36.5 -63t56 -41 t70.5 -14.5q52 0 101 22.5t87.5 62t61.5 93t23 115.5q0 51 -14.5 88.5t-38.5 62.5t-56 37.5t-68 12.5q-57 0 -106.5 -23.5t-86 -63.5t-58 -93.5t-21.5 -114.5zM346 1178l357 325h239l197 -325h-248l-96 157l-172 -157h-277z" />
<glyph unicode="&#xf5;" d="M102 436q0 143 51.5 259.5t138.5 199t201.5 127.5t241.5 45q98 0 183.5 -36t148.5 -98.5t99 -147t36 -181.5q0 -137 -48.5 -252t-133 -199t-200 -131t-249.5 -47q-101 0 -186.5 36.5t-148.5 99t-98.5 146.5t-35.5 179zM428 473q0 -44 13 -80.5t36.5 -63t56 -41 t70.5 -14.5q52 0 101 22.5t87.5 62t61.5 93t23 115.5q0 51 -14.5 88.5t-38.5 62.5t-56 37.5t-68 12.5q-57 0 -106.5 -23.5t-86 -63.5t-58 -93.5t-21.5 -114.5zM576 1479q42 0 81 -14.5t76.5 -32t73 -32t70.5 -14.5q42 0 74.5 15t58.5 53l158 -70q-15 -45 -42.5 -84 t-63.5 -68.5t-79 -46t-90 -16.5q-52 0 -94 13.5t-79.5 30t-73.5 30.5t-76 14q-45 0 -76 -18.5t-51 -44.5l-152 70q14 54 47.5 94t74.5 67t84.5 40.5t78.5 13.5z" />
<glyph unicode="&#xf6;" d="M102 436q0 143 51.5 259.5t138.5 199t201.5 127.5t241.5 45q98 0 183.5 -36t148.5 -98.5t99 -147t36 -181.5q0 -137 -48.5 -252t-133 -199t-200 -131t-249.5 -47q-101 0 -186.5 36.5t-148.5 99t-98.5 146.5t-35.5 179zM428 473q0 -44 13 -80.5t36.5 -63t56 -41 t70.5 -14.5q52 0 101 22.5t87.5 62t61.5 93t23 115.5q0 51 -14.5 88.5t-38.5 62.5t-56 37.5t-68 12.5q-57 0 -106.5 -23.5t-86 -63.5t-58 -93.5t-21.5 -114.5zM337 1343q0 37 13.5 69.5t37.5 57t56.5 38.5t70.5 14q36 0 68 -14t56 -38.5t38 -57t14 -69.5t-14 -69.5 t-38 -56.5t-56 -38t-68 -14q-38 0 -70.5 14t-56.5 38t-37.5 56.5t-13.5 69.5zM816 1343q0 37 14 69.5t38 57t56.5 38.5t70.5 14q36 0 68 -14t56 -38.5t38 -57t14 -69.5t-14 -69.5t-38 -56.5t-56 -38t-68 -14q-38 0 -70.5 14t-56.5 38t-38 56.5t-14 69.5z" />
<glyph unicode="&#xf7;" horiz-adv-x="1100" d="M693 1085q36 0 68 -14t56 -38t38 -56.5t14 -69.5t-14 -69.5t-38 -56.5t-56 -38t-68 -14q-38 0 -70.5 14t-56.5 38t-38 56.5t-14 69.5t14 69.5t38 56.5t56.5 38t70.5 14zM530 323q36 0 68 -14t56 -38t38 -56.5t14 -69.5t-14 -69.5t-38 -56.5t-56 -38t-68 -14 q-38 0 -70.5 14t-56.5 38t-38 56.5t-14 69.5t14 69.5t38 56.5t56.5 38t70.5 14zM50 383l64 275h975l-64 -275h-975z" />
<glyph unicode="&#xf8;" d="M125.5 611q23.5 84 65.5 155t100.5 126.5t129 94.5t150.5 59.5t164 20.5q69 0 132 -18.5t117 -52.5l108 108h292l-253 -256q34 -54 52.5 -116.5t18.5 -131.5q0 -91 -22 -173t-62.5 -152t-97.5 -127t-127 -96.5t-151.5 -61t-170.5 -21.5q-69 0 -131 17.5t-115 49.5 l-96 -97h-299l243 244q-34 54 -52.5 117t-18.5 132q0 95 23.5 179zM899 565q0 16 -2 31t-6 29l-347 -351q13 -4 27 -6t29 -2q57 0 111 23.5t95.5 64t67 95t25.5 116.5zM415 407l351 353q-14 5 -29.5 7.5t-31.5 2.5q-62 0 -116.5 -24.5t-95 -65.5t-64 -95.5t-23.5 -115.5 q0 -32 9 -62z" />
<glyph unicode="&#xf9;" horiz-adv-x="1356" d="M846 1036h477l-177 -762h191l-63 -274h-500l19 81q-31 -25 -65 -44q-43 -24 -94 -36.5t-112 -12.5q-102 0 -183.5 39t-114.5 101.5t-40.5 135.5t17.5 162l77 336h-167l63 274h488l-136 -585q-10 -43 -4 -77.5t25 -59t49.5 -37.5t69.5 -13q32 0 64 11t60.5 30.5t55.5 49.5 l94 407h-158zM680 1178l-293 286v25h326l196 -311h-229z" />
<glyph unicode="&#xfa;" horiz-adv-x="1356" d="M846 1036h477l-177 -762h191l-63 -274h-500l19 81q-31 -25 -65 -44q-43 -24 -94 -36.5t-112 -12.5q-102 0 -183.5 39t-114.5 101.5t-40.5 135.5t17.5 162l77 336h-167l63 274h488l-136 -585q-10 -43 -4 -77.5t25 -59t49.5 -37.5t69.5 -13q32 0 64 11t60.5 30.5t55.5 49.5 l94 407h-158zM780 1489h326v-25l-306 -286h-235z" />
<glyph unicode="&#xfb;" horiz-adv-x="1356" d="M846 1036h477l-177 -762h191l-63 -274h-500l19 81q-31 -25 -65 -44q-43 -24 -94 -36.5t-112 -12.5q-102 0 -183.5 39t-114.5 101.5t-40.5 135.5t17.5 162l77 336h-167l63 274h488l-136 -585q-10 -43 -4 -77.5t25 -59t49.5 -37.5t69.5 -13q32 0 64 11t60.5 30.5t55.5 49.5 l94 407h-158zM380 1178l357 325h239l197 -325h-248l-96 157l-172 -157h-277z" />
<glyph unicode="&#xfc;" horiz-adv-x="1356" d="M846 1036h477l-177 -762h191l-63 -274h-500l19 81q-31 -25 -65 -44q-43 -24 -94 -36.5t-112 -12.5q-102 0 -183.5 39t-114.5 101.5t-40.5 135.5t17.5 162l77 336h-167l63 274h488l-136 -585q-10 -43 -4 -77.5t25 -59t49.5 -37.5t69.5 -13q32 0 64 11t60.5 30.5t55.5 49.5 l94 407h-158zM347 1343q0 37 13.5 69.5t37.5 57t56.5 38.5t70.5 14q36 0 68 -14t56 -38.5t38 -57t14 -69.5t-14 -69.5t-38 -56.5t-56 -38t-68 -14q-38 0 -70.5 14t-56.5 38t-37.5 56.5t-13.5 69.5zM826 1343q0 37 14 69.5t38 57t56.5 38.5t70.5 14q36 0 68 -14t56 -38.5 t38 -57t14 -69.5t-14 -69.5t-38 -56.5t-56 -38t-68 -14q-38 0 -70.5 14t-56.5 38t-38 56.5t-14 69.5z" />
<glyph unicode="&#xfd;" horiz-adv-x="1126" d="M106 1036h512l-63 -274h-77l66 -393l246 393h-85l63 274h512l-63 -274h-81l-634 -959h125l-74 -274h-573l73 274h136l126 200l-167 759h-105zM756 1520h326v-25l-306 -286h-235z" />
<glyph unicode="&#xfe;" horiz-adv-x="1343" d="M283 1556h534l-137 -593q35 41 99.5 69.5t152.5 28.5q99 0 179 -35.5t136 -97.5t86.5 -145.5t30.5 -178.5q0 -137 -50.5 -251.5t-137.5 -197t-204.5 -128t-250.5 -45.5q-33 0 -69 5t-70 14t-63 22t-49 29l-57 -249h162l-63 -274h-676l64 274h173l341 1479h-195zM842 741 q-71 0 -135.5 -36t-107.5 -96l-52 -222q13 -27 35 -47t49.5 -33.5t58.5 -20.5t62 -7q54 0 102 21t83.5 57.5t56 86t20.5 105.5q0 43 -13 78.5t-36 60.5t-54.5 39t-68.5 14z" />
<glyph unicode="&#xff;" horiz-adv-x="1126" d="M106 1036h512l-63 -274h-77l66 -393l246 393h-85l63 274h512l-63 -274h-81l-634 -959h125l-74 -274h-573l73 274h136l126 200l-167 759h-105zM277 1372q0 37 13.5 69.5t37.5 57t56.5 38.5t70.5 14q36 0 68 -14t56 -38.5t38 -57t14 -69.5t-14 -69.5t-38 -56.5t-56 -38 t-68 -14q-38 0 -70.5 14t-56.5 38t-37.5 56.5t-13.5 69.5zM756 1372q0 37 14 69.5t38 57t56.5 38.5t70.5 14q36 0 68 -14t56 -38.5t38 -57t14 -69.5t-14 -69.5t-38 -56.5t-56 -38t-68 -14q-38 0 -70.5 14t-56.5 38t-38 56.5t-14 69.5z" />
<glyph unicode="&#x100;" horiz-adv-x="1479" d="M907 274h84l-16 209h-418l-111 -209h127l-63 -274h-612l63 274h128l689 1242h436l114 -1242h192l-64 -274h-612zM711 772h243l-30 402zM1301 1656h-688l43 215h688z" />
<glyph unicode="&#x101;" horiz-adv-x="1391" d="M786 79q-37 -39 -98 -66q-65 -29 -153 -29q-81 0 -159 29t-138.5 86.5t-98 142.5t-37.5 196q0 96 25 179.5t69 153t104.5 123.5t132 91t151 56.5t161.5 19.5q46 0 78.5 -6t74.5 -18t98 -52l12 51h340l-177 -762h191l-64 -274h-530zM823 372l44 55l50 216q-12 23 -31 44.5 t-47.5 37.5t-62 24.5t-67.5 8.5q-54 0 -103 -21.5t-85.5 -58t-58.5 -86.5t-22 -107q0 -48 15 -84t41 -60t60 -36t73 -12q33 0 67.5 8.5t66.5 26t60 44.5zM1080 1176h-688l43 215h688z" />
<glyph unicode="&#x102;" horiz-adv-x="1479" d="M907 274h84l-16 209h-418l-111 -209h127l-63 -274h-612l63 274h128l689 1242h436l114 -1242h192l-64 -274h-612zM711 772h243l-30 402zM998 1637q-95 0 -167 21.5t-125 63t-89.5 101.5t-60.5 138h252q20 -60 67.5 -91.5t122.5 -31.5q72 0 118 29t71 94h250 q-22 -77 -58 -137t-89.5 -101.5t-125.5 -63.5t-166 -22z" />
<glyph unicode="&#x103;" horiz-adv-x="1391" d="M786 79q-37 -39 -98 -66q-65 -29 -153 -29q-81 0 -159 29t-138.5 86.5t-98 142.5t-37.5 196q0 96 25 179.5t69 153t104.5 123.5t132 91t151 56.5t161.5 19.5q46 0 78.5 -6t74.5 -18t98 -52l12 51h340l-177 -762h191l-64 -274h-530zM823 372l44 55l50 216q-12 23 -31 44.5 t-47.5 37.5t-62 24.5t-67.5 8.5q-54 0 -103 -21.5t-85.5 -58t-58.5 -86.5t-22 -107q0 -48 15 -84t41 -60t60 -36t73 -12q33 0 67.5 8.5t66.5 26t60 44.5zM763 1157q-95 0 -167 21.5t-125 63t-89.5 101.5t-60.5 138h252q20 -60 67.5 -91.5t122.5 -31.5q72 0 118 29t71 94h250 q-22 -77 -58 -137t-89.5 -101.5t-125.5 -63.5t-166 -22z" />
<glyph unicode="&#x104;" horiz-adv-x="1479" d="M-39 274h127l690 1242h436l113 -1242h193l-64 -274h-194q-93 0 -164.5 -19.5t-119.5 -51t-73.5 -69.5t-25.5 -75q0 -39 24.5 -53.5t46.5 -14.5q39 0 65.5 6.5t47.5 16.5l49 -170q-22 -12 -73.5 -26.5t-104.5 -14.5q-62 0 -114 14.5t-92 41t-62.5 65.5t-22.5 90 q0 86 59.5 150.5t141.5 109.5l63 274h84l-16 209h-418l-111 -209h127l-63 -274h-612zM711 772h241l-28 402z" />
<glyph unicode="&#x105;" horiz-adv-x="1391" d="M1348 1036l-177 -762h191l-64 -274h-120q-58 0 -122.5 -18.5t-117.5 -49t-89 -69.5t-36 -80q0 -39 27.5 -53.5t50.5 -14.5q39 0 62.5 6.5t43.5 16.5l50 -170q-23 -12 -74 -26.5t-105 -14.5q-61 0 -113.5 14.5t-92 41t-62 65.5t-22.5 90q0 80 54 147.5t136 114.5l18 78 q-38 -41 -101.5 -67.5t-149.5 -26.5q-80 0 -158 29.5t-139.5 87t-98.5 142.5t-37 195q0 144 54.5 259.5t143.5 196.5t206 124t239 43q72 0 141.5 -21.5t108.5 -54.5l13 51h340zM629 293q63 0 128.5 31.5t108.5 101.5l49 217q-26 55 -83.5 85t-122.5 30q-54 0 -103 -21.5 t-86 -58.5t-58.5 -86t-21.5 -107q0 -96 55.5 -144t133.5 -48v0z" />
<glyph unicode="&#x106;" horiz-adv-x="1493" d="M1133.5 1165.5q-65.5 42.5 -162.5 42.5q-68 0 -132 -21.5t-120.5 -60t-103 -91.5t-80 -116t-52 -133.5t-18.5 -144.5q0 -75 21 -136.5t60.5 -106t95 -69t124.5 -24.5q55 0 103 15t89.5 41.5t75.5 62t62 76.5l317 -158q-114 -180 -286.5 -276.5t-399.5 -96.5 q-136 0 -250.5 46.5t-198 130.5t-130 201.5t-46.5 260.5q0 142 36 266.5t99.5 228.5t150 186t188 138.5t213 86.5t225.5 30q91 0 168 -19t141 -54t102.5 -73.5t61.5 -68.5h190l-63 -274h-389q-26 68 -91.5 110.5zM1056 1969h326v-25l-306 -286h-235z" />
<glyph unicode="&#x107;" horiz-adv-x="1171" d="M852 668q-16 42 -59 68t-93 26q-56 0 -105.5 -22.5t-86.5 -62t-58.5 -92t-21.5 -112.5q0 -45 14.5 -80.5t38.5 -61t56 -39t67 -13.5q83 0 138.5 38.5t91.5 100.5l272 -148q-32 -62 -84 -116t-121 -94t-152.5 -62.5t-177.5 -22.5q-101 0 -186.5 36.5t-148.5 99 t-98.5 146.5t-35.5 179q0 143 51.5 259.5t138.5 199t201.5 127.5t241.5 45q80 0 148 -23t123 -63q25 -18 47 -39h192l-63 -274h-330v0zM736 1489h326v-25l-306 -286h-235z" />
<glyph unicode="&#x10c;" horiz-adv-x="1493" d="M1133.5 1165.5q-65.5 42.5 -162.5 42.5q-68 0 -132 -21.5t-120.5 -60t-103 -91.5t-80 -116t-52 -133.5t-18.5 -144.5q0 -75 21 -136.5t60.5 -106t95 -69t124.5 -24.5q55 0 103 15t89.5 41.5t75.5 62t62 76.5l317 -158q-114 -180 -286.5 -276.5t-399.5 -96.5 q-136 0 -250.5 46.5t-198 130.5t-130 201.5t-46.5 260.5q0 142 36 266.5t99.5 228.5t150 186t188 138.5t213 86.5t225.5 30q91 0 168 -19t141 -54t102.5 -73.5t61.5 -68.5h190l-63 -274h-389q-26 68 -91.5 110.5zM1546 1982l-356 -325h-240l-196 325h248l96 -157l172 157 h276z" />
<glyph unicode="&#x10d;" horiz-adv-x="1171" d="M852 668q-16 42 -59 68t-93 26q-56 0 -105.5 -22.5t-86.5 -62t-58.5 -92t-21.5 -112.5q0 -45 14.5 -80.5t38.5 -61t56 -39t67 -13.5q83 0 138.5 38.5t91.5 100.5l272 -148q-32 -62 -84 -116t-121 -94t-152.5 -62.5t-177.5 -22.5q-101 0 -186.5 36.5t-148.5 99 t-98.5 146.5t-35.5 179q0 143 51.5 259.5t138.5 199t201.5 127.5t241.5 45q80 0 148 -23t123 -63q25 -18 47 -39h192l-63 -274h-330v0zM1179 1503l-356 -325h-240l-196 325h248l96 -157l172 157h276z" />
<glyph unicode="&#x10e;" horiz-adv-x="1585" d="M412 1516h608q137 0 252 -42t198.5 -121.5t130 -195.5t46.5 -264q0 -125 -29 -239.5t-85 -213.5t-138 -180t-188 -139t-235.5 -89.5t-279.5 -31.5h-631l64 274h155l224 967h-156zM855 1241l-225 -967h107q73 0 141.5 21.5t129 60t111 92.5t87 119.5t56.5 140.5t20 156 q0 105 -26.5 177t-71 116.5t-102.5 64t-121 19.5h-106zM1206 1901l-356 -325h-240l-196 325h248l96 -157l172 157h276z" />
<glyph unicode="&#x10f;" horiz-adv-x="1638" d="M920 1556h546l-295 -1282h191l-64 -274h-530l18 78q-16 -18 -38 -34q-25 -18 -58 -32t-72 -22t-83 -8q-102 0 -182.5 37t-136 99.5t-85 145t-29.5 174.5q0 96 25 179.5t69 153t104.5 123.5t132 91t151 56.5t161.5 19.5q35 0 72 -5.5t71.5 -15.5t63.5 -24q26 -12 43 -27 l68 293h-207zM765 343q61 33 102 89l52 226q-9 18 -23 34q-22 24 -51 40t-62.5 24t-67.5 8q-54 0 -101.5 -20.5t-83.5 -56.5t-56.5 -85t-20.5 -106q0 -43 13.5 -78t36.5 -59.5t55 -38t69 -13.5q72 0 138 36zM1737 1059h-219l71 518l289 16z" />
<glyph unicode="&#x110;" horiz-adv-x="1585" d="M88 640l64 274h195l76 327h-156l64 275h608q137 0 252 -42t198.5 -121.5t130 -195.5t46.5 -264q0 -125 -29 -239.5t-85 -213.5t-138 -180t-188 -139t-235.5 -89.5t-279.5 -31.5h-631l64 274h155l85 366h-196zM774 1241l-76 -327h252l-64 -274h-252l-85 -366h107 q73 0 141.5 21.5t129 60t111 92.5t87 119.5t56.5 140.5t20 156q0 105 -26.5 177t-71 116.5t-102.5 64t-121 19.5h-106z" />
<glyph unicode="&#x111;" horiz-adv-x="1423" d="M1360 1100q-47 -207 -94 -413t-95 -413h191q-16 -69 -31.5 -136.5t-32.5 -137.5h-530q4 20 9 38.5t9 39.5q-34 -41 -99.5 -68.5t-151.5 -27.5q-103 0 -183 36.5t-135 99t-85 145.5t-30 175q0 144 54.5 259.5t143.5 196.5t206 124t239 43q33 0 69 -5t70 -14.5t62.5 -22.5 t48.5 -30q6 29 13.5 55.5t13.5 55.5h-154q17 69 32 137t32 137h151q4 23 9.5 45.5t11.5 44.5v0q4 23 10 46.5t12 45.5h340q-10 -47 -21 -91t-22 -91h136q-17 -69 -32.5 -137t-31.5 -137h-135zM627 307q69 0 133.5 33t107.5 92q13 55 26 111.5t26 111.5q-27 54 -85.5 81.5 t-119.5 27.5q-53 0 -101.5 -20.5t-84 -56.5t-56 -85t-20.5 -106q0 -86 50 -137.5t124 -51.5v0z" />
<glyph unicode="&#x112;" horiz-adv-x="1505" d="M393 1516h1297l-119 -517h-350l55 242h-421l-76 -326h337l-67 -290h-337l-82 -351h396l61 269h351l-125 -543h-1252l64 274h155l224 967h-174zM1407 1656h-688l43 215h688z" />
<glyph unicode="&#x113;" horiz-adv-x="1178" d="M428 440q2 -24 8 -46q10 -38 33.5 -66.5t61.5 -45t92 -16.5q40 0 73.5 8t63.5 22.5t57.5 34.5t54.5 44l220 -193q-101 -108 -233 -158.5t-284 -50.5q-98 0 -184 32t-150 91.5t-101.5 144.5t-37.5 191q0 143 51.5 260t138.5 200.5t201.5 129t241.5 45.5q101 0 186 -35.5 t146.5 -95t96 -137.5t34.5 -162q0 -20 -2 -45t-6 -51.5t-10 -52.5t-13 -48h-739zM471 680q-4 -7 -7 -14h433q-2 27 -17.5 52.5t-41 45.5t-60 32.5t-76.5 12.5q-50 0 -95.5 -15t-80 -43.5t-55.5 -70.5zM1067 1176h-688l43 215h688z" />
<glyph unicode="&#x116;" horiz-adv-x="1505" d="M393 1516h1297l-119 -517h-350l55 242h-421l-76 -326h337l-67 -290h-337l-82 -351h396l61 269h351l-125 -543h-1252l64 274h155l224 967h-174zM896 1850q0 37 13.5 69.5t37.5 56.5t56.5 38t70.5 14q36 0 68 -14t56 -38t38 -56.5t14 -69.5t-14 -69.5t-38 -56.5t-56 -38 t-68 -14q-38 0 -70.5 14t-56.5 38t-37.5 56.5t-13.5 69.5z" />
<glyph unicode="&#x117;" horiz-adv-x="1178" d="M428 440q2 -24 8 -46q10 -38 33.5 -66.5t61.5 -45t92 -16.5q40 0 73.5 8t63.5 22.5t57.5 34.5t54.5 44l220 -193q-101 -108 -233 -158.5t-284 -50.5q-98 0 -184 32t-150 91.5t-101.5 144.5t-37.5 191q0 143 51.5 260t138.5 200.5t201.5 129t241.5 45.5q101 0 186 -35.5 t146.5 -95t96 -137.5t34.5 -162q0 -20 -2 -45t-6 -51.5t-10 -52.5t-13 -48h-739zM471 680q-4 -7 -7 -14h433q-2 27 -17.5 52.5t-41 45.5t-60 32.5t-76.5 12.5q-50 0 -95.5 -15t-80 -43.5t-55.5 -70.5zM557 1370q0 37 13.5 69.5t37.5 56.5t56.5 38t70.5 14q36 0 68 -14 t56 -38t38 -56.5t14 -69.5t-14 -69.5t-38 -56.5t-56 -38t-68 -14q-38 0 -70.5 14t-56.5 38t-37.5 56.5t-13.5 69.5z" />
<glyph unicode="&#x118;" horiz-adv-x="1505" d="M393 1516h1297l-119 -517h-350l55 242h-422l-76 -326h338l-67 -290h-338l-80 -351h395l61 269h351l-125 -543h-2q-84 0 -147.5 -20.5t-105.5 -53t-63.5 -70.5t-21.5 -71q0 -39 24.5 -53.5t46.5 -14.5q39 0 66 6.5t47 16.5l49 -170q-22 -12 -73.5 -26.5t-104.5 -14.5 q-61 0 -113.5 14.5t-92.5 41t-62.5 65.5t-22.5 90q0 80 55.5 146.5t133.5 113.5h-865l64 274h156l223 967h-174z" />
<glyph unicode="&#x119;" horiz-adv-x="1178" d="M324 -260q0 78 36.5 140.5t92.5 107.5q-76 16 -139.5 54t-110.5 95.5t-74 131t-27 163.5q0 143 51.5 260t138.5 200t201.5 129t241.5 46q101 0 186 -36t146 -95t96 -137t35 -162q0 -41 -8 -97.5t-23 -99.5h-739q2 -24 8 -45.5t17 -42.5q10 -18 26.5 -34.5t37 -27.5 t47 -17.5t59.5 -6.5q79 0 136.5 31t112.5 78q56 -47 110 -96.5t110 -96.5q-111 -119 -267 -170q-51 -20 -99 -45.5t-85 -54.5t-59.5 -61.5t-22.5 -65.5q0 -39 24.5 -53.5t47.5 -14.5q39 0 65.5 6.5t46.5 16.5q13 -43 25 -85t25 -85q-23 -12 -74 -26.5t-105 -14.5 q-61 0 -113 14.5t-92 41t-62.5 65.5t-22.5 90v0zM702 809q-79 0 -144.5 -37t-94.5 -106h434q-2 26 -17.5 51.5t-41 46t-60.5 33t-76 12.5v0z" />
<glyph unicode="&#x11a;" horiz-adv-x="1505" d="M393 1516h1297l-119 -517h-350l55 242h-421l-76 -326h337l-67 -290h-337l-82 -351h396l61 269h351l-125 -543h-1252l64 274h155l224 967h-174zM1564 1983l-356 -325h-240l-196 325h248l96 -157l172 157h276z" />
<glyph unicode="&#x11b;" horiz-adv-x="1178" d="M428 440q2 -24 8 -46q10 -38 33.5 -66.5t61.5 -45t92 -16.5q40 0 73.5 8t63.5 22.5t57.5 34.5t54.5 44l220 -193q-101 -108 -233 -158.5t-284 -50.5q-98 0 -184 32t-150 91.5t-101.5 144.5t-37.5 191q0 143 51.5 260t138.5 200.5t201.5 129t241.5 45.5q101 0 186 -35.5 t146.5 -95t96 -137.5t34.5 -162q0 -20 -2 -45t-6 -51.5t-10 -52.5t-13 -48h-739zM471 680q-4 -7 -7 -14h433q-2 27 -17.5 52.5t-41 45.5t-60 32.5t-76.5 12.5q-50 0 -95.5 -15t-80 -43.5t-55.5 -70.5zM1224 1503l-356 -325h-240l-196 325h248l96 -157l172 157h276z" />
<glyph unicode="&#x11e;" horiz-adv-x="1610" d="M1133 0l53 228q-40 -64 -103.5 -124.5t-156 -97.5t-189.5 -37q-131 0 -243 46.5t-194.5 130.5t-129.5 201.5t-47 260.5q0 142 36 266.5t99.5 228.5t150 186t187.5 138.5t212.5 86.5t225.5 30q78 0 152 -16.5t138.5 -46t115 -69t84.5 -83.5h178l-64 -274h-389 q-13 31 -36.5 60t-56.5 51t-74.5 35t-90.5 13q-102 0 -194 -48t-161 -128t-110 -183t-41 -214q0 -75 20.5 -138t59 -109.5t94 -72.5t125.5 -26q65 0 127.5 19.5t115 54t89 78t55.5 88.5h-319l63 274h705l-188 -809h-299zM999 1636q-95 0 -167 21.5t-125 63t-89.5 101.5 t-60.5 138h252q20 -60 67.5 -91.5t122.5 -31.5q72 0 118 29t71 94h250q-22 -77 -58 -137t-89.5 -101.5t-125.5 -63.5t-166 -22z" />
<glyph unicode="&#x11f;" horiz-adv-x="1303" d="M777 79q-37 -32 -101 -55q-67 -24 -150 -24q-79 0 -156.5 28t-138.5 83t-99 137t-38 190q0 134 49.5 248t136 197.5t204 130.5t253.5 47q39 0 77.5 -6.5t72.5 -17t100 -48.5l17 72h339l-235 -1018q-35 -153 -97.5 -252.5t-147 -157.5t-189.5 -81t-225 -23 q-159 0 -275.5 36.5t-193.5 96.5l176 264q60 -43 138 -71.5t169 -28.5q51 0 99 9t89 34t72 68.5t47 111.5zM817 378q22 21 40 49l54 232q-35 54 -68 71.5t-66 25.5t-70 8q-54 0 -103 -21.5t-85.5 -58t-58.5 -86t-22 -106.5q0 -48 15 -84t41 -60t60 -36.5t73 -12.5 q33 0 66.5 8.5t65 26t58.5 44.5zM833 1157q-95 0 -167 21.5t-125 63t-89.5 101.5t-60.5 138h252q20 -60 67.5 -91.5t122.5 -31.5q72 0 118 29t71 94h250q-22 -77 -58 -137t-89.5 -101.5t-125.5 -63.5t-166 -22z" />
<glyph unicode="&#x122;" horiz-adv-x="1610" d="M1133 0l53 228q-40 -64 -103.5 -124.5t-156 -97.5t-189.5 -37q-131 0 -243 46.5t-194.5 130.5t-129.5 201.5t-47 260.5q0 142 36 266.5t99.5 228.5t150 186t187.5 138.5t212.5 86.5t225.5 30q78 0 152 -16.5t138.5 -46t115 -69t84.5 -83.5h178l-64 -274h-389 q-13 31 -36.5 60t-56.5 51t-74.5 35t-90.5 13q-102 0 -194 -48t-161 -128t-110 -183t-41 -214q0 -75 20.5 -138t59 -109.5t94 -72.5t125.5 -26q65 0 127.5 19.5t115 54t89 78t55.5 88.5h-319l63 274h705l-188 -809h-299zM700 -29l289 -104l-197 -338l-206 72z" />
<glyph unicode="&#x123;" horiz-adv-x="1303" d="M777 79q-37 -32 -101 -55q-67 -24 -150 -24q-79 0 -156.5 28t-138.5 83t-99 137t-38 190q0 134 49.5 248t136 197.5t204 130.5t253.5 47q39 0 77.5 -6.5t72.5 -17t100 -48.5l17 72h339l-235 -1018q-35 -153 -97.5 -252.5t-147 -157.5t-189.5 -81t-225 -23 q-159 0 -275.5 36.5t-193.5 96.5l176 264q60 -43 138 -71.5t169 -28.5q51 0 99 9t89 34t72 68.5t47 111.5zM817 378q22 21 40 49l54 232q-35 54 -68 71.5t-66 25.5t-70 8q-54 0 -103 -21.5t-85.5 -58t-58.5 -86t-22 -106.5q0 -48 15 -84t41 -60t60 -36.5t73 -12.5 q33 0 66.5 8.5t65 26t58.5 44.5zM881 1112l-289 105l197 337l206 -71z" />
<glyph unicode="&#x12a;" horiz-adv-x="926" d="M393 1516h676l-63 -275h-151l-225 -967h171l-64 -274h-676l64 274h155l224 967h-174zM1085 1656h-688l43 215h688z" />
<glyph unicode="&#x12b;" horiz-adv-x="860" d="M141 1036h564l-177 -762h240l-63 -274h-582l176 762h-221zM852 1176h-688l43 215h688z" />
<glyph unicode="&#x12e;" horiz-adv-x="926" d="M393 1516h676l-63 -275h-152l-223 -967h170l-64 -274h-315q-51 -2 -102.5 -23.5t-93.5 -53.5t-67.5 -68.5t-25.5 -69.5q0 -39 24.5 -53.5t47.5 -14.5q39 0 65.5 6.5t46.5 16.5l50 -170q-23 -12 -74 -26.5t-105 -14.5q-61 0 -113 14.5t-92 41t-62.5 65.5t-22.5 90 q0 86 54 150.5t130 109.5l63 274h136l223 967h-174z" />
<glyph unicode="&#x12f;" horiz-adv-x="778" d="M207 1036h532l-176 -762h191l-64 -274h-135q-57 -2 -118.5 -20.5t-114 -49t-86 -69.5t-33.5 -78t27.5 -53.5t50.5 -14.5q38 0 62 6.5t44 16.5l49 -170q-22 -12 -73.5 -26.5t-104.5 -14.5q-61 0 -113.5 14.5t-92.5 41t-62.5 65.5t-22.5 90q0 80 54.5 147.5t136.5 114.5 l176 762h-191zM434 1370q0 74 51.5 126t126.5 52q37 0 69 -14t55.5 -37.5t37.5 -56.5t14 -70t-14 -69.5t-37.5 -56t-55.5 -38t-69 -14.5q-75 0 -126.5 52t-51.5 126v0z" />
<glyph unicode="&#x130;" horiz-adv-x="926" d="M393 1516h676l-63 -275h-151l-225 -967h171l-64 -274h-676l64 274h155l224 967h-174zM532 1850q0 37 13.5 69.5t37.5 56.5t56.5 38t70.5 14q36 0 68 -14t56 -38t38 -56.5t14 -69.5t-14 -69.5t-38 -56.5t-56 -38t-68 -14q-38 0 -70.5 14t-56.5 38t-37.5 56.5t-13.5 69.5z " />
<glyph unicode="&#x131;" horiz-adv-x="860" d="M141 1036h564l-177 -762h240l-63 -274h-582l176 762h-221z" />
<glyph unicode="&#x136;" horiz-adv-x="1745" d="M1370 1243l64 273h618l-63 -275h-134l-642 -477l350 -490h147l-61 -274h-564l64 274l-377 519zM393 1516h676l-63 -275h-151l-225 -967h171l-64 -274h-676l64 274h155l224 967h-174zM784 -29l289 -104l-197 -338l-206 72z" />
<glyph unicode="&#x137;" horiz-adv-x="1311" d="M262 1556h539l-202 -874h114l159 169l43 185h457l-63 -274h-140l-235 -223l135 -265h156l-64 -274h-301l-196 406h-129l-93 -406h-340l296 1282h-199zM568 -29l289 -104l-197 -338l-206 72z" />
<glyph unicode="&#x139;" horiz-adv-x="1317" d="M393 1516h676l-63 -275h-153l-225 -967h287q36 0 61.5 23.5t35.5 58.5l49 201h338l-127 -557h-1211l64 274h153l224 967h-172zM733 1886h326v-25l-306 -286h-235z" />
<glyph unicode="&#x13a;" horiz-adv-x="729" d="M262 1556h539l-296 -1282h189l-63 -274h-529l296 1282h-199zM694 1960h326v-25l-306 -286h-235z" />
<glyph unicode="&#x13b;" horiz-adv-x="1317" d="M393 1516h676l-63 -275h-153l-225 -967h287q36 0 61.5 23.5t35.5 58.5l49 201h338l-127 -557h-1211l64 274h153l224 967h-172zM571 -29l289 -104l-197 -338l-206 72z" />
<glyph unicode="&#x13c;" horiz-adv-x="729" d="M262 1556h539l-296 -1282h189l-63 -274h-529l296 1282h-199zM277 -29l289 -104l-197 -338l-206 72z" />
<glyph unicode="&#x13d;" horiz-adv-x="1330" d="M393 1516h676l-63 -275h-153l-225 -967h287q36 0 61.5 23.5t35.5 58.5l49 201h338l-127 -557h-1211l64 274h153l224 967h-172zM1372 999h-219l71 518l289 16z" />
<glyph unicode="&#x13e;" horiz-adv-x="967" d="M262 1556h539l-296 -1282h189l-63 -274h-529l296 1282h-199zM1066 1059h-219l71 518l289 16z" />
<glyph unicode="&#x141;" horiz-adv-x="1317" d="M393 1516h676l-63 -275h-154l-43 -190l434 204l-78 -350l-438 -207l-98 -424h286q35 0 60.5 24t36.5 58l49 201h338l-127 -557h-1211l64 274h154l55 240l-254 -119l78 350l258 121l86 375h-172z" />
<glyph unicode="&#x142;" horiz-adv-x="729" d="M262 1556h539l-115 -495l313 147l-77 -350l-316 -149l-100 -435h188l-63 -274h-529l121 528l-282 -133l77 350l287 136l92 401h-198z" />
<glyph unicode="&#x143;" horiz-adv-x="1786" d="M1358 1516h612l-63 -275h-130l-286 -1241h-344l-386 935l-153 -661h129l-63 -274h-613l64 274h135l223 967h-164l64 275h516l374 -936l154 661h-133zM1216 1969h326v-25l-306 -286h-235z" />
<glyph unicode="&#x144;" horiz-adv-x="1421" d="M207 1036h526l-15 -74l-1 -10q45 34 93 58t99 37.5t105 13.5q87 0 152 -29t104 -83t49.5 -132.5t-12.5 -177.5l-85 -365h189l-63 -274h-531l129 557q9 38 5.5 69.5t-16 54t-34 34.5t-49.5 12q-51 0 -126 -39q-39 -20 -81 -52l-147 -636h-351l176 762h-180zM997 1489h326 v-25l-306 -286h-235z" />
<glyph unicode="&#x145;" horiz-adv-x="1786" d="M1358 1516h612l-63 -275h-130l-286 -1241h-344l-386 935l-153 -661h129l-63 -274h-613l64 274h135l223 967h-164l64 275h516l374 -936l154 661h-133zM721 -29l289 -104l-197 -338l-206 72z" />
<glyph unicode="&#x146;" horiz-adv-x="1421" d="M207 1036h526l-15 -74l-1 -10q45 34 93 58t99 37.5t105 13.5q87 0 152 -29t104 -83t49.5 -132.5t-12.5 -177.5l-85 -365h189l-63 -274h-531l129 557q9 38 5.5 69.5t-16 54t-34 34.5t-49.5 12q-51 0 -126 -39q-39 -20 -81 -52l-147 -636h-351l176 762h-180zM530 -29 l289 -104l-197 -338l-206 72z" />
<glyph unicode="&#x147;" horiz-adv-x="1786" d="M1358 1516h612l-63 -275h-130l-286 -1241h-344l-386 935l-153 -661h129l-63 -274h-613l64 274h135l223 967h-164l64 275h516l374 -936l154 661h-133zM1640 1983l-356 -325h-240l-196 325h248l96 -157l172 157h276z" />
<glyph unicode="&#x148;" horiz-adv-x="1421" d="M207 1036h526l-15 -74l-1 -10q45 34 93 58t99 37.5t105 13.5q87 0 152 -29t104 -83t49.5 -132.5t-12.5 -177.5l-85 -365h189l-63 -274h-531l129 557q9 38 5.5 69.5t-16 54t-34 34.5t-49.5 12q-51 0 -126 -39q-39 -20 -81 -52l-147 -636h-351l176 762h-180zM1284 1503 l-356 -325h-240l-196 325h248l96 -157l172 157h276z" />
<glyph unicode="&#x149;" horiz-adv-x="1421" d="M207 1036h526l-15 -74l-1 -10q45 34 93 58t99 37.5t105 13.5q87 0 152 -29t104 -83t49.5 -132.5t-12.5 -177.5l-85 -365h189l-63 -274h-531l129 557q9 38 5.5 69.5t-16 54t-34 34.5t-49.5 12q-51 0 -126 -39q-39 -20 -81 -52l-147 -636h-351l176 762h-180zM624 1493 l288 -104l-196 -338l-207 71z" />
<glyph unicode="&#x14c;" horiz-adv-x="1597" d="M748 -31q-136 0 -250.5 46.5t-198 130.5t-130 201.5t-46.5 260.5q0 142 36 266.5t99.5 228.5t150 186t187.5 138.5t212.5 86.5t225.5 30q142 0 257.5 -47t197 -131.5t126 -202.5t44.5 -260q0 -139 -33.5 -262t-94.5 -227t-145 -186.5t-185.5 -140t-216 -88t-236.5 -30.5z M786 305q67 0 131 21.5t120 59.5t103 91t80.5 116t52.5 134t19 145q0 75 -20.5 136.5t-59.5 106t-95 69t-126 24.5q-102 0 -194 -47t-161 -126t-110 -181t-41 -213q0 -75 21 -136.5t60.5 -106t95 -69t124.5 -24.5zM1400 1696h-688l43 215h688z" />
<glyph unicode="&#x14d;" d="M102 436q0 143 51.5 259.5t138.5 199t201.5 127.5t241.5 45q98 0 183.5 -36t148.5 -98.5t99 -147t36 -181.5q0 -137 -48.5 -252t-133 -199t-200 -131t-249.5 -47q-101 0 -186.5 36.5t-148.5 99t-98.5 146.5t-35.5 179zM428 473q0 -44 13 -80.5t36.5 -63t56 -41 t70.5 -14.5q52 0 101 22.5t87.5 62t61.5 93t23 115.5q0 51 -14.5 88.5t-38.5 62.5t-56 37.5t-68 12.5q-57 0 -106.5 -23.5t-86 -63.5t-58 -93.5t-21.5 -114.5zM1067 1176h-688l43 215h688z" />
<glyph unicode="&#x150;" horiz-adv-x="1597" d="M748 -31q-136 0 -250.5 46.5t-198 130.5t-130 201.5t-46.5 260.5q0 142 36 266.5t99.5 228.5t150 186t187.5 138.5t212.5 86.5t225.5 30q142 0 257.5 -47t197 -131.5t126 -202.5t44.5 -260q0 -139 -33.5 -262t-94.5 -227t-145 -186.5t-185.5 -140t-216 -88t-236.5 -30.5z M786 305q67 0 131 21.5t120 59.5t103 91t80.5 116t52.5 134t19 145q0 75 -20.5 136.5t-59.5 106t-95 69t-126 24.5q-102 0 -194 -47t-161 -126t-110 -181t-41 -213q0 -75 21 -136.5t60.5 -106t95 -69t124.5 -24.5zM1636 2042l-281 -320h-188l208 320h261zM1238 2042 l-256 -320h-186l184 320h258z" />
<glyph unicode="&#x151;" d="M102 436q0 143 51.5 259.5t138.5 199t201.5 127.5t241.5 45q98 0 183.5 -36t148.5 -98.5t99 -147t36 -181.5q0 -137 -48.5 -252t-133 -199t-200 -131t-249.5 -47q-101 0 -186.5 36.5t-148.5 99t-98.5 146.5t-35.5 179zM428 473q0 -44 13 -80.5t36.5 -63t56 -41 t70.5 -14.5q52 0 101 22.5t87.5 62t61.5 93t23 115.5q0 51 -14.5 88.5t-38.5 62.5t-56 37.5t-68 12.5q-57 0 -106.5 -23.5t-86 -63.5t-58 -93.5t-21.5 -114.5zM1328 1522l-281 -320h-188l208 320h261zM930 1522l-256 -320h-186l184 320h258z" />
<glyph unicode="&#x152;" horiz-adv-x="2109" d="M737 0q-141 0 -254.5 51t-193.5 137t-123 202t-43 245q0 182 71.5 342t195.5 279.5t292 189.5t360 70h1242l-119 -517h-350l55 240h-410l-76 -324h306l-72 -290h-301l-80 -351h383l61 269h353l-125 -543h-1172zM481 670q0 -80 21.5 -152t59.5 -126t93.5 -86t122.5 -32 h127l223 967h-90q-102 0 -201.5 -44t-178 -122t-128 -182.5t-49.5 -222.5v0z" />
<glyph unicode="&#x153;" horiz-adv-x="1950" d="M102 436q0 144 51.5 259.5t138.5 198.5t201.5 128t241.5 45q107 0 196 -42t154 -114q86 76 193.5 116t228.5 40q101 0 186 -36t146.5 -95t96 -137t34.5 -162q0 -41 -8 -97.5t-23 -99.5h-591v0v0h-148q2 -37 14.5 -68.5t37 -55t59.5 -37t84 -13.5q80 0 137 31t113 78 q55 -47 109 -96.5t110 -96.5q-101 -108 -233 -158.5t-283 -50.5q-109 0 -202 39t-159 111q-82 -72 -187.5 -110t-228.5 -38q-100 0 -186 36t-148.5 99.5t-98.5 146.5t-36 179v0zM428 473q0 -88 49 -143.5t127 -55.5q51 0 100.5 22.5t88 61.5t61.5 93.5t23 115.5 q0 51 -14.5 89t-39 62.5t-56.5 37t-67 12.5q-57 0 -106 -23.5t-86 -63.5t-58.5 -93t-21.5 -115v0zM1475 809q-80 0 -145.5 -37t-94.5 -106h434q-2 26 -17.5 51.5t-41 46t-60 33t-75.5 12.5v0z" />
<glyph unicode="&#x154;" horiz-adv-x="1483" d="M373 1516h807q100 0 173 -34t120 -88.5t69.5 -124t22.5 -141.5q0 -98 -28 -175t-87 -137t-116 -88t-81 -39q10 -9 27 -29.5t31 -64t16 -103.5l6 -218h144l-64 -274h-450l24 360q4 64 -4.5 110.5t-33 76t-65.5 43.5t-102 14h-96l-77 -330h128l-63 -274h-613l64 274h134 l225 967h-175zM834 1241l-86 -367h190q62 0 112.5 12.5t86.5 38.5t55.5 66t19.5 94q0 71 -41.5 113.5t-138.5 42.5h-198zM1057 1968h326v-25l-306 -286h-235z" />
<glyph unicode="&#x155;" horiz-adv-x="1145" d="M1153 633h-326l25 104q-34 0 -62.5 -7t-55 -21t-51.5 -35q-17 -14 -34 -31l-86 -369h217l-63 -274h-559l176 762h-191l64 274h530l-20 -90q41 37 98 62q63 28 148 28h284zM891 1489h326v-25l-306 -286h-235z" />
<glyph unicode="&#x156;" horiz-adv-x="1483" d="M373 1516h807q100 0 173 -34t120 -88.5t69.5 -124t22.5 -141.5q0 -98 -28 -175t-87 -137t-116 -88t-81 -39q10 -9 27 -29.5t31 -64t16 -103.5l6 -218h144l-64 -274h-450l24 360q4 64 -4.5 110.5t-33 76t-65.5 43.5t-102 14h-96l-77 -330h128l-63 -274h-613l64 274h134 l225 967h-175zM834 1241l-86 -367h190q62 0 112.5 12.5t86.5 38.5t55.5 66t19.5 94q0 71 -41.5 113.5t-138.5 42.5h-198zM653 -29l289 -104l-197 -338l-206 72z" />
<glyph unicode="&#x157;" horiz-adv-x="1145" d="M1153 633h-326l25 104q-34 0 -62.5 -7t-55 -21t-51.5 -35q-17 -14 -34 -31l-86 -369h217l-63 -274h-559l176 762h-191l64 274h530l-20 -90q41 37 98 62q63 28 148 28h284zM299 -29l289 -104l-197 -338l-206 72z" />
<glyph unicode="&#x158;" horiz-adv-x="1483" d="M373 1516h807q100 0 173 -34t120 -88.5t69.5 -124t22.5 -141.5q0 -98 -28 -175t-87 -137t-116 -88t-81 -39q10 -9 27 -29.5t31 -64t16 -103.5l6 -218h144l-64 -274h-450l24 360q4 64 -4.5 110.5t-33 76t-65.5 43.5t-102 14h-96l-77 -330h128l-63 -274h-613l64 274h134 l225 967h-175zM834 1241l-86 -367h190q62 0 112.5 12.5t86.5 38.5t55.5 66t19.5 94q0 71 -41.5 113.5t-138.5 42.5h-198zM1480 1982l-356 -325h-240l-196 325h248l96 -157l172 157h276z" />
<glyph unicode="&#x159;" horiz-adv-x="1145" d="M1153 633h-326l25 104q-34 0 -62.5 -7t-55 -21t-51.5 -35q-17 -14 -34 -31l-86 -369h217l-63 -274h-559l176 762h-191l64 274h530l-20 -90q41 37 98 62q63 28 148 28h284zM1264 1503l-356 -325h-240l-196 325h248l96 -157l172 157h276z" />
<glyph unicode="&#x15a;" horiz-adv-x="1268" d="M80 532h364q-27 -101 -19 -143t33.5 -70t69 -43.5t105.5 -15.5q56 0 100.5 15t76 41.5t48 63t16.5 79.5q0 33 -14 57t-37.5 41.5t-54.5 30.5t-66 24l-172 60q-60 20 -109.5 55.5t-85 83.5t-55.5 108.5t-20 129.5q0 123 46 215.5t128.5 154t197 92.5t251.5 31 q99 0 180 -23t139.5 -61.5t89 -86t37.5 -95.5h115l-60 -256h-362q21 93 12 129t-35 62t-65.5 39.5t-87.5 13.5q-49 0 -93 -9.5t-77 -30t-52.5 -52.5t-19.5 -76q0 -39 16.5 -63.5t53 -43t108.5 -45.5l207 -76q128 -46 187 -139t59 -227q0 -124 -48.5 -221.5t-134.5 -165.5 t-205.5 -104t-260.5 -36q-105 0 -191.5 26t-146.5 73.5t-85 101.5t-31 100h-112zM906 1968h326v-25l-306 -286h-235z" />
<glyph unicode="&#x15b;" horiz-adv-x="1018" d="M722 792q-41 21 -106 21q-27 0 -51.5 -4.5t-42.5 -14t-28.5 -24t-10.5 -33.5q0 -15 12.5 -31t47.5 -24l164 -35q77 -17 131 -48t88 -71t49.5 -85.5t15.5 -90.5q0 -103 -42 -175.5t-110.5 -118.5t-154.5 -67.5t-174 -21.5q-147 0 -234 40q-48 23 -80 57h-165l63 274h299 q-7 -43 -1.5 -62.5t22.5 -35t43 -23.5t59 -8q69 0 109.5 25t40.5 67q0 25 -18 43t-66 31l-131 33q-71 18 -124.5 50.5t-89.5 74.5t-54.5 91.5t-18.5 100.5q0 84 37.5 148t101.5 106.5t147 64t175 21.5q66 0 121.5 -11.5t98.5 -31.5q25 -11 45 -23h210l-64 -274h-270 q-5 46 -44 65zM686 1489h326v-25l-306 -286h-235z" />
<glyph unicode="&#x15e;" horiz-adv-x="1268" d="M80 532h364q-27 -101 -19 -143t33.5 -70t69 -43.5t105.5 -15.5q56 0 100.5 15t76 41.5t48 63t16.5 79.5q0 33 -14 57t-37.5 41.5t-54.5 30.5t-66 24l-172 60q-60 20 -109.5 55.5t-85 83.5t-55.5 108.5t-20 129.5q0 123 46 215.5t128.5 154t197 92.5t251.5 31 q99 0 180 -23t139.5 -61.5t89 -86t37.5 -95.5h115l-60 -256h-362q21 93 12 129t-35 62t-65.5 39.5t-87.5 13.5q-49 0 -93 -9.5t-77 -30t-52.5 -52.5t-19.5 -76q0 -39 16.5 -63.5t53 -43t108.5 -45.5l207 -76q128 -46 187 -139t59 -227q0 -124 -48.5 -221.5t-134.5 -165.5 t-205.5 -104t-260.5 -36q-105 0 -191.5 26t-146.5 73.5t-85 101.5t-31 100h-112zM258 -289q52 12 90.5 32.5t66.5 50t47 69t32 90.5l264 -92q-29 -69 -72 -123.5t-98.5 -93.5t-121 -63.5t-138.5 -33.5z" />
<glyph unicode="&#x15f;" horiz-adv-x="1018" d="M722 792q-41 21 -106 21q-27 0 -51.5 -4.5t-42.5 -14t-28.5 -24t-10.5 -33.5q0 -15 12.5 -31t47.5 -24l164 -35q77 -17 131 -48t88 -71t49.5 -85.5t15.5 -90.5q0 -103 -42 -175.5t-110.5 -118.5t-154.5 -67.5t-174 -21.5q-147 0 -234 40q-48 23 -80 57h-165l63 274h299 q-7 -43 -1.5 -62.5t22.5 -35t43 -23.5t59 -8q69 0 109.5 25t40.5 67q0 25 -18 43t-66 31l-131 33q-71 18 -124.5 50.5t-89.5 74.5t-54.5 91.5t-18.5 100.5q0 84 37.5 148t101.5 106.5t147 64t175 21.5q66 0 121.5 -11.5t98.5 -31.5q25 -11 45 -23h210l-64 -274h-270 q-5 46 -44 65zM167 -289q52 12 90.5 32.5t66.5 50t47 69t32 90.5l264 -92q-29 -69 -72 -123.5t-98.5 -93.5t-121 -63.5t-138.5 -33.5z" />
<glyph unicode="&#x160;" horiz-adv-x="1268" d="M80 532h364q-27 -101 -19 -143t33.5 -70t69 -43.5t105.5 -15.5q56 0 100.5 15t76 41.5t48 63t16.5 79.5q0 33 -14 57t-37.5 41.5t-54.5 30.5t-66 24l-172 60q-60 20 -109.5 55.5t-85 83.5t-55.5 108.5t-20 129.5q0 123 46 215.5t128.5 154t197 92.5t251.5 31 q99 0 180 -23t139.5 -61.5t89 -86t37.5 -95.5h115l-60 -256h-362q21 93 12 129t-35 62t-65.5 39.5t-87.5 13.5q-49 0 -93 -9.5t-77 -30t-52.5 -52.5t-19.5 -76q0 -39 16.5 -63.5t53 -43t108.5 -45.5l207 -76q128 -46 187 -139t59 -227q0 -124 -48.5 -221.5t-134.5 -165.5 t-205.5 -104t-260.5 -36q-105 0 -191.5 26t-146.5 73.5t-85 101.5t-31 100h-112zM1344 1982l-356 -325h-240l-196 325h248l96 -157l172 157h276z" />
<glyph unicode="&#x161;" horiz-adv-x="1018" d="M722 792q-41 21 -106 21q-27 0 -51.5 -4.5t-42.5 -14t-28.5 -24t-10.5 -33.5q0 -15 12.5 -31t47.5 -24l164 -35q77 -17 131 -48t88 -71t49.5 -85.5t15.5 -90.5q0 -103 -42 -175.5t-110.5 -118.5t-154.5 -67.5t-174 -21.5q-147 0 -234 40q-48 23 -80 57h-165l63 274h299 q-7 -43 -1.5 -62.5t22.5 -35t43 -23.5t59 -8q69 0 109.5 25t40.5 67q0 25 -18 43t-66 31l-131 33q-71 18 -124.5 50.5t-89.5 74.5t-54.5 91.5t-18.5 100.5q0 84 37.5 148t101.5 106.5t147 64t175 21.5q66 0 121.5 -11.5t98.5 -31.5q25 -11 45 -23h210l-64 -274h-270 q-5 46 -44 65zM1119 1503l-356 -325h-240l-196 325h248l96 -157l172 157h276z" />
<glyph unicode="&#x162;" horiz-adv-x="1368" d="M342 274h157l225 967h-194l-43 -186h-344l107 461h1425l-106 -461h-344l43 186h-194l-225 -967h169l-64 -274h-675zM473 -29l289 -104l-197 -338l-206 72z" />
<glyph unicode="&#x163;" horiz-adv-x="762" d="M145 1036h193l59 248l383 164l-98 -412h190l-63 -274h-192l-87 -371q-15 -56 -13 -89t21.5 -47.5t45.5 -14.5q21 0 45.5 4t52.5 12l4 -229q-32 -12 -63 -22t-65.5 -16.5t-73 -10t-83.5 -3.5q-72 0 -126.5 16.5t-86 55.5t-38 104.5t17.5 163.5l105 447h-191zM317 -29 l289 -104l-197 -338l-206 72z" />
<glyph unicode="&#x164;" horiz-adv-x="1368" d="M342 274h157l225 967h-194l-43 -186h-344l107 461h1425l-106 -461h-344l43 186h-194l-225 -967h169l-64 -274h-675zM1417 1982l-356 -325h-240l-196 325h248l96 -157l172 157h276z" />
<glyph unicode="&#x165;" horiz-adv-x="820" d="M145 1036h193l59 248l383 164l-98 -412h190l-63 -274h-192l-87 -371q-15 -56 -13 -89t21.5 -47.5t45.5 -14.5q21 0 45.5 4t52.5 12l4 -229q-32 -12 -63 -22t-65.5 -16.5t-73 -10t-83.5 -3.5q-72 0 -126.5 16.5t-86 55.5t-38 104.5t17.5 163.5l105 447h-191zM1043 1059 h-219l71 518l289 16z" />
<glyph unicode="&#x16a;" horiz-adv-x="1534" d="M281 1516h612l-64 -275h-116l-146 -629q-21 -100 -12 -155.5t39 -95.5t74 -58t104 -18q58 0 104.5 16.5t83.5 55t65.5 101t49.5 154.5l145 629h-137l64 275h612l-63 -275h-130l-155 -674q-36 -158 -97 -271.5t-147 -186t-197.5 -106.5t-248.5 -34q-113 0 -207.5 33.5 t-163 94t-104 146t-41 181.5t19.5 209l142 608h-150zM1346 1656h-688l43 215h688z" />
<glyph unicode="&#x16b;" horiz-adv-x="1356" d="M846 1036h477l-177 -762h191l-63 -274h-500l19 81q-31 -25 -65 -44q-43 -24 -94 -36.5t-112 -12.5q-102 0 -183.5 39t-114.5 101.5t-40.5 135.5t17.5 162l77 336h-167l63 274h488l-136 -585q-10 -43 -4 -77.5t25 -59t49.5 -37.5t69.5 -13q32 0 64 11t60.5 30.5t55.5 49.5 l94 407h-158zM1100 1176h-688l43 215h688z" />
<glyph unicode="&#x16e;" horiz-adv-x="1534" d="M281 1516h495l-63 -275l-146 -629q-12 -56 -12 -106q0 -44 11.5 -84t37 -70.5t67 -48.5t101.5 -18q58 0 104.5 16.5t83.5 55t65.5 101t49.5 154.5l207 904h477l-63 -275h-131l-154 -674q-36 -158 -97 -271.5t-147 -186t-197.5 -106.5t-248.5 -34q-113 0 -207.5 33.5 t-163 96t-107 152t-38.5 202.5q0 40 4.5 85t15.5 95l142 608h-150zM911 1726q0 -26 9.5 -48t26 -38.5t39 -26t48.5 -9.5t48.5 9.5t39 26t26 38.5t9.5 48t-9.5 48.5t-26 39t-39 26t-48.5 9.5t-48.5 -9.5t-39 -26t-26 -39t-9.5 -48.5zM1034 2025q61 0 115.5 -23.5t95.5 -64.5 t64.5 -95.5t23.5 -115.5t-23.5 -115.5t-64.5 -95t-95.5 -64.5t-115.5 -24q-62 0 -116 24t-95 64.5t-64.5 95t-23.5 115.5t23.5 115.5t64.5 95.5t95 64.5t116 23.5z" />
<glyph unicode="&#x16f;" horiz-adv-x="1356" d="M846 1036h477l-177 -762h191l-63 -274h-500l19 81q-31 -25 -65 -44q-43 -24 -94 -36.5t-112 -12.5q-102 0 -183.5 39t-114.5 101.5t-40.5 135.5t17.5 162l77 336h-167l63 274h488l-136 -585q-10 -43 -4 -77.5t25 -59t49.5 -37.5t69.5 -13q32 0 64 11t60.5 30.5t55.5 49.5 l94 407h-158zM806 1726q65 0 123 -25t101.5 -68t68.5 -101t25 -123t-25 -123t-68.5 -101.5t-101.5 -68.5t-123 -25t-123 25t-101 68.5t-68 101.5t-25 123t25 123t68 101t101 68t123 25zM681 1409q0 -26 10 -49t27 -40t39.5 -26.5t48.5 -9.5t48.5 9.5t39 26.5t26 40t9.5 49 t-9.5 48.5t-26 39t-39 26t-48.5 9.5t-48.5 -9.5t-39.5 -26t-27 -39t-10 -48.5z" />
<glyph unicode="&#x170;" horiz-adv-x="1534" d="M281 1516h612l-64 -275h-116l-146 -629q-21 -100 -12 -155.5t39 -95.5t74 -58t104 -18q58 0 104.5 16.5t83.5 55t65.5 101t49.5 154.5l145 629h-137l64 275h612l-63 -275h-130l-155 -674q-36 -158 -97 -271.5t-147 -186t-197.5 -106.5t-248.5 -34q-113 0 -207.5 33.5 t-163 94t-104 146t-41 181.5t19.5 209l142 608h-150zM1606 2002l-281 -320h-188l208 320h261zM1208 2002l-256 -320h-186l184 320h258z" />
<glyph unicode="&#x171;" horiz-adv-x="1356" d="M846 1036h477l-177 -762h191l-63 -274h-500l19 81q-31 -25 -65 -44q-43 -24 -94 -36.5t-112 -12.5q-102 0 -183.5 39t-114.5 101.5t-40.5 135.5t17.5 162l77 336h-167l63 274h488l-136 -585q-10 -43 -4 -77.5t25 -59t49.5 -37.5t69.5 -13q32 0 64 11t60.5 30.5t55.5 49.5 l94 407h-158zM1307 1522l-281 -320h-188l208 320h261zM909 1522l-256 -320h-186l184 320h258z" />
<glyph unicode="&#x172;" horiz-adv-x="1534" d="M1147 1516h612l-63 -275h-131l-154 -674q-31 -131 -71 -222t-95 -156.5t-128 -111.5t-167 -85q-37 -17 -84 -38.5t-89 -47t-69.5 -57t-27.5 -64.5q0 -39 24.5 -53.5t47.5 -14.5q39 0 65.5 6.5t46.5 16.5l49 -170q-22 -12 -73.5 -26.5t-104.5 -14.5q-61 0 -113.5 14.5 t-92.5 41t-62.5 65.5t-22.5 90q0 78 43 137.5t109 104.5q-88 16 -159.5 55t-123 99.5t-80 140t-28.5 176.5q0 41 5 86t15 94l142 608h-150l64 275h612l-64 -275h-116l-146 -629q-6 -28 -9 -54t-3 -52q0 -43 11.5 -83t37 -70.5t67.5 -49t101 -18.5q57 0 104.5 16t84 55 t64.5 101.5t50 154.5l146 629h-138z" />
<glyph unicode="&#x173;" horiz-adv-x="1356" d="M1147 274h190l-63 -274h-103q-57 -2 -118.5 -20.5t-113.5 -49t-86 -69.5t-34 -78t27.5 -53.5t50.5 -14.5q39 0 62.5 6.5t44.5 16.5l49 -170q-23 -12 -74 -26.5t-105 -14.5q-61 0 -113 14.5t-92 41t-62.5 65.5t-22.5 90q0 80 54 147.5t136 114.5l19 82 q-54 -47 -119.5 -70.5t-151.5 -23.5q-71 0 -139 19.5t-113 64.5q-28 28 -48.5 62t-30 77t-8.5 96t18 119l78 336h-168l63 274h488l-136 -585q-20 -86 21 -136.5t119 -50.5q49 0 96 24.5t84 65.5l94 408h-158l64 274h477z" />
<glyph unicode="&#x178;" horiz-adv-x="1393" d="M248 1516h612l-63 -275h-105l133 -328l25 26l262 302h-88l63 275h613l-64 -275h-101l-594 -626l-79 -341h170l-63 -274h-676l63 274h160l82 361l-280 606h-134zM510 1821q0 37 13.5 69.5t37.5 57t56.5 38.5t70.5 14q36 0 68 -14t56 -38.5t38 -57t14 -69.5t-14 -69.5 t-38 -56.5t-56 -38t-68 -14q-38 0 -70.5 14t-56.5 38t-37.5 56.5t-13.5 69.5zM989 1821q0 37 14 69.5t38 57t56.5 38.5t70.5 14q36 0 68 -14t56 -38.5t38 -57t14 -69.5t-14 -69.5t-38 -56.5t-56 -38t-68 -14q-38 0 -70.5 14t-56.5 38t-38 56.5t-14 69.5z" />
<glyph unicode="&#x179;" horiz-adv-x="1320" d="M1455 1202l-974 -928h430l59 258h348l-123 -532h-1175l71 313l956 928h-405l-59 -262h-344l125 537h1163zM969 1968h326v-25l-306 -286h-235z" />
<glyph unicode="&#x17a;" horiz-adv-x="1150" d="M62 164l574 606h-206l-36 -156h-260l96 422h907l-41 -180l-578 -588h222l43 183h260l-103 -451h-915zM731 1489h326v-25l-306 -286h-235z" />
<glyph unicode="&#x17b;" horiz-adv-x="1320" d="M1455 1202l-974 -928h430l59 258h348l-123 -532h-1175l71 313l956 928h-405l-59 -262h-344l125 537h1163zM762 1849q0 37 13.5 69.5t37.5 56.5t56.5 38t70.5 14q36 0 68 -14t56 -38t38 -56.5t14 -69.5t-14 -69.5t-38 -56.5t-56 -38t-68 -14q-38 0 -70.5 14t-56.5 38 t-37.5 56.5t-13.5 69.5z" />
<glyph unicode="&#x17c;" horiz-adv-x="1150" d="M62 164l574 606h-206l-36 -156h-260l96 422h907l-41 -180l-578 -588h222l43 183h260l-103 -451h-915zM522 1370q0 37 13.5 69.5t37.5 56.5t56.5 38t70.5 14q36 0 68 -14t56 -38t38 -56.5t14 -69.5t-14 -69.5t-38 -56.5t-56 -38t-68 -14q-38 0 -70.5 14t-56.5 38 t-37.5 56.5t-13.5 69.5z" />
<glyph unicode="&#x17d;" horiz-adv-x="1320" d="M1455 1202l-974 -928h430l59 258h348l-123 -532h-1175l71 313l956 928h-405l-59 -262h-344l125 537h1163zM1392 1982l-356 -325h-240l-196 325h248l96 -157l172 157h276z" />
<glyph unicode="&#x17e;" horiz-adv-x="1150" d="M62 164l574 606h-206l-36 -156h-260l96 422h907l-41 -180l-578 -588h222l43 183h260l-103 -451h-915zM1149 1503l-356 -325h-240l-196 325h248l96 -157l172 157h276z" />
<glyph unicode="&#x192;" horiz-adv-x="815" d="M315 1036h156l41 172q20 90 68.5 160t113 117t139 70.5t152.5 23.5q115 0 174.5 -29.5t81.5 -56.5l-162 -211q-20 16 -46.5 26.5t-67.5 10.5q-54 0 -100 -35t-62 -102l-35 -146h190l-61 -262h-188l-201 -874q-23 -90 -70 -160t-111.5 -117t-140 -70.5t-151.5 -23.5 q-115 0 -174.5 29.5t-81.5 56.5l162 211q20 -16 46.5 -26.5t67.5 -10.5q54 0 100 35t62 102l195 848h-158z" />
<glyph unicode="&#x218;" horiz-adv-x="1268" d="M80 532h364q-27 -101 -19 -143t33.5 -70t69 -43.5t105.5 -15.5q56 0 100.5 15t76 41.5t48 63t16.5 79.5q0 33 -14 57t-37.5 41.5t-54.5 30.5t-66 24l-172 60q-60 20 -109.5 55.5t-85 83.5t-55.5 108.5t-20 129.5q0 123 46 215.5t128.5 154t197 92.5t251.5 31 q99 0 180 -23t139.5 -61.5t89 -86t37.5 -95.5h115l-60 -256h-362q21 93 12 129t-35 62t-65.5 39.5t-87.5 13.5q-49 0 -93 -9.5t-77 -30t-52.5 -52.5t-19.5 -76q0 -39 16.5 -63.5t53 -43t108.5 -45.5l207 -76q128 -46 187 -139t59 -227q0 -124 -48.5 -221.5t-134.5 -165.5 t-205.5 -104t-260.5 -36q-105 0 -191.5 26t-146.5 73.5t-85 101.5t-31 100h-112zM489 -29l289 -104l-197 -338l-206 72z" />
<glyph unicode="&#x219;" horiz-adv-x="1018" d="M722 792q-41 21 -106 21q-27 0 -51.5 -4.5t-42.5 -14t-28.5 -24t-10.5 -33.5q0 -15 12.5 -31t47.5 -24l164 -35q77 -17 131 -48t88 -71t49.5 -85.5t15.5 -90.5q0 -103 -42 -175.5t-110.5 -118.5t-154.5 -67.5t-174 -21.5q-147 0 -234 40q-48 23 -80 57h-165l63 274h299 q-7 -43 -1.5 -62.5t22.5 -35t43 -23.5t59 -8q69 0 109.5 25t40.5 67q0 25 -18 43t-66 31l-131 33q-71 18 -124.5 50.5t-89.5 74.5t-54.5 91.5t-18.5 100.5q0 84 37.5 148t101.5 106.5t147 64t175 21.5q66 0 121.5 -11.5t98.5 -31.5q25 -11 45 -23h210l-64 -274h-270 q-5 46 -44 65zM369 -29l289 -104l-197 -338l-206 72z" />
<glyph unicode="&#x21a;" horiz-adv-x="1368" d="M342 274h157l225 967h-194l-43 -186h-344l107 461h1425l-106 -461h-344l43 186h-194l-225 -967h169l-64 -274h-675zM473 -29l289 -104l-197 -338l-206 72z" />
<glyph unicode="&#x21b;" horiz-adv-x="762" d="M145 1036h193l59 248l383 164l-98 -412h190l-63 -274h-192l-87 -371q-15 -56 -13 -89t21.5 -47.5t45.5 -14.5q21 0 45.5 4t52.5 12l4 -229q-32 -12 -63 -22t-65.5 -16.5t-73 -10t-83.5 -3.5q-72 0 -126.5 16.5t-86 55.5t-38 104.5t17.5 163.5l105 447h-191zM215 -29 l289 -104l-197 -338l-206 72z" />
<glyph unicode="&#x2bc;" horiz-adv-x="340" d="M111 1493l288 -104l-196 -338l-207 71z" />
<glyph unicode="&#x2c6;" horiz-adv-x="991" d="M100 1178l357 325h239l197 -325h-248l-96 157l-172 -157h-277z" />
<glyph unicode="&#x2c7;" horiz-adv-x="991" d="M954 1503l-356 -325h-240l-196 325h248l96 -157l172 157h276z" />
<glyph unicode="&#x2d8;" horiz-adv-x="987" d="M483 1157q-95 0 -167 21.5t-125 63t-89.5 101.5t-60.5 138h252q20 -60 67.5 -91.5t122.5 -31.5q72 0 118 29t71 94h250q-22 -77 -58 -137t-89.5 -101.5t-125.5 -63.5t-166 -22z" />
<glyph unicode="&#x2d9;" horiz-adv-x="539" d="M92 1370q0 37 13.5 69.5t37.5 56.5t56.5 38t70.5 14q36 0 68 -14t56 -38t38 -56.5t14 -69.5t-14 -69.5t-38 -56.5t-56 -38t-68 -14q-38 0 -70.5 14t-56.5 38t-37.5 56.5t-13.5 69.5z" />
<glyph unicode="&#x2da;" horiz-adv-x="1200" d="M606 1726q65 0 123 -25t101.5 -68t68.5 -101t25 -123t-25 -123t-68.5 -101.5t-101.5 -68.5t-123 -25t-123 25t-101 68.5t-68 101.5t-25 123t25 123t68 101t101 68t123 25zM481 1409q0 -26 10 -49t27 -40t39.5 -26.5t48.5 -9.5t48.5 9.5t39 26.5t26 40t9.5 49t-9.5 48.5 t-26 39t-39 26t-48.5 9.5t-48.5 -9.5t-39.5 -26t-27 -39t-10 -48.5z" />
<glyph unicode="&#x2db;" horiz-adv-x="664" d="M543 29q-66 -29 -111 -56t-73 -55.5t-40 -58.5t-12 -64q0 -19 8 -32t20.5 -20.5t29 -11t34.5 -3.5q39 0 66 6.5t47 15.5l49 -166q-11 -6 -31.5 -13t-45.5 -13.5t-51.5 -10.5t-49.5 -4q-61 0 -112.5 13.5t-89 39.5t-58.5 64.5t-21 89.5t18 95.5t48 81.5t68 66.5t77 52 t77 38t67 22.5z" />
<glyph unicode="&#x2dc;" horiz-adv-x="903" d="M295 1479q42 0 81 -14.5t76.5 -32t73 -32t70.5 -14.5q42 0 74.5 15t58.5 53l158 -70q-15 -45 -42.5 -84t-63.5 -68.5t-79 -46t-90 -16.5q-52 0 -94 13.5t-79.5 30t-73.5 30.5t-76 14q-45 0 -76 -18.5t-51 -44.5l-152 70q14 54 47.5 94t74.5 67t84.5 40.5t78.5 13.5z" />
<glyph unicode="&#x2dd;" horiz-adv-x="1044" d="M836 1516l-281 -320h-188l208 320h261zM438 1516l-256 -320h-186l184 320h258z" />
<glyph unicode="&#x393;" horiz-adv-x="1253" d="M98 274h159l226 977h-146l62 265h1140l-106 -461h-328l45 196h-317l-225 -977h165l-63 -274h-676z" />
<glyph unicode="&#x3a0;" horiz-adv-x="1872" d="M380 1516h1621l-64 -274h-156l-223 -968h176l-64 -274h-676l64 274h150l223 969h-592l-223 -969h153l-63 -274h-660l64 274h156l223 968h-173z" />
<glyph unicode="&#x3c0;" horiz-adv-x="1624" d="M1041.5 -4q-54.5 14 -85 54t-34.5 107.5t20 176.5l96 428h-225l-113 -488h129l-63 -274h-608l63 274h137l113 488h-137l63 274h1172l-64 -274h-125l-92 -395q-6 -29 -5 -48.5t9 -32t23.5 -17.5t36.5 -5q20 0 38.5 3t32.5 7l-12 -266q-16 -4 -43 -9t-60.5 -9t-68.5 -6 t-65 -2q-78 0 -132.5 14z" />
<glyph unicode="&#x400;" horiz-adv-x="1505" d="M393 1516h1297l-119 -517h-350l55 242h-421l-76 -326h337l-67 -290h-337l-82 -351h396l61 269h351l-125 -543h-1252l64 274h155l224 967h-174zM1040 1658l-293 286v25h326l196 -311h-229z" />
<glyph unicode="&#x401;" horiz-adv-x="1505" d="M393 1516h1297l-119 -517h-350l55 242h-421l-76 -326h337l-67 -290h-337l-82 -351h396l61 269h351l-125 -543h-1252l64 274h155l224 967h-174zM622 1821q0 37 13.5 69.5t37.5 57t56.5 38.5t70.5 14q36 0 68 -14t56 -38.5t38 -57t14 -69.5t-14 -69.5t-38 -56.5t-56 -38 t-68 -14q-38 0 -70.5 14t-56.5 38t-37.5 56.5t-13.5 69.5zM1101 1821q0 37 14 69.5t38 57t56.5 38.5t70.5 14q36 0 68 -14t56 -38.5t38 -57t14 -69.5t-14 -69.5t-38 -56.5t-56 -38t-68 -14q-38 0 -70.5 14t-56.5 38t-38 56.5t-14 69.5z" />
<glyph unicode="&#x402;" horiz-adv-x="1784" d="M1675 1055h-327l45 196h-188l-89 -383q74 18 152.5 27.5t142.5 9.5q113 0 197 -29t139.5 -79.5t83 -119.5t27.5 -149q0 -89 -25 -164t-67.5 -135.5t-99.5 -107t-120 -77.5t-129.5 -46.5t-128.5 -15.5h-33t-30 2l67 288h29q35 0 75.5 8.5t75 31.5t57.5 63t23 104 q0 42 -18 70.5t-48 46t-70 25.5t-85 8q-78 0 -149.5 -11.5t-130.5 -31.5l-73 -312h152l-63 -274h-676l64 274h173l227 977h-200l-45 -196h-325l106 461h1391z" />
<glyph unicode="&#x403;" horiz-adv-x="1229" d="M98 274h159l226 977h-146l62 265h1140l-106 -461h-328l45 196h-317l-225 -977h165l-63 -274h-676zM1090 1968h326v-25l-306 -286h-235z" />
<glyph unicode="&#x404;" horiz-adv-x="1503" d="M1225 1055q-27 67 -91.5 110t-162.5 43q-68 0 -131.5 -21.5t-118.5 -58t-102.5 -89t-79.5 -113.5h622l-59 -264h-637v-21q0 -74 21.5 -136.5t60.5 -106.5t94 -68.5t125 -24.5q111 0 192.5 56.5t137.5 138.5l317 -158q-115 -180 -287 -276.5t-399 -96.5q-135 0 -250 46 t-197.5 130t-130 202t-47.5 261q0 213 79 386t207 295t292 188.5t334 66.5q162 0 279.5 -58.5t193.5 -156.5h190l-63 -274h-389v0z" />
<glyph unicode="&#x405;" horiz-adv-x="1268" d="M80 532h364q-27 -101 -19 -143t33.5 -70t69 -43.5t105.5 -15.5q56 0 100.5 15t76 41.5t48 63t16.5 79.5q0 33 -14 57t-37.5 41.5t-54.5 30.5t-66 24l-172 60q-60 20 -109.5 55.5t-85 83.5t-55.5 108.5t-20 129.5q0 123 46 215.5t128.5 154t197 92.5t251.5 31 q99 0 180 -23t139.5 -61.5t89 -86t37.5 -95.5h115l-60 -256h-362q21 93 12 129t-35 62t-65.5 39.5t-87.5 13.5q-49 0 -93 -9.5t-77 -30t-52.5 -52.5t-19.5 -76q0 -39 16.5 -63.5t53 -43t108.5 -45.5l207 -76q128 -46 187 -139t59 -227q0 -124 -48.5 -221.5t-134.5 -165.5 t-205.5 -104t-260.5 -36q-105 0 -191.5 26t-146.5 73.5t-85 101.5t-31 100h-112z" />
<glyph unicode="&#x406;" horiz-adv-x="780" d="M393 1516h676l-63 -275h-151l-225 -967h171l-64 -274h-676l64 274h155l224 967h-174z" />
<glyph unicode="&#x407;" horiz-adv-x="926" d="M393 1516h676l-63 -275h-151l-225 -967h171l-64 -274h-676l64 274h155l224 967h-174zM424 1821q0 66 46 113t114 47q33 0 61.5 -12t50 -33.5t34 -51.5t12.5 -63q0 -32 -12.5 -62t-34 -51.5t-50 -33.5t-61.5 -12q-68 0 -114 47t-46 112v0zM801 1821q0 66 46 113t114 47 q32 0 61 -12t50.5 -33.5t33.5 -51.5t12 -63q0 -32 -12 -62t-33.5 -51.5t-50.5 -33.5t-61 -12q-68 0 -114 47t-46 112v0z" />
<glyph unicode="&#x408;" horiz-adv-x="782" d="M352 1516h676l-63 -275h-149l-247 -1069q-42 -81 -75 -124.5t-121 -128.5q-77 -79 -174 -165l-281 23q84 90 132 144.5t97.5 123.5t81.5 160l239 1036h-179z" />
<glyph unicode="&#x409;" horiz-adv-x="2257" d="M1020 274h172l223 969h-301l-180 -547q-45 -137 -101.5 -263t-133 -222t-179 -153.5t-239.5 -57.5h-250l96 414h279l-37 -158q37 18 66.5 52t58 88.5t57.5 131t63 181.5l179 534h-244l63 273h1411l-63 -273h-195l-67 -291h205q104 0 186 -30.5t138.5 -85t86 -128 t29.5 -159.5q0 -111 -36 -210t-113.5 -175t-203.5 -120t-307 -44h-727zM1634 678l-92 -404h131q74 0 129.5 17.5t94 50.5t58 77t19.5 97q0 86 -55 124t-154 38h-131z" />
<glyph unicode="&#x40a;" horiz-adv-x="2163" d="M1315 1516h676l-64 -275h-151l-68 -289h205q104 0 186 -30.5t138.5 -85t86 -128t29.5 -159.5q0 -111 -36 -210t-113.5 -175t-203.5 -120t-306 -44h-727l63 274h172l92 404h-530l-92 -404h170l-64 -274h-676l64 274h156l223 967h-172l63 275h676l-63 -275h-154l-68 -289 h531l67 289h-174zM1645 678l-93 -404h131q74 0 129.5 17.5t94.5 50.5t58.5 77t19.5 97q0 86 -55.5 124t-153.5 38h-131z" />
<glyph unicode="&#x40b;" horiz-adv-x="1804" d="M1220 274h158l22 91q19 77 10.5 125.5t-39 74t-82 34.5t-118.5 9q-72 0 -140.5 -6t-140.5 -18l-71 -310h159l-63 -274h-649l63 274h158l225 977h-199l-45 -196h-325l106 461h1393l-107 -461h-327l45 196h-209l-86 -374q78 12 162 20t161 8q125 0 225.5 -21.5t163 -78.5 t83 -156.5t-16.5 -255.5l-27 -119h160l-63 -274h-650z" />
<glyph unicode="&#x40c;" horiz-adv-x="1563" d="M1237 1968h326v-25l-306 -286h-235zM1370 1243l64 273h618l-63 -275h-134l-642 -477l350 -490h147l-61 -274h-564l64 274l-377 519zM393 1516h676l-63 -275h-151l-225 -967h171l-64 -274h-676l64 274h155l224 967h-174z" />
<glyph unicode="&#x40d;" horiz-adv-x="1843" d="M410 1516h575l-63 -275h-125l-170 -739l874 1016h447l-64 -277h-123l-223 -967h123l-64 -274h-575l63 274h129l166 725l-870 -999h-449l64 274h127l221 967h-127zM1172 1657l-293 286v25h326l196 -311h-229z" />
<glyph unicode="&#x40e;" horiz-adv-x="1444" d="M1079 1241q17 70 32 137.5t32 137.5h612q-16 -70 -31.5 -137.5t-31.5 -137.5h-136q-157 -237 -311.5 -473t-312.5 -473q-111 -168 -231.5 -237.5t-243.5 -69.5h-41.5t-36.5 2q-47 4 -85 7t-79 3h-98q24 104 47.5 206.5t48.5 207.5h309q-10 -43 -20 -85t-21 -85 q27 2 50.5 9t45 19.5t41 29.5t37.5 40q-51 225 -101 449.5t-101 449.5h-140q17 70 32 137.5t32 137.5h612q-16 -70 -31.5 -137.5t-31.5 -137.5h-105q23 -123 42.5 -242.5t41.5 -242.5q72 123 145.5 242.5t145.5 242.5h-117v0zM1052 1636q-95 0 -167 21.5t-125 63 t-89.5 101.5t-60.5 138h252q20 -60 67.5 -91.5t122.5 -31.5q72 0 118 29t71 94h250q-22 -77 -58 -137t-89.5 -101.5t-125.5 -63.5t-166 -22z" />
<glyph unicode="&#x40f;" horiz-adv-x="1838" d="M1333 1516h676l-64 -275h-156l-225 -969h154l-64 -272h-635l-80 -348h-309l80 348h-649l63 272h146l225 969h-172l63 275h676l-63 -275h-154l-225 -969h594l225 969h-170z" />
<glyph unicode="&#x410;" horiz-adv-x="1479" d="M907 274h84l-16 209h-418l-111 -209h127l-63 -274h-612l63 274h128l689 1242h436l114 -1242h192l-64 -274h-612zM711 772h243l-30 402z" />
<glyph unicode="&#x411;" horiz-adv-x="1473" d="M150 274h172l225 977h-144l62 265h1188l-107 -461h-327l45 196h-367l-70 -299h205q105 0 186.5 -30.5t138 -85t86.5 -128t30 -159.5q0 -111 -36 -210t-114 -175t-204 -120t-306 -44h-727zM764 678l-92 -404h131q74 0 129 17.5t94 50.5t58.5 77t19.5 97q0 86 -55.5 124 t-153.5 38h-131z" />
<glyph unicode="&#x412;" horiz-adv-x="1516" d="M125 274h153l224 967h-172l63 275h766q96 0 170 -29t124.5 -80.5t76.5 -121.5t26 -152q0 -85 -28 -164.5t-93 -142.5q-48 -45 -118 -79q8 -6 14 -12q51 -47 77 -108t26 -131q0 -124 -40.5 -217t-115.5 -155t-181 -93t-237 -31h-799zM710 627l-82 -353h249q52 0 92.5 15.5 t68 44t42 68t14.5 87.5q0 29 -9 54.5t-26 44t-43 29t-60 10.5h-246zM853 1241l-79 -340h232q45 0 84 13.5t67.5 39t45 61t16.5 79.5q0 30 -9.5 56.5t-27.5 47t-45.5 32t-63.5 11.5h-220z" />
<glyph unicode="&#x413;" horiz-adv-x="1253" d="M111 274h159l226 977h-146l62 265h1140l-106 -461h-328l45 196h-317l-225 -977h165l-63 -274h-676z" />
<glyph unicode="&#x414;" horiz-adv-x="1737" d="M43 272h158q57 21 98 61t70.5 96t53 126t50.5 152l170 536h-237l63 273h1411l-63 -273h-152l-225 -971h186l-143 -620h-332l78 348h-918l-80 -348h-331zM782 684q-34 -111 -79.5 -217.5t-114.5 -194.5h502l225 971h-357z" />
<glyph unicode="&#x415;" horiz-adv-x="1505" d="M393 1516h1297l-119 -517h-350l55 242h-421l-76 -326h337l-67 -290h-337l-82 -351h396l61 269h351l-125 -543h-1252l64 274h155l224 967h-174z" />
<glyph unicode="&#x416;" horiz-adv-x="2304" d="M821 274h158l86 371h-141l-334 -371l-64 -274h-503l63 274h123l502 512l-299 455h-115l65 275h517l-66 -273l176 -323h139l74 321h-158l64 275h649l-63 -275h-160l-74 -321h137l322 323l63 273h517l-64 -275h-113l-510 -455l269 -512h123l-66 -274h-504l66 274l-164 371 h-139l-86 -371h159l-63 -274h-649z" />
<glyph unicode="&#x417;" horiz-adv-x="1270" d="M123 262q16 76 33.5 150.5t33.5 150.5h363q-10 -39 -17.5 -78t-17.5 -77q6 -66 49 -95.5t119 -29.5q49 0 94 17t81 47t57.5 70t21.5 85q0 65 -44 107t-128 42h-139q16 68 31.5 136.5t31.5 136.5h142q51 0 94 15t71.5 40t45 58.5t16.5 70.5q0 27 -10.5 52.5t-31 46 t-49 32.5t-67.5 12q-35 0 -68.5 -11t-62.5 -29.5t-51.5 -43t-32.5 -51.5q0 -26 -11 -56t-15 -59h-363q16 76 34.5 151t35.5 151h106q41 55 92 100t111.5 77.5t129.5 51t144 18.5q92 0 171 -29.5t136.5 -82t90 -125t32.5 -160.5q0 -59 -17 -111.5t-48 -97.5t-73 -82t-91 -65 q47 -35 77 -112t30 -159q0 -110 -50.5 -209.5t-134.5 -173t-193.5 -117.5t-228.5 -44q-86 0 -155.5 19t-124 56t-92 88.5t-58.5 116.5h-100v0z" />
<glyph unicode="&#x418;" horiz-adv-x="1805" d="M410 1516h575l-63 -275h-125l-170 -739l874 1016h447l-64 -277h-123l-223 -967h123l-64 -274h-575l63 274h129l166 725l-870 -999h-449l64 274h127l221 967h-127z" />
<glyph unicode="&#x419;" horiz-adv-x="1843" d="M410 1516h575l-63 -275h-125l-170 -739l874 1016h447l-64 -277h-123l-223 -967h123l-64 -274h-575l63 274h129l166 725l-870 -999h-449l64 274h127l221 967h-127zM1198 1636q-95 0 -167 21.5t-125 63t-89.5 101.5t-60.5 138h252q20 -60 67.5 -91.5t122.5 -31.5 q72 0 118 29t71 94h250q-22 -77 -58 -137t-89.5 -101.5t-125.5 -63.5t-166 -22z" />
<glyph unicode="&#x41a;" horiz-adv-x="1614" d="M1370 1243l64 273h618l-63 -275h-134l-642 -477l350 -490h147l-61 -274h-564l64 274l-377 519zM393 1516h676l-63 -275h-151l-225 -967h171l-64 -274h-676l64 274h155l224 967h-174z" />
<glyph unicode="&#x41b;" horiz-adv-x="1880" d="M1071 274h176l223 969h-356l-180 -547q-45 -137 -101.5 -263t-133 -222t-179 -153.5t-239.5 -57.5h-250l96 414h279l-37 -158q37 18 66.5 52t58 88.5t57.5 131t63 181.5l179 534h-244l63 273h1411l-63 -273h-139l-224 -969h150l-64 -274h-675z" />
<glyph unicode="&#x41c;" horiz-adv-x="2419" d="M115 274h136l224 967h-174l64 275h688l181 -1016l619 1016h707l-63 -275h-154l-225 -967h149l-63 -274h-613l64 274h115l189 814l-677 -1070h-301l-199 1082l-199 -826h144l-63 -274h-613z" />
<glyph unicode="&#x41d;" horiz-adv-x="1946" d="M1413 1516h676l-64 -275h-155l-224 -967h175l-64 -274h-676l64 274h151l90 388h-666l-90 -388h171l-64 -274h-676l64 274h155l224 967h-172l63 275h676l-63 -275h-153l-72 -309h665l72 309h-170z" />
<glyph unicode="&#x41e;" horiz-adv-x="1597" d="M748 -31q-136 0 -250.5 46.5t-198 130.5t-130 201.5t-46.5 260.5q0 142 36 266.5t99.5 228.5t150 186t187.5 138.5t212.5 86.5t225.5 30q142 0 257.5 -47t197 -131.5t126 -202.5t44.5 -260q0 -139 -33.5 -262t-94.5 -227t-145 -186.5t-185.5 -140t-216 -88t-236.5 -30.5z M786 305q67 0 131 21.5t120 59.5t103 91t80.5 116t52.5 134t19 145q0 75 -20.5 136.5t-59.5 106t-95 69t-126 24.5q-102 0 -194 -47t-161 -126t-110 -181t-41 -213q0 -75 21 -136.5t60.5 -106t95 -69t124.5 -24.5z" />
<glyph unicode="&#x41f;" horiz-adv-x="1888" d="M395 1516h1621l-64 -274h-156l-223 -968h176l-64 -274h-676l64 274h150l223 969h-592l-223 -969h153l-63 -274h-660l64 274h156l223 968h-173z" />
<glyph unicode="&#x420;" horiz-adv-x="1395" d="M393 1516h705q104 0 186 -31.5t138.5 -86.5t86 -129.5t29.5 -160.5q0 -110 -35.5 -209t-114 -173.5t-204.5 -118.5t-307 -44h-180l-67 -289h171l-64 -274h-676l64 274h155l224 967h-174zM855 1241l-95 -407h106q68 0 123.5 14.5t95 44.5t61 75t21.5 107q0 76 -51.5 121 t-154.5 45h-106z" />
<glyph unicode="&#x421;" horiz-adv-x="1513" d="M1133.5 1165.5q-65.5 42.5 -162.5 42.5q-68 0 -132 -21.5t-120.5 -60t-103 -91.5t-80 -116t-52 -133.5t-18.5 -144.5q0 -75 21 -136.5t60.5 -106t95 -69t124.5 -24.5q55 0 103 15t89.5 41.5t75.5 62t62 76.5l317 -158q-114 -180 -286.5 -276.5t-399.5 -96.5 q-136 0 -250.5 46.5t-198 130.5t-130 201.5t-46.5 260.5q0 142 36 266.5t99.5 228.5t150 186t188 138.5t213 86.5t225.5 30q91 0 168 -19t141 -54t102.5 -73.5t61.5 -68.5h190l-63 -274h-389q-26 68 -91.5 110.5z" />
<glyph unicode="&#x422;" horiz-adv-x="1368" d="M342 274h157l225 967h-194l-43 -186h-344l107 461h1425l-106 -461h-344l43 186h-194l-225 -967h169l-64 -274h-675z" />
<glyph unicode="&#x423;" horiz-adv-x="1444" d="M1079 1241q17 70 32 137.5t32 137.5h612q-16 -70 -31.5 -137.5t-31.5 -137.5h-136q-157 -237 -311.5 -473t-312.5 -473q-111 -168 -231.5 -237.5t-243.5 -69.5h-41.5t-36.5 2q-47 4 -85 7t-79 3h-98q24 104 47.5 206.5t48.5 207.5h309q-10 -43 -20 -85t-21 -85 q27 2 50.5 9t45 19.5t41 29.5t37.5 40q-51 225 -101 449.5t-101 449.5h-140q17 70 32 137.5t32 137.5h612q-16 -70 -31.5 -137.5t-31.5 -137.5h-105q23 -123 42.5 -242.5t41.5 -242.5q72 123 145.5 242.5t145.5 242.5h-117v0z" />
<glyph unicode="&#x424;" horiz-adv-x="1599" d="M758 1587h631l-52 -219h-149l-21 -90q107 -4 200 -31.5t164 -78t111.5 -121t40.5 -158.5q0 -127 -56 -222.5t-154.5 -158t-230.5 -95t-284 -34.5l-24 -105h172l-64 -274h-675l63 274h172l25 105q-105 4 -197 31.5t-160.5 77t-107.5 119t-39 157.5q0 129 59.5 225 t157.5 158.5t227 94.5t269 36l20 90h-149zM1346 879q0 45 -21.5 76.5t-55.5 51t-75 30t-80 12.5l-102 -441q55 2 113.5 18.5t107.5 49.5t81 83t32 120v0zM461 780q0 -43 20.5 -74.5t52 -53t70.5 -32t76 -12.5l102 441q-51 -2 -107.5 -17.5t-104.5 -48.5t-78.5 -83 t-30.5 -120v0z" />
<glyph unicode="&#x425;" horiz-adv-x="1618" d="M1208 1516h676l-63 -275h-125l-558 -491l312 -476h170l-64 -274h-675l63 274h118l-170 260l-295 -260h101l-63 -274h-676l64 274h121l584 512l-297 455h-173l64 275h675l-63 -275h-117l156 -239l272 239h-100z" />
<glyph unicode="&#x426;" horiz-adv-x="1867" d="M1339 1516h676l-64 -275h-155l-223 -967h293l-144 -622h-309l80 348h-1432l63 274h157l223 967h-172l63 275h677l-63 -275h-154l-223 -967h590l224 967h-170z" />
<glyph unicode="&#x427;" horiz-adv-x="1708" d="M408 1516h612l-64 -275h-120l-45 -188q-19 -78 -9.5 -126t40 -75t81.5 -35t119 -8t132.5 5t129.5 15l94 412h-135l64 275h612l-64 -275h-126l-224 -967h156l-64 -274h-675l63 274h170l62 265q-76 -13 -156 -20t-152 -7q-125 0 -228 21.5t-170 79t-90.5 156.5t13.5 255 l49 217h-139z" />
<glyph unicode="&#x428;" horiz-adv-x="2607" d="M2030 1516h676l-64 -275h-156l-223 -967h156l-64 -274h-2330l63 274h156l224 967h-163l64 275h665l-63 -275h-154l-223 -967h496l223 967h-170l63 275h676l-63 -275h-156l-223 -967h473l223 967h-170z" />
<glyph unicode="&#x429;" horiz-adv-x="2566" d="M2038 1516h676l-64 -275h-156l-223 -967h301l-143 -622h-309l80 348h-2175l63 274h164l223 967h-172l64 275h675l-63 -275h-154l-223 -967h496l223 967h-170l63 275h676l-63 -275h-156l-223 -967h473l223 967h-170z" />
<glyph unicode="&#x42a;" horiz-adv-x="1544" d="M303 274h182l226 977h-164l-45 -196h-328l107 461h1003l-61 -265h-162l-70 -299h195q104 0 186 -30.5t138.5 -85t86 -128t29.5 -159.5q0 -111 -36 -210t-113.5 -175t-203.5 -120t-306 -44h-727zM928 678l-92 -404h120q74 0 129.5 17.5t94.5 50.5t58 77t19 97 q0 86 -55 124t-153 38h-121z" />
<glyph unicode="&#x42b;" horiz-adv-x="2230" d="M434 1516h676l-63 -275h-152l-68 -289h205q105 0 186.5 -30.5t138 -85t86.5 -128t30 -159.5q0 -111 -36 -210t-114 -175t-204 -120t-306 -44h-727l64 274h172l223 967h-174zM764 678l-92 -404h131q74 0 129 17.5t94 50.5t58.5 77t19.5 97q0 86 -55.5 124t-153.5 38h-131z M1697 1516h676l-63 -275h-151l-225 -967h171l-64 -274h-676l64 274h155l224 967h-174z" />
<glyph unicode="&#x42c;" horiz-adv-x="1386" d="M434 1516h676l-63 -275h-152l-68 -289h205q105 0 186.5 -30.5t138 -85t86.5 -128t30 -159.5q0 -111 -36 -210t-114 -175t-204 -120t-306 -44h-727l64 274h172l223 967h-174zM764 678l-92 -404h131q74 0 129 17.5t94 50.5t58.5 77t19.5 97q0 86 -55.5 124t-153.5 38h-131z " />
<glyph unicode="&#x42d;" horiz-adv-x="1671" d="M645 641q17 70 32 137.5t32 136.5h671q-8 86 -51 154q-20 33 -48 58.5t-59.5 44t-69.5 27.5t-81 9q-104 0 -189 -41t-145 -112h-164.5h-164.5q0 2 1 2t1 2q-7 -2 -12 -2t-11 -2q16 69 32.5 139t33.5 139h133q47 43 108.5 81t131 67.5t147.5 46t157 16.5q142 0 254.5 -47 t191.5 -131t121 -203t42 -260q0 -209 -74 -381t-199 -295t-290.5 -190.5t-348.5 -67.5q-122 0 -224.5 36t-179.5 97.5t-123 145.5t-54 182q86 23 172 45.5t172 44.5q8 -45 29.5 -84t58.5 -68.5t88 -46t117 -16.5q69 0 140 25.5t133.5 70.5t112.5 106.5t79 133.5h-703v0z" />
<glyph unicode="&#x42e;" horiz-adv-x="2445" d="M1577 -31q-135 0 -250 46t-197.5 130t-130 202t-47.5 261v33t2 33h-192l-92 -400h170l-64 -274h-676l64 274h155l224 967h-174l63 275h676l-64 -275h-151l-68 -293h187q51 139 141 250t203.5 187.5t244 117.5t263.5 41q141 0 256.5 -47t197.5 -131t126 -203t44 -260 q0 -209 -73.5 -381t-198.5 -295t-291 -190.5t-348 -67.5v0zM1616 305q100 0 192.5 47t162 125t110.5 181.5t41 213.5q0 74 -20.5 136.5t-59.5 106.5t-95.5 68.5t-125.5 24.5q-103 0 -195 -47t-160.5 -126t-109.5 -181t-41 -213q0 -74 21.5 -136.5t60.5 -106.5t94 -68.5 t125 -24.5v0z" />
<glyph unicode="&#x42f;" horiz-adv-x="1682" d="M905 274h158l76 330h-142q-120 0 -193 -57.5t-120 -186.5l-143 -360h-428l65 274h125l100 218q39 86 91.5 139t109.5 80q-41 24 -73.5 52t-55 61.5t-34 75.5t-11.5 93q0 103 45 197t125 167t191.5 116t244.5 43h789l-64 -275h-143l-223 -967h139l-64 -274h-628zM791 1018 q0 -74 56 -109t157 -35h198l84 367h-199q-71 0 -126.5 -16.5t-93.5 -45t-57 -70.5t-19 -91v0z" />
<glyph unicode="&#x430;" horiz-adv-x="1391" d="M786 79q-37 -39 -98 -66q-65 -29 -153 -29q-81 0 -159 29t-138.5 86.5t-98 142.5t-37.5 196q0 96 25 179.5t69 153t104.5 123.5t132 91t151 56.5t161.5 19.5q46 0 78.5 -6t74.5 -18t98 -52l12 51h340l-177 -762h191l-64 -274h-530zM823 372l44 55l50 216q-12 23 -31 44.5 t-47.5 37.5t-62 24.5t-67.5 8.5q-54 0 -103 -21.5t-85.5 -58t-58.5 -86.5t-22 -107q0 -48 15 -84t41 -60t60 -36t73 -12q33 0 67.5 8.5t66.5 26t60 44.5z" />
<glyph unicode="&#x431;" horiz-adv-x="1300" d="M573 981q-2 -2 -3 -7t-3 -13q49 34 124 63t188 29q77 0 149 -34t126 -94.5t86 -142.5t32 -178q0 -137 -49 -251.5t-134 -198.5t-199 -131.5t-243 -47.5q-110 0 -198.5 39t-150.5 102.5t-96 146.5t-34 173q0 68 9 132.5t22.5 125t30 114.5t28.5 97q84 281 273.5 430.5 t478.5 163.5q65 0 86.5 13.5t27.5 41.5h287q-6 -57 -31.5 -114.5t-72.5 -103.5t-116 -76.5t-161 -36.5q-22 -2 -41.5 -2t-42.5 -2q-80 -5 -144.5 -25t-111.5 -53t-76.5 -74t-40.5 -86v0zM664 266q53 0 104 19.5t92 58.5t66.5 94.5t25.5 128.5q0 43 -14 77t-41 58.5t-62.5 38 t-78.5 13.5q-60 0 -111 -21.5t-89 -59.5t-60.5 -89.5t-22.5 -108.5q0 -47 13.5 -85t38 -65.5t60.5 -43t79 -15.5v0z" />
<glyph unicode="&#x432;" horiz-adv-x="1333" d="M143 0l179 774h-138l62 262h708q183 0 283 -67.5t100 -184.5q0 -102 -45 -166.5t-131 -99.5q45 -26 69.5 -64t24.5 -92q0 -79 -39.5 -145.5t-109.5 -115t-165 -75t-204 -26.5h-594zM535 422l-39 -170h276q66 0 114 24.5t48 77.5q0 39 -35 53.5t-86 14.5h-278zM616 774 l-36 -160h262q80 0 117.5 18.5t37.5 67.5q0 33 -27.5 53.5t-90.5 20.5h-263z" />
<glyph unicode="&#x433;" d="M489 719h-258q17 69 32.5 139t31.5 139h184q53 29 129 49.5t189 20.5q86 0 158.5 -19.5t125 -56.5t82 -88t29.5 -115q0 -63 -19.5 -111t-57.5 -86t-93 -67.5t-128 -53.5t-163 -43t-194 -40q-60 -10 -80.5 -36.5t-20.5 -55.5t33 -53.5t111 -24.5q38 0 76 8t69 24.5 t53.5 40t28.5 54.5h283q-17 -70 -33.5 -139.5t-32.5 -138.5h-170q-59 -41 -139 -69t-193 -28q-84 0 -158.5 19.5t-131 58.5t-89 95.5t-32.5 129.5q0 64 20.5 120.5t72.5 104.5t140 87t221 63q58 10 112 19.5t96 20.5t67.5 26.5t25.5 40.5q0 41 -41 53t-88 12 q-94 0 -161.5 -23.5t-83.5 -66.5v-2q0 -2 -1.5 -4t-1.5 -4v0z" />
<glyph unicode="&#x434;" horiz-adv-x="1370" d="M737 1556q127 -40 231 -104.5t178.5 -162.5t115.5 -234t41 -318q0 -198 -50.5 -342t-136 -237t-197.5 -138t-235 -45q-111 0 -203 36.5t-157.5 99t-101.5 146.5t-36 179t22.5 178.5t62.5 152.5t95 123.5t120 92t136.5 57t145.5 19.5q42 0 84.5 -5.5t81.5 -13.5 q-17 45 -46.5 81t-73.5 65.5t-104 53.5t-137 44zM784 768q-55 0 -104.5 -23.5t-86.5 -63.5t-59 -93.5t-22 -114.5q0 -44 13.5 -80.5t37.5 -63t58.5 -41t76.5 -14.5q58 0 108 26.5t86 68.5t56.5 93.5t20.5 100.5v9.5v11.5q-7 48 -24 82.5t-42 57t-55.5 33.5t-63.5 11v0z" />
<glyph unicode="&#x435;" horiz-adv-x="1178" d="M428 440q2 -24 8 -46q10 -38 33.5 -66.5t61.5 -45t92 -16.5q40 0 73.5 8t63.5 22.5t57.5 34.5t54.5 44l220 -193q-101 -108 -233 -158.5t-284 -50.5q-98 0 -184 32t-150 91.5t-101.5 144.5t-37.5 191q0 143 51.5 260t138.5 200.5t201.5 129t241.5 45.5q101 0 186 -35.5 t146.5 -95t96 -137.5t34.5 -162q0 -20 -2 -45t-6 -51.5t-10 -52.5t-13 -48h-739zM471 680q-4 -7 -7 -14h433q-2 27 -17.5 52.5t-41 45.5t-60 32.5t-76.5 12.5q-50 0 -95.5 -15t-80 -43.5t-55.5 -70.5z" />
<glyph unicode="&#x436;" horiz-adv-x="1978" d="M1524 762l63 274h514l-63 -274h-176l-254 -236l168 -252h147l-63 -274h-281l-248 401h-102l-29 -127h133l-63 -274h-441l95 408h-160l-127 -134l-63 -274h-504q16 70 31.5 137.5t31.5 136.5h168l258 238l-168 252h-147l63 274h281l248 -401h141l29 125h-134l64 274h440 l-94 -405h121l123 131h-2v0z" />
<glyph unicode="&#x437;" horiz-adv-x="1147" d="M526 430q11 47 23 96t22 97h88q56 0 94 6t61.5 20.5t33.5 35t10 48.5q0 53 -39 73.5t-104 20.5q-41 0 -81 -10t-74 -30.5t-60.5 -51t-40.5 -69.5h-6q-2 0 -2 1t-2 1h-275q16 69 29.5 136.5t29.5 137.5h148q72 55 170 92t221 37q113 0 192.5 -20.5t130 -58.5t73 -91 t22.5 -119q0 -34 -14.5 -75t-43 -79t-72.5 -65.5t-104 -34.5q39 -10 65 -29.5t41 -45t21.5 -53t6.5 -52.5q0 -76 -32 -144.5t-96.5 -120.5t-164 -83t-236.5 -31q-123 0 -208 29t-138 79t-81 116.5t-36 140.5q74 12 146.5 23.5t146.5 23.5q-8 -72 41 -117t146 -45q36 0 72 5 t64.5 18.5t46 38t17.5 61.5q0 45 -39 66.5t-125 21.5h-88v0z" />
<glyph unicode="&#x438;" horiz-adv-x="1356" d="M846 1036h477l-177 -762h191l-63 -274h-500l19 81q-31 -25 -65 -44q-43 -24 -94 -36.5t-112 -12.5q-102 0 -183.5 39t-114.5 101.5t-40.5 135.5t17.5 162l77 336h-167l63 274h488l-136 -585q-10 -43 -4 -77.5t25 -59t49.5 -37.5t69.5 -13q32 0 64 11t60.5 30.5t55.5 49.5 l94 407h-158z" />
<glyph unicode="&#x439;" horiz-adv-x="1356" d="M846 1036h477l-177 -762h191l-63 -274h-500l19 81q-31 -25 -65 -44q-43 -24 -94 -36.5t-112 -12.5q-102 0 -183.5 39t-114.5 101.5t-40.5 135.5t17.5 162l77 336h-167l63 274h488l-136 -585q-10 -43 -4 -77.5t25 -59t49.5 -37.5t69.5 -13q32 0 64 11t60.5 30.5t55.5 49.5 l94 407h-158zM769 1231q-95 0 -167 21.5t-125 63t-89.5 101.5t-60.5 138h252q20 -60 67.5 -91.5t122.5 -31.5q72 0 118 29t71 94h250q-22 -77 -58 -137t-89.5 -101.5t-125.5 -63.5t-166 -22z" />
<glyph unicode="&#x43a;" horiz-adv-x="1290" d="M229 1036h496l-98 -420h96l154 164l59 256h457l-64 -274h-98l-236 -223l135 -265h156l-63 -274h-301l-197 406h-145l-95 -406h-342l176 762h-153z" />
<glyph unicode="&#x43b;" horiz-adv-x="1577" d="M918 0q45 193 88 382t88 382h-215q-13 -39 -31.5 -110.5t-50 -156.5t-79.5 -173t-120 -160t-168 -118t-225 -46h-154l64 272q92 0 153.5 19.5t105.5 69t77.5 132t70.5 209.5l19 62h-133q16 67 31.5 136t31.5 136h1178q-17 -67 -32 -136t-32 -136h-149 q-29 -123 -56.5 -245t-56.5 -245h145q-16 -69 -31.5 -136.5t-31.5 -137.5h-487v0z" />
<glyph unicode="&#x43c;" horiz-adv-x="1997" d="M1391 0q30 135 62 271.5t63 271.5h-3q-127 -125 -250.5 -250t-250.5 -250q-60 123 -116 243t-116 242v0q-47 -137 -96 -237.5t-114.5 -165t-152.5 -95t-208 -30.5h-141q16 68 31.5 136.5t31.5 135.5q98 0 155.5 20.5t95.5 75t71.5 149.5t87.5 245h-211q16 69 31.5 137 t31.5 137h477q60 -133 120.5 -265t119.5 -265q129 133 258 265t258 265h496q-17 -69 -32 -137t-32 -137h-182q-29 -123 -56.5 -244t-56.5 -244h183q-17 -69 -32.5 -136.5t-31.5 -137.5h-491v0z" />
<glyph unicode="&#x43d;" horiz-adv-x="1499" d="M270 1036h496l-88 -381h389l88 381h342l-176 -762h145l-63 -274h-488l95 412h-389l-95 -412h-342l176 762h-153z" />
<glyph unicode="&#x43e;" d="M102 436q0 143 51.5 259.5t138.5 199t201.5 127.5t241.5 45q98 0 183.5 -36t148.5 -98.5t99 -147t36 -181.5q0 -137 -48.5 -252t-133 -199t-200 -131t-249.5 -47q-101 0 -186.5 36.5t-148.5 99t-98.5 146.5t-35.5 179zM428 473q0 -44 13 -80.5t36.5 -63t56 -41 t70.5 -14.5q52 0 101 22.5t87.5 62t61.5 93t23 115.5q0 51 -14.5 88.5t-38.5 62.5t-56 37.5t-68 12.5q-57 0 -106.5 -23.5t-86 -63.5t-58 -93.5t-21.5 -114.5z" />
<glyph unicode="&#x43f;" horiz-adv-x="1534" d="M289 1036h1317l-64 -272h-137l-113 -490h146l-64 -274h-487l176 764h-348l-113 -490h172l-63 -274h-676l63 274h162l113 490h-148z" />
<glyph unicode="&#x440;" horiz-adv-x="1366" d="M203 1036h520l-11 -73q37 40 99 68q66 30 154 30q84 0 162 -29.5t138 -87t96 -142.5t36 -196q0 -96 -25 -179.5t-69 -152.5t-104.5 -123t-132 -91t-151 -56.5t-161.5 -19.5q-37 0 -74 6t-71 16.5t-62 24.5q-26 12 -44 26l-59 -254h201l-63 -274h-541l286 1233h-188z M676 672q-23 -22 -42 -51l-51 -220q10 -23 26 -41q22 -24 51 -40t63 -24.5t68 -8.5q54 0 102.5 21.5t85 58t58.5 86t22 106.5q0 48 -15 84t-41 60t-60 36.5t-73 12.5q-33 0 -67.5 -8.5t-66.5 -26.5t-60 -45z" />
<glyph unicode="&#x441;" horiz-adv-x="1171" d="M852 668q-16 42 -59 68t-93 26q-56 0 -105.5 -22.5t-86.5 -62t-58.5 -92t-21.5 -112.5q0 -45 14.5 -80.5t38.5 -61t56 -39t67 -13.5q83 0 138.5 38.5t91.5 100.5l272 -148q-32 -62 -84 -116t-121 -94t-152.5 -62.5t-177.5 -22.5q-101 0 -186.5 36.5t-148.5 99 t-98.5 146.5t-35.5 179q0 143 51.5 259.5t138.5 199t201.5 127.5t241.5 45q80 0 148 -23t123 -63q25 -18 47 -39h192l-63 -274h-330v0z" />
<glyph unicode="&#x442;" horiz-adv-x="2083" d="M207 1036h518l-19 -93q56 43 104 67t99 37.5t105 13.5q132 0 213 -66q53 -43 77 -108q78 76 167 123q96 51 204 51q87 0 152.5 -29t104.5 -83t49 -132.5t-13 -177.5l-84 -365h189l-64 -274h-530l129 557q8 38 4.5 69.5t-16 54t-34 34.5t-49.5 12q-51 0 -126 -39 q-38 -20 -81 -52l-147 -636h-350l129 557q9 38 5.5 69.5t-16 54t-34 34.5t-49.5 12q-51 0 -126 -39q-39 -20 -82 -52l-147 -636h-350l176 762h-172z" />
<glyph unicode="&#x443;" horiz-adv-x="1296" d="M475 -33q-43 199 -85 397.5t-85 397.5h-106q16 69 31.5 137t31.5 137h512q-16 -69 -31.5 -137t-31.5 -137h-80q18 -105 35.5 -206t35.5 -206q60 105 121.5 206t120.5 206h-88q16 69 31.5 137t32.5 137h512q-17 -69 -32.5 -137t-31.5 -137h-100q-121 -197 -241 -390.5 t-241 -389.5q-75 -125 -138.5 -211t-135.5 -140.5t-161 -78t-214 -23.5h-47v274h133q68 0 134.5 38t115.5 120q2 2 2 4t2 4l-2 -2v0z" />
<glyph unicode="&#x444;" horiz-adv-x="1882" d="M856 1282q16 70 31.5 137.5t32.5 136.5h481q-17 -69 -32 -136.5t-32 -137.5v0q-16 -65 -29.5 -130t-29.5 -130q41 20 88 29.5t104 9.5q84 0 162 -30t138.5 -87t96.5 -142t36 -196q0 -137 -50.5 -251.5t-137.5 -196.5t-204.5 -128t-250.5 -46q-58 0 -113 12t-98 33 q-13 -58 -26 -113t-26 -113h191q-17 -69 -32 -136.5t-32 -137.5h-497q28 125 57 249t57 249q-39 -23 -89 -34t-109 -11q-105 0 -187 36.5t-138 99t-86 145.5t-30 175q0 144 53.5 259.5t142.5 196.5t204.5 124t238.5 43q56 0 119.5 -7t110.5 -28q16 66 29.5 128.5t29.5 127.5 h-174zM637 291q45 0 90 10t86 39l86 375q-35 28 -81 38.5t-91 10.5q-59 0 -109.5 -20.5t-87 -56.5t-57 -85t-20.5 -106q0 -93 49 -149t135 -56v0zM1372 762q-47 0 -87 -9.5t-77 -31.5q-22 -96 -43.5 -190.5t-44.5 -190.5q35 -29 81 -41t95 -12q54 0 103 21.5t86 58t58.5 86 t21.5 106.5q0 96 -53.5 149.5t-139.5 53.5v0z" />
<glyph unicode="&#x445;" horiz-adv-x="1237" d="M678 274h73l-97 118l-157 -118h74l-63 -274h-498l64 274h75l328 264l-175 224h-122l64 274h512l-64 -274h-80l89 -104l136 104h-63l64 274h512l-64 -274h-101l-305 -246l189 -242h107l-64 -274h-498z" />
<glyph unicode="&#x446;" horiz-adv-x="1358" d="M846 1036h477l-149 -649q-9 -33 -2.5 -54.5t20.5 -34.5t34.5 -18.5t41.5 -5.5h104l-135 -581h-309l71 307h-16q-39 0 -68.5 8t-51 21.5t-34 31t-18.5 35.5q-29 -26 -59.5 -46.5t-66.5 -34t-76 -20.5t-87 -7q-71 0 -134.5 19.5t-108.5 64.5q-29 28 -50.5 64t-32 79 t-10.5 96.5t15 114.5l78 336h-168l63 274h488l-136 -585q-20 -86 21 -136.5t119 -50.5q49 0 96 24.5t84 65.5l94 408h-158z" />
<glyph unicode="&#x447;" horiz-adv-x="1257" d="M207 1036h409q-51 -229 -65 -295q-8 -36 -10 -64t9 -45.5t39.5 -26.5t82.5 -9q45 0 77.5 3t73.5 11l99 426h309l-176 -762h155l-63 -274h-465q20 90 40.5 179t41.5 179q-37 -4 -75 -7t-89 -3q-123 0 -205 18.5t-125 61.5t-51 113.5t17 177.5q4 10 5 21.5t5 21.5h-103z " />
<glyph unicode="&#x448;" horiz-adv-x="2083" d="M1526 762q16 69 31.5 137t31.5 137h471q-45 -192 -88 -380.5t-88 -381.5h191q-17 -69 -32 -136.5t-32 -137.5h-524q4 20 10 40.5t10 41.5q-55 -43 -123.5 -68.5t-146.5 -25.5q-123 0 -194.5 43t-112.5 112q-66 -71 -150 -113t-182 -42q-86 0 -156.5 28.5t-116.5 82 t-62.5 129t5.5 169.5q23 92 42.5 182.5t41.5 182.5h-168q17 69 32 137t32 137h489q-16 -73 -33.5 -146t-34 -146.5t-34 -146.5t-33.5 -146q-18 -78 22 -132.5t117 -54.5q41 0 73 19.5t83 66.5q43 172 81 342t79 344h321q-16 -73 -33.5 -146t-34 -146.5t-33.5 -146.5 l-34 -146q-20 -84 20 -135.5t117 -51.5q50 0 97 24.5t84 65.5q22 103 46.5 204t47.5 204h-129v0z" />
<glyph unicode="&#x449;" horiz-adv-x="2105" d="M1526 762q16 69 31.5 137t31.5 137h447q-37 -164 -75 -324.5t-75 -324.5q-8 -33 -2 -54.5t20.5 -34.5t35 -18.5t40.5 -5.5h105q-35 -147 -67.5 -290.5t-67.5 -290.5h-310q19 78 36.5 153.5t35.5 153.5h-16q-78 0 -120 29.5t-52 66.5q-58 -49 -130.5 -78.5t-156.5 -29.5 q-123 0 -194.5 43t-112.5 112q-66 -71 -150 -113t-182 -42q-86 0 -156.5 28.5t-116.5 82t-62.5 129t5.5 169.5q23 92 42.5 182.5t41.5 182.5h-168q17 69 32 137t32 137h489q-16 -73 -33.5 -146t-34 -146.5t-34 -146.5t-33.5 -146q-18 -78 22 -132.5t117 -54.5q41 0 73 19.5 t83 66.5q43 172 81 342t79 344h321q-16 -73 -33.5 -146t-34 -146.5t-33.5 -146.5l-34 -146q-20 -84 20 -135.5t117 -51.5q47 0 94.5 23.5t84.5 64.5q22 105 46.5 205t47.5 205h-127v0z" />
<glyph unicode="&#x44a;" horiz-adv-x="1511" d="M246 1036h766l-82 -352h180q88 0 164 -13.5t131 -45t86 -82.5t31 -125q0 -111 -47.5 -189.5t-126 -130t-181 -75t-215.5 -23.5h-506l177 762h-179l-22 -94h-262zM877 455l-43 -191h249q27 0 49.5 9.5t38 24.5t23.5 35.5t8 41.5q0 28 -17.5 54t-58.5 26h-249z" />
<glyph unicode="&#x44b;" horiz-adv-x="1935" d="M272 1036h477l-82 -352h181q88 0 163.5 -13.5t131 -45t86 -82.5t30.5 -125q0 -111 -47 -189.5t-126 -130t-181 -75t-215 -23.5h-506l176 762h-151zM614 455l-43 -191h250q27 0 49.5 9.5t37.5 24.5t23.5 35.5t8.5 41.5q0 28 -17.5 54t-58.5 26h-250zM1577 1036h342 l-176 -762h191l-64 -274h-532z" />
<glyph unicode="&#x44c;" horiz-adv-x="1212" d="M264 1036h477l-82 -352h181q88 0 163.5 -13.5t131 -45t86 -82.5t30.5 -125q0 -111 -47 -189.5t-126 -130t-181 -75t-215 -23.5h-506l176 762h-151zM606 455l-43 -191h250q27 0 49.5 9.5t37.5 24.5t23.5 35.5t8.5 41.5q0 28 -17.5 54t-58.5 26h-250z" />
<glyph unicode="&#x44d;" horiz-adv-x="1180" d="M559 655h373q-8 37 -26.5 67t-47.5 50.5t-66.5 31.5t-82.5 11q-47 0 -89 -11t-78 -31.5t-64.5 -47.5t-49.5 -57h-248l64 274h129q43 31 91 55.5t96 41t96.5 24.5t91.5 8q98 0 183 -36t148.5 -98.5t99 -147t35.5 -183.5q0 -137 -48 -252.5t-131 -199.5t-196.5 -131.5 t-242.5 -47.5q-104 0 -186 32t-138.5 82t-88 113.5t-38.5 125.5l281 78q8 -68 61.5 -116t133.5 -48q55 0 102 13t83 37.5t61.5 59.5t41.5 78h-401z" />
<glyph unicode="&#x44e;" horiz-adv-x="1880" d="M248 1036h532l-88 -383h144q32 97 92.5 173.5t138.5 130t172 82t195 28.5q98 0 183 -36t148.5 -98.5t99.5 -147.5t36 -181q0 -137 -48.5 -251.5t-133.5 -198.5t-200.5 -131.5t-248.5 -47.5q-98 0 -181.5 34t-146 93.5t-99.5 139t-41 170.5h-166l-95 -412h-342l176 762 h-191zM1126 473q0 -88 49.5 -143.5t127.5 -55.5q51 0 100 22.5t88 61.5t61.5 93.5t22.5 115.5q0 103 -52.5 152t-123.5 49q-58 0 -107 -23.5t-86 -63.5t-58.5 -93t-21.5 -115v0z" />
<glyph unicode="&#x44f;" horiz-adv-x="1247" d="M1307 1040q0 -2 -1 -2t-1 -2h6q-45 -192 -88 -380.5t-88 -381.5h145q-16 -69 -31.5 -136.5t-31.5 -137.5h-488q23 98 45.5 195.5t44.5 195.5h-98q-78 -4 -126 -36.5t-83 -106.5q-29 -62 -55.5 -124.5t-55.5 -123.5h-395q17 70 32 137.5t32 136.5h118q19 37 38.5 70 t39 58.5t42 46t50.5 34.5q-53 35 -80.5 82t-27.5 117t30.5 134.5t92 114.5t151.5 79.5t207 29.5v0v0h576zM553 670q0 -37 40 -53.5t103 -16.5h170q11 43 21 85t20 85h-172q-88 0 -135 -20.5t-47 -79.5v0z" />
<glyph unicode="&#x450;" horiz-adv-x="1178" d="M428 440q2 -24 8 -46q10 -38 33.5 -66.5t61.5 -45t92 -16.5q40 0 73.5 8t63.5 22.5t57.5 34.5t54.5 44l220 -193q-101 -108 -233 -158.5t-284 -50.5q-98 0 -184 32t-150 91.5t-101.5 144.5t-37.5 191q0 143 51.5 260t138.5 200.5t201.5 129t241.5 45.5q101 0 186 -35.5 t146.5 -95t96 -137.5t34.5 -162q0 -20 -2 -45t-6 -51.5t-10 -52.5t-13 -48h-739zM471 680q-4 -7 -7 -14h433q-2 27 -17.5 52.5t-41 45.5t-60 32.5t-76.5 12.5q-50 0 -95.5 -15t-80 -43.5t-55.5 -70.5zM701 1178l-293 286v25h326l196 -311h-229z" />
<glyph unicode="&#x451;" horiz-adv-x="1178" d="M428 440q2 -24 8 -46q10 -38 33.5 -66.5t61.5 -45t92 -16.5q40 0 73.5 8t63.5 22.5t57.5 34.5t54.5 44l220 -193q-101 -108 -233 -158.5t-284 -50.5q-98 0 -184 32t-150 91.5t-101.5 144.5t-37.5 191q0 143 51.5 260t138.5 200.5t201.5 129t241.5 45.5q101 0 186 -35.5 t146.5 -95t96 -137.5t34.5 -162q0 -20 -2 -45t-6 -51.5t-10 -52.5t-13 -48h-739zM471 680q-4 -7 -7 -14h433q-2 27 -17.5 52.5t-41 45.5t-60 32.5t-76.5 12.5q-50 0 -95.5 -15t-80 -43.5t-55.5 -70.5zM317 1343q0 37 13.5 69.5t37.5 57t56.5 38.5t70.5 14q36 0 68 -14 t56 -38.5t38 -57t14 -69.5t-14 -69.5t-38 -56.5t-56 -38t-68 -14q-38 0 -70.5 14t-56.5 38t-37.5 56.5t-13.5 69.5zM796 1343q0 37 14 69.5t38 57t56.5 38.5t70.5 14q36 0 68 -14t56 -38.5t38 -57t14 -69.5t-14 -69.5t-38 -56.5t-56 -38t-68 -14q-38 0 -70.5 14t-56.5 38 t-38 56.5t-14 69.5z" />
<glyph unicode="&#x452;" horiz-adv-x="1331" d="M410 1556h473l-63 -272h367l-38 -168h-368l-49 -214q68 52 139.5 82t156.5 30q86 0 151 -29.5t104 -85t50 -134.5t-12 -179l-139 -604q-28 -119 -82.5 -204t-130.5 -140t-170 -81t-201 -26l45 227q71 3 119 57.5t69 145.5l127 547q10 41 7 72t-16 52t-34.5 31.5 t-48.5 10.5q-50 0 -104 -26t-103 -64l-135 -584h-340l253 1096h-132l37 168h133l14 59h-133z" />
<glyph unicode="&#x453;" d="M489 719h-258q17 69 32.5 139t31.5 139h184q53 29 129 49.5t189 20.5q86 0 158.5 -19.5t125 -56.5t82 -88t29.5 -115q0 -63 -19.5 -111t-57.5 -86t-93 -67.5t-128 -53.5t-163 -43t-194 -40q-60 -10 -80.5 -36.5t-20.5 -55.5t33 -53.5t111 -24.5q38 0 76 8t69 24.5 t53.5 40t28.5 54.5h283q-17 -70 -33.5 -139.5t-32.5 -138.5h-170q-59 -41 -139 -69t-193 -28q-84 0 -158.5 19.5t-131 58.5t-89 95.5t-32.5 129.5q0 64 20.5 120.5t72.5 104.5t140 87t221 63q58 10 112 19.5t96 20.5t67.5 26.5t25.5 40.5q0 41 -41 53t-88 12 q-94 0 -161.5 -23.5t-83.5 -66.5v-2q0 -2 -1.5 -4t-1.5 -4v0zM860 1488h326v-25l-306 -286h-235z" />
<glyph unicode="&#x454;" horiz-adv-x="1180" d="M852 668q-16 41 -59 67.5t-93 26.5q-30 0 -60 -7t-57.5 -21.5t-51 -33t-42.5 -43.5h375l-59 -262h-365q11 -28 27 -49.5t37.5 -36t47.5 -22.5t52 -8q84 0 139.5 38.5t90.5 100.5l272 -148q-31 -61 -83 -115.5t-122 -94.5t-152.5 -62.5t-177.5 -22.5q-100 0 -186 36 t-148.5 99.5t-98.5 146.5t-36 179q0 144 51.5 259.5t138.5 198.5t201.5 128t241.5 45q99 0 178.5 -34t139.5 -91h192l-63 -274h-330v0z" />
<glyph unicode="&#x455;" horiz-adv-x="1018" d="M722 792q-41 21 -106 21q-27 0 -51.5 -4.5t-42.5 -14t-28.5 -24t-10.5 -33.5q0 -15 12.5 -31t47.5 -24l164 -35q77 -17 131 -48t88 -71t49.5 -85.5t15.5 -90.5q0 -103 -42 -175.5t-110.5 -118.5t-154.5 -67.5t-174 -21.5q-147 0 -234 40q-48 23 -80 57h-165l63 274h299 q-7 -43 -1.5 -62.5t22.5 -35t43 -23.5t59 -8q69 0 109.5 25t40.5 67q0 25 -18 43t-66 31l-131 33q-71 18 -124.5 50.5t-89.5 74.5t-54.5 91.5t-18.5 100.5q0 84 37.5 148t101.5 106.5t147 64t175 21.5q66 0 121.5 -11.5t98.5 -31.5q25 -11 45 -23h210l-64 -274h-270 q-5 46 -44 65z" />
<glyph unicode="&#x456;" horiz-adv-x="778" d="M207 1036h532l-176 -762h191l-64 -274h-532l176 762h-191zM434 1370q0 37 13.5 69.5t37.5 56.5t56.5 38t70.5 14q36 0 68 -14t56 -38t38 -56.5t14 -69.5t-14 -69.5t-38 -56.5t-56 -38t-68 -14q-38 0 -70.5 14t-56.5 38t-37.5 56.5t-13.5 69.5z" />
<glyph unicode="&#x457;" horiz-adv-x="860" d="M141 1036h564l-177 -762h240l-63 -274h-582l176 762h-221zM233 1342q0 66 46 113t114 47q33 0 61.5 -12t50 -33.5t34 -51.5t12.5 -63q0 -32 -12.5 -62t-34 -51.5t-50 -33.5t-61.5 -12q-68 0 -114 47t-46 112v0zM610 1342q0 66 46 113t114 47q32 0 61 -12t50.5 -33.5 t33.5 -51.5t12 -63q0 -32 -12 -62t-33.5 -51.5t-50.5 -33.5t-61 -12q-68 0 -114 47t-46 112v0z" />
<glyph unicode="&#x458;" horiz-adv-x="707" d="M176 1036h569l-239 -1038q-29 -126 -80 -214.5t-123.5 -145t-166.5 -82t-208 -25.5l39 264q33 0 64 11t57 33t45.5 54t28.5 74l184 795h-233zM414 1370q0 37 13.5 69.5t37.5 56.5t56.5 38t70.5 14q36 0 68 -14t56 -38t38 -56.5t14 -69.5t-14 -69.5t-38 -56.5t-56 -38 t-68 -14q-38 0 -70.5 14t-56.5 38t-37.5 56.5t-13.5 69.5z" />
<glyph unicode="&#x459;" horiz-adv-x="1931" d="M471 1036h1178l-64 -272h-186l-19 -80h181q88 0 163.5 -13.5t131 -45t86 -82.5t30.5 -125q0 -111 -47 -189.5t-126 -130t-181 -75t-215 -23.5h-506l176 764h-194l-25 -84q-16 -55 -38.5 -127t-56.5 -147.5t-82 -148.5t-114.5 -130t-155 -92t-202.5 -35h-154l64 272 q92 0 153.5 19.5t105.5 69t77.5 132t70.5 209.5l19 62h-133zM1327 455l-43 -191h250q27 0 49.5 9.5t37.5 24.5t23.5 35.5t8.5 41.5q0 28 -17.5 54t-58.5 26h-250z" />
<glyph unicode="&#x45a;" horiz-adv-x="2040" d="M332 1036h463l-82 -356h407l82 356h326l-82 -352h180q88 0 164 -13.5t131 -45t86 -82.5t31 -125q0 -111 -47 -189.5t-126 -130t-181.5 -75t-215.5 -23.5h-505l100 436h-408l-100 -436h-342l176 762h-121zM1393 455l-43 -191h249q27 0 49.5 9.5t38 24.5t23.5 35.5t8 41.5 q0 28 -17.5 54t-58.5 26h-249z" />
<glyph unicode="&#x45b;" horiz-adv-x="1386" d="M410 1556h473l-63 -272h377l-38 -168h-378l-50 -218q67 53 141.5 84.5t155.5 31.5q88 0 153 -29.5t104 -85t49 -134.5t-13 -179l-72 -312h191l-64 -274h-532l117 504q8 38 4.5 69.5t-16 54t-34 34.5t-49.5 12q-38 0 -91.5 -22.5t-116.5 -69.5l-134 -582h-342l253 1096 h-130l37 168h131l14 59h-131z" />
<glyph unicode="&#x45c;" horiz-adv-x="1290" d="M229 1036h496l-98 -420h96l154 164l59 256h457l-64 -274h-98l-236 -223l135 -265h156l-63 -274h-301l-197 406h-145l-95 -406h-342l176 762h-153zM881 1489h326v-25l-306 -286h-235z" />
<glyph unicode="&#x45d;" horiz-adv-x="1356" d="M846 1036h477l-177 -762h191l-63 -274h-500l19 81q-31 -25 -65 -44q-43 -24 -94 -36.5t-112 -12.5q-102 0 -183.5 39t-114.5 101.5t-40.5 135.5t17.5 162l77 336h-167l63 274h488l-136 -585q-10 -43 -4 -77.5t25 -59t49.5 -37.5t69.5 -13q32 0 64 11t60.5 30.5t55.5 49.5 l94 407h-158zM723 1252l-293 286v25h326l196 -311h-229z" />
<glyph unicode="&#x45e;" horiz-adv-x="1084" d="M829 1157q-95 0 -167 21.5t-125 63t-89.5 101.5t-60.5 138h252q20 -60 67.5 -91.5t122.5 -31.5q72 0 118 29t71 94h250q-22 -77 -58 -137t-89.5 -101.5t-125.5 -63.5t-166 -22zM475 -33q-43 199 -85 397.5t-85 397.5h-106q16 69 31.5 137t31.5 137h512 q-16 -69 -31.5 -137t-31.5 -137h-80q18 -105 35.5 -206t35.5 -206q60 105 121.5 206t120.5 206h-88q16 69 31.5 137t32.5 137h512q-17 -69 -32.5 -137t-31.5 -137h-100q-121 -197 -241 -390.5t-241 -389.5q-75 -125 -138.5 -211t-135.5 -140.5t-161 -78t-214 -23.5h-47v274 h133q68 0 134.5 38t115.5 120q2 2 2 4t2 4l-2 -2v0z" />
<glyph unicode="&#x45f;" horiz-adv-x="1491" d="M846 1036h477l-176 -762h190l-63 -274h-500l19 82q-54 -47 -119.5 -70.5t-151.5 -23.5q-71 0 -139 19.5t-113 64.5q-28 28 -48.5 62t-30 77t-8.5 96t18 119l78 336h-168l63 274h488l-136 -585q-20 -86 21 -136.5t119 -50.5q49 0 96 24.5t84 65.5l94 408h-158zM434 -117 h309l-81 -354h-310z" />
<glyph unicode="&#x490;" horiz-adv-x="1267" d="M125 274h160l225 977h-152l62 265h833l68 296h307l-129 -561h-639l-225 -977h166l-64 -274h-676z" />
<glyph unicode="&#x491;" horiz-adv-x="1175" d="M362 772h-143l61 264h721l71 307h310l-133 -571h-545l-114 -498h190l-64 -274h-532z" />
<glyph unicode="&#x4b0;" horiz-adv-x="1393" d="M1087 1516h613l-64 -275h-102l-575 -575h395l-60 -265h-413l-29 -127h180l-63 -274h-676l63 274h172l29 127h-405l59 265h399l-291 575h-135l64 275h612l-63 -275h-103l142 -303l288 303h-100z" />
<glyph unicode="&#x4b1;" horiz-adv-x="1257" d="M260 1036h512l-63 -274h-77l66 -445l266 445h-98l64 274h512l-64 -274h-105l-491 -762h303l-45 -215h-321l-57 -256h-300l60 256h-295l47 215h293l-135 762h-135z" />
<glyph unicode="&#x2013;" horiz-adv-x="1393" d="M395 733h1024l-63 -274h-1024z" />
<glyph unicode="&#x2014;" horiz-adv-x="2396" d="M498 733h1843l-64 -274h-1843z" />
<glyph unicode="&#x2018;" horiz-adv-x="608" d="M563 1657l209 -84l-297 -584l-270 107z" />
<glyph unicode="&#x2019;" horiz-adv-x="608" d="M563 1663l271 -107l-359 -561l-209 84z" />
<glyph unicode="&#x201a;" horiz-adv-x="551" d="M266 285l273 -109l-361 -561l-209 86z" />
<glyph unicode="&#x201c;" horiz-adv-x="1096" d="M1051 1657l209 -84l-297 -584l-271 107zM588 1663l209 -92l-322 -572l-270 107z" />
<glyph unicode="&#x201d;" horiz-adv-x="1096" d="M475 995l-209 84l297 584l271 -107zM938 989l-209 92l322 572l270 -107z" />
<glyph unicode="&#x201e;" horiz-adv-x="1102" d="M179 -384l-209 84l297 584l271 -107zM642 -390l-209 92l322 572l270 -107z" />
<glyph unicode="&#x2020;" horiz-adv-x="1229" d="M184 1036h348l111 480h350l-110 -480h325l-63 -268h-326l-284 -1239h-351l285 1239h-348z" />
<glyph unicode="&#x2021;" horiz-adv-x="1180" d="M170 1034h328l112 482h351l-113 -482h319l-61 -270h-320l-112 -490h340l-64 -274h-340l-108 -471h-350l108 471h-334l64 274h334l112 490h-327z" />
<glyph unicode="&#x2022;" horiz-adv-x="1270" d="M307 553q0 81 30.5 151.5t83.5 123.5t123.5 83.5t151.5 30.5t151.5 -30.5t123.5 -83.5t83.5 -123.5t30.5 -151.5t-30.5 -151.5t-83.5 -123.5t-123.5 -83.5t-151.5 -30.5t-151.5 30.5t-123.5 83.5t-83.5 123.5t-30.5 151.5z" />
<glyph unicode="&#x2026;" horiz-adv-x="1315" d="M31 143q0 37 14.5 69t40 55t59.5 36.5t72 13.5q37 0 72 -13.5t61 -36.5t42 -55t16 -69q0 -35 -16 -66.5t-42 -55.5t-61 -38t-72 -14q-38 0 -72 14t-59.5 38t-40 55.5t-14.5 66.5zM469 143q0 37 14.5 69t40 55t59.5 36.5t72 13.5t72.5 -13.5t61 -36.5t42 -55t15.5 -69 q0 -35 -15.5 -66.5t-42 -55.5t-61 -38t-72.5 -14t-72 14t-59.5 38t-40 55.5t-14.5 66.5zM907 143q0 37 14.5 69t40 55t59.5 36.5t73 13.5q37 0 71.5 -13.5t61 -36.5t42 -55t15.5 -69q0 -35 -15.5 -66.5t-42 -55.5t-61 -38t-71.5 -14q-39 0 -73 14t-59.5 38t-40 55.5 t-14.5 66.5z" />
<glyph unicode="&#x2030;" horiz-adv-x="2814" d="M206 1282q38 82 103.5 144.5t152.5 98.5t187 36q76 0 139.5 -28t108.5 -74t69.5 -106.5t24.5 -127.5q0 -88 -36.5 -170t-101.5 -144.5t-153 -99.5t-190 -37q-78 0 -140.5 27.5t-107.5 75t-69.5 106.5t-24.5 125q0 92 38 174zM551 1274q-27 -10 -47.5 -28.5t-31.5 -44 t-11 -56.5q0 -41 23.5 -68.5t68.5 -27.5q29 0 55.5 11t48 30.5t35 45t13.5 56.5q0 43 -26 67.5t-73 24.5q-28 0 -55 -10zM1565 1540h383l-1401 -1556h-383zM2012 456q38 83 103.5 145.5t153.5 100t189 37.5q75 0 137.5 -27.5t107.5 -74.5t70 -107.5t25 -128.5 q0 -90 -36 -170.5t-100.5 -142t-152.5 -98.5t-193 -37q-75 0 -138.5 26.5t-109 72.5t-70 105.5t-24.5 125.5q0 90 38 173zM2357.5 452.5q-26.5 -10.5 -47 -28.5t-32 -45t-11.5 -60q0 -36 24.5 -64t69.5 -28q29 0 55.5 11.5t48 31t34 45t12.5 56.5q0 43 -26.5 67.5 t-71.5 24.5q-29 0 -55.5 -10.5zM1142 456q38 83 103.5 145.5t153.5 100t188 37.5q76 0 138.5 -27.5t107.5 -74.5t69.5 -107.5t24.5 -128.5q0 -90 -36 -170.5t-100.5 -142t-152.5 -98.5t-192 -37q-76 0 -139.5 26.5t-108.5 72.5t-69.5 105.5t-24.5 125.5q0 90 38 173z M1486.5 452.5q-26.5 -10.5 -47 -28.5t-31.5 -45t-11 -60q0 -36 24.5 -64t69.5 -28q29 0 55.5 11.5t48 31t33.5 45t12 56.5q0 43 -26.5 67.5t-71.5 24.5q-29 0 -55.5 -10.5z" />
<glyph unicode="&#x2039;" horiz-adv-x="629" d="M376 545l146 -389h-223l-176 379l18 73l330 361h240z" />
<glyph unicode="&#x203a;" horiz-adv-x="629" d="M376 579l-147 390h224l176 -379l-19 -74l-329 -360h-240z" />
<glyph unicode="&#x2044;" horiz-adv-x="1542" d="M1569 1577h301l-1624 -1638h-307z" />
<glyph unicode="&#x2074;" horiz-adv-x="866" d="M76 1186l377 416h215l-381 -422h168l39 166h202l-39 -166h107l-37 -160h-106l-41 -182h-203l41 182h-377z" />
<glyph unicode="&#x2084;" horiz-adv-x="1141" d="M102 1516h936v-1516h-936v1516zM205 102h731v1311h-731v-1311z" />
<glyph unicode="&#x20ac;" horiz-adv-x="1554" d="M1350 1055q-25 71 -93.5 123.5t-173.5 52.5q-51 0 -101 -13.5t-97 -38t-90 -58.5t-80 -77h481l-213 -284h-408q-4 -17 -5 -31t-3 -31h496l-213 -284h-219q39 -60 98 -92.5t137 -32.5q60 0 117 19.5t106.5 51t91.5 73.5t70 87l299 -90q-53 -98 -132 -181t-177 -144.5 t-212 -96.5t-236 -35q-129 0 -235.5 48.5t-181.5 133.5t-116 199.5t-41 247.5q0 189 80 360t211 300t299 205.5t346 76.5q59 0 117.5 -11t111 -31.5t97.5 -48.5t80 -60h176l-78 -338h-309z" />
<glyph unicode="&#x2113;" horiz-adv-x="1153" d="M963 109q-17 -13 -48.5 -35.5t-76.5 -43t-102.5 -35.5t-125.5 -15q-45 0 -89 10t-83 30.5t-69.5 53t-46.5 80.5q-9 22 -13 48.5t-4 57.5q-22 -16 -42.5 -33.5t-43.5 -33.5q-35 55 -66.5 111t-66.5 112q74 59 148.5 116.5t148.5 116.5q14 60 27.5 119t27.5 119 q31 137 85.5 259t129 212t170 143t209.5 53q121 0 198 -68.5t77 -193.5q0 -86 -26 -156.5t-97.5 -151.5t-198.5 -187.5t-332 -266.5q-10 -36 -17 -73t-18 -74q-10 -43 -6 -71.5t17.5 -44t36 -21.5t49.5 -6q41 0 87 22.5t75 42.5q22 -49 42.5 -98t43.5 -98v0zM827 999 q19 15 48.5 42.5t59.5 59.5t50.5 62.5t20.5 53.5q0 20 -9.5 38.5t-33.5 18.5q-27 0 -54.5 -17.5t-55.5 -56.5t-54.5 -104.5t-50.5 -159.5q20 16 39.5 31.5t39.5 31.5v0z" />
<glyph unicode="&#x2116;" horiz-adv-x="2609" d="M1358 1516h612l-63 -275h-131l-285 -1241h-344l-387 934l-152 -660h129l-63 -274h-613l64 274h135l223 967h-164l64 275h516l375 -936l151 661h-131zM1948.5 937q33.5 75 93 130t141.5 87t178 32q74 0 135.5 -26.5t105.5 -72t69.5 -103.5t25.5 -120q0 -84 -33.5 -159.5 t-93 -132t-141.5 -89t-178 -32.5q-74 0 -135.5 25.5t-106.5 69.5t-69.5 103.5t-24.5 126.5q0 86 33.5 161zM1866 274h676l-64 -274h-676zM2187 711.5q33 -33.5 92 -33.5q37 0 69 13.5t56.5 37t38 53t13.5 62.5q0 49 -33 80.5t-88 31.5q-37 0 -70 -13t-57.5 -34.5t-39 -51.5 t-14.5 -62q0 -50 33 -83.5z" />
<glyph unicode="&#x2122;" horiz-adv-x="2165" d="M1044 1034h111l74 318h-66l47 204h383l142 -241l288 241h361l-47 -204h-107l-73 -318h108l-45 -194h-440l45 194h92l57 248l-248 -238h-133l-141 228l-57 -238h90l-45 -194h-441zM391 1034h133l76 330h-80l-22 -92h-195l66 284h794l-65 -284h-197l23 92h-84l-76 -330h88 l-45 -194h-461z" />
<glyph unicode="&#x2126;" horiz-adv-x="2017" />
<glyph unicode="&#x212e;" horiz-adv-x="1671" d="M829 -31q-153 0 -286 46t-230.5 132t-154 209t-56.5 277q0 164 60.5 289t160 208.5t230.5 126.5t272 43q168 0 301.5 -49t227.5 -139t146 -217t59 -281h-1160q-12 0 -20 -5t-8 -27v-338q0 -29 32.5 -67t93 -71.5t144.5 -58t188 -24.5q146 0 268 58t195 150h133 q-131 -141 -275 -201.5t-321 -60.5v0zM825 1247q-86 0 -168 -18.5t-145 -47t-102 -65.5t-39 -76v-340q0 -32 30 -32h852q23 0 29 8t6 24v340q0 39 -43 77t-110.5 66.5t-149.5 46t-160 17.5v0z" />
<glyph unicode="&#x2202;" horiz-adv-x="1151" d="M901 1534l219 -678q21 -63 36 -131t15 -139q0 -119 -56 -224.5t-147 -185.5t-208 -126t-238 -46q-92 0 -170 31t-133 86t-86 130t-31 165q0 106 44 202.5t118 171t169 126t198 69.5q22 4 48 7t54 1l-182 541h350zM692 711q-55 0 -107.5 -18.5t-92 -50.5t-63 -77 t-23.5 -98q0 -41 15 -73t40.5 -53.5t58.5 -32.5t70 -11q67 0 119.5 24.5t88.5 61.5t54 81t18 85q0 22 -4 42.5t-8 39.5q-24 39 -66 59.5t-100 20.5v0z" />
<glyph unicode="&#x2206;" horiz-adv-x="1556" d="M928 1583h387l217 -1479l-25 -104h-1497l25 102zM1135 340l-111 743l-446 -743h557z" />
<glyph unicode="&#x220f;" horiz-adv-x="1706" d="M516 1516h1311l-64 -275h-104l-334 -1438h178l-63 -274h-676l63 274h148l334 1438h-402l-334 -1438h156l-63 -274h-676l63 274h170l334 1438h-104z" />
<glyph unicode="&#x2211;" horiz-adv-x="1618" d="M1163 72h350l-127 -543h-1476l63 274l713 727l-364 734l57 252h1448l-119 -517h-350l53 242h-684l358 -768l-630 -670h645z" />
<glyph unicode="&#x2212;" horiz-adv-x="1059" d="M61 489l64 275h975l-64 -275h-975z" />
<glyph unicode="&#x2215;" horiz-adv-x="1495" d="M1161 1104h293l-1155 -1165h-299z" />
<glyph unicode="&#x221a;" horiz-adv-x="1481" d="M424 760h-211l63 274h453l78 -579h2l635 1058h387l-979 -1513h-320z" />
<glyph unicode="&#x221e;" horiz-adv-x="1706" d="M430 352q-80 0 -143.5 27t-109.5 75t-70.5 112.5t-24.5 140.5q0 106 46 202.5t123 170t177 116.5t207 43q121 0 190.5 -59.5t112.5 -155.5q96 98 197.5 156.5t216.5 58.5q75 0 135.5 -28.5t103.5 -78t66.5 -115t23.5 -138.5q0 -105 -46 -200t-120.5 -168t-171 -116 t-196.5 -43q-125 0 -199 57.5t-121 157.5q-90 -98 -185 -156.5t-212 -58.5v0zM1266 969q-78 0 -137.5 -44t-114.5 -122v-5t2 -3q22 -93 62 -132.5t108 -39.5q39 0 78 16t69.5 44t50 65.5t19.5 78.5q0 60 -39 101t-98 41v0zM496 623q69 0 127.5 41t124.5 131l3 3t3 5 q-9 31 -25 61.5t-39.5 53t-52.5 37t-62 14.5q-40 0 -79 -16.5t-69 -45t-47.5 -66.5t-17.5 -79q0 -60 36 -99.5t98 -39.5v0z" />
<glyph unicode="&#x222b;" horiz-adv-x="801" d="M57 -471q-116 0 -187 32.5t-87 61.5l184 232q17 -17 37.5 -26t58.5 -9q23 0 44.5 7t40 22.5t33 38t20.5 51.5l301 1267q22 99 66 168.5t105.5 115.5t137.5 67.5t162 21.5q117 0 187.5 -33t86.5 -61l-184 -232q-16 17 -36.5 26t-59.5 9q-45 0 -84 -29.5t-54 -89.5 l-301 -1267q-22 -99 -67 -168.5t-106.5 -115.5t-137.5 -67.5t-160 -21.5v0z" />
<glyph unicode="&#x2248;" horiz-adv-x="1212" d="M234 770q0 30 5 66t16.5 72.5t31.5 70.5t50 60.5t72 42.5t97 16q24 0 55.5 -11t66.5 -27t72 -35t71.5 -35t64 -26t51.5 -10q47 0 69.5 27.5t30.5 87.5l185 -41q0 -45 -12.5 -100.5t-45.5 -104.5t-90 -84t-147 -35q-55 0 -108 23.5t-101.5 50t-90.5 48.5t-75 22 q-19 0 -36 -5.5t-30 -19t-21 -35.5t-9 -55zM158 337q0 30 5 66t16.5 72.5t31.5 70.5t50 60.5t72 42.5t97 16q24 0 55.5 -11t66.5 -27t72 -35t71.5 -35t64 -26t51.5 -10q47 0 69.5 27.5t30.5 87.5l185 -41q0 -45 -12.5 -100.5t-45.5 -104.5t-90 -84t-147 -35q-55 0 -108 23.5 t-101.5 50t-90.5 48.5t-75 22q-19 0 -36 -5.5t-30 -19t-21 -35.5t-9 -55z" />
<glyph unicode="&#x2260;" horiz-adv-x="995" d="M281 1024h419l162 272h279l-162 -272h174l-63 -274h-273l-129 -222h350l-63 -274h-449l-110 -188h-283l111 188h-142l64 274h242l131 222h-322z" />
<glyph unicode="&#x2264;" horiz-adv-x="1110" d="M219 1036l813 271l-67 -287l-451 -125l393 -129l-57 -254l-686 285zM78 422h745l-63 -275h-746z" />
<glyph unicode="&#x2265;" horiz-adv-x="1018" d="M958 784l-813 -270l68 287l449 123l-392 131l58 254l686 -285zM127 422h745l-63 -275h-746z" />
<glyph unicode="&#x25ca;" horiz-adv-x="1296" d="M246 807l585 711h269l297 -779l-613 -739h-260zM721 406l305 358l-143 344l-275 -344z" />
<glyph unicode="&#x25fc;" horiz-adv-x="1035" d="M0 1035h1035v-1035h-1035v1035z" />
<glyph unicode="&#xfb01;" horiz-adv-x="1579" d="M182 1036h201l41 170q45 195 173 284t298 89q117 0 187.5 -33t86.5 -61l-184 -232q-16 17 -36.5 26t-59.5 9q-45 0 -84 -29.5t-53 -89.5l-31 -133h221l-68 -293h-223l-282 -1214h-338l284 1214h-200zM1008 1036h532l-176 -762h190l-63 -274h-533l177 762h-191zM1235 1370 q0 74 51 126t127 52q37 0 68.5 -14t55.5 -37.5t38 -56.5t14 -70t-14 -69.5t-38 -56t-55.5 -38t-68.5 -14.5q-76 0 -127 52t-51 126v0z" />
<glyph unicode="&#xfb02;" horiz-adv-x="1530" d="M182 1036h201l41 170q45 195 173 284t298 89q123 0 201 -38t118 -75l21 90h340l-295 -1282h188l-63 -274h-528l264 1151q-19 72 -77 104.5t-122 32.5q-86 0 -132 -37t-62 -102l-27 -113h221l-68 -293h-223l-282 -1214h-338l284 1214h-200z" />
<glyph horiz-adv-x="532" d="M139 -29l289 -104l-197 -338l-206 72z" />
<glyph horiz-adv-x="340" d="M285 1112l-289 105l197 337l206 -71z" />
<glyph horiz-adv-x="860" d="M750 1176h-688l43 215h688z" />
<glyph horiz-adv-x="1024" d="M217 1343q0 66 46 113t114 47q33 0 61.5 -12t50 -33.5t34 -51.5t12.5 -63q0 -32 -12.5 -62t-34 -51.5t-50 -33.5t-61.5 -12q-68 0 -114 47t-46 112v0zM594 1343q0 66 46 113t114 47q32 0 61 -12t50.5 -33.5t33.5 -51.5t12 -63q0 -32 -12 -62t-33.5 -51.5t-50.5 -33.5 t-61 -12q-68 0 -114 47t-46 112v0z" />
<glyph horiz-adv-x="991" d="M130 1178l323 325h246l164 -325h-248l-66 157l-142 -157h-277z" />
<glyph d="M504 1157q-86 0 -162 21.5t-138.5 62.5t-107.5 101.5t-69 138.5h252q10 -31 32.5 -53.5t52 -38t66.5 -23.5t74 -8q35 0 71.5 7t68.5 22.5t57.5 38t37.5 55.5h291q-22 -56 -72.5 -113t-120 -104t-154.5 -77t-179 -30v0z" />
<glyph horiz-adv-x="991" d="M954 1503l-356 -325h-240l-196 325h248l96 -157l172 157h276z" />
<glyph horiz-adv-x="803" d="M444 1036h342l-176 -762h191l-64 -274h-532z" />
<glyph horiz-adv-x="715" d="M229 1034h131l56 250l-156 -67l53 233l269 127h112l-125 -543h121l-45 -194h-461z" />
<glyph horiz-adv-x="780" d="M45 193l322 221q51 35 64 60.5t13 31.5q0 16 -10 23.5t-31 7.5q-34 0 -51.5 -20.5t-23.5 -43.5h-226q17 72 50.5 124t82 86t106.5 50.5t122 16.5q45 0 87 -10.5t74.5 -34t53 -59.5t20.5 -87q0 -41 -11 -69.5t-24.5 -47t-26.5 -29t-18 -14.5l-243 -174h250l-52 -225h-573z " />
<glyph horiz-adv-x="797" d="M543 1298q0 17 -8.5 28t-30.5 11q-29 0 -51.5 -15t-32.5 -56h-219q22 116 111 193t237 77q49 0 91 -15.5t73.5 -43t49 -63.5t17.5 -79q0 -59 -26.5 -98t-53.5 -61q17 -17 25 -46.5t8 -60.5q0 -53 -29.5 -103.5t-79 -90t-114 -63.5t-135.5 -24q-74 0 -125 20.5t-81 56.5 t-38 85t4 107h219q-6 -29 7.5 -55.5t50.5 -26.5q39 0 63.5 26.5t24.5 49.5q0 16 -11.5 28.5t-46.5 12.5h-102l31 133h112q19 0 30 8t17.5 20.5t9.5 24.5t3 20v0z" />
<glyph horiz-adv-x="866" d="M76 348l377 416h215l-381 -422h168l39 166h202l-39 -166h107l-37 -160h-106l-41 -182h-203l41 182h-377z" />
<glyph horiz-adv-x="2075" d="M814 0q-155 0 -288 59.5t-231.5 163t-154 242.5t-55.5 297q0 156 55.5 294t154 239.5t231.5 161t288 59.5h1170v-429h-205v256h-541v-485h455v-172h-455v-514h541v256h205v-428h-1170zM294 762q0 -123 40 -230.5t108.5 -187.5t162 -126t197.5 -46h240v1171h-240 q-104 0 -197.5 -45t-162 -123.5t-108.5 -184t-40 -228.5v0z" />
</font>
</defs>
</svg>
